<?xml version="1.0" standalone="no"?>
<!DOCTYPE svg PUBLIC "-//W3C//DTD SVG 1.1//EN" "http://www.w3.org/Graphics/SVG/1.1/DTD/svg11.dtd" >
<svg xmlns="http://www.w3.org/2000/svg" xmlns:xlink="http://www.w3.org/1999/xlink" version="1.1">
<metadata>
Created by FontForge 20200314 at Thu Apr 16 22:22:22 2015
 By Unknown
Copyright (c) 2014 by Active Images. All rights reserved.
</metadata>
<defs>
<font id="CCMaladroitW00-Bold" horiz-adv-x="691" >
  <font-face 
    font-family="CCMaladroitW00-Bold"
    font-weight="700"
    font-stretch="normal"
    units-per-em="1000"
    panose-1="1 0 0 0 0 0 0 0 0 0"
    ascent="800"
    descent="-200"
    x-height="794"
    cap-height="803"
    bbox="-64 -206 1600 1052"
    underline-thickness="50"
    underline-position="-175"
    unicode-range="U+000D-FB02"
  />
<missing-glyph horiz-adv-x="406" 
d="M399 35q0 -6 -1 -12t-3 -12q-7 -27 -17.5 -42.5t-25.5 -23.5t-34.5 -10t-44.5 -2q-44 0 -85 11t-73 34.5t-51 59t-19 84.5q0 27 9 50t19.5 44t19.5 39.5t9 35.5q0 18 -10 30.5t-21.5 23.5t-21.5 23.5t-10 29.5q0 20 14.5 39t32.5 35.5t32.5 30t14.5 22.5q0 10 -3 22.5
t-6.5 26t-6.5 28t-3 28.5q0 75 41.5 125.5t114.5 66.5q3 1 6.5 1h6.5q19 0 36 -9t30.5 -24t21.5 -33t8 -36q0 -30 -13.5 -44t-30 -22.5t-30 -17t-13.5 -28.5q0 -17 4.5 -33t9.5 -31.5t9.5 -32t4.5 -33.5q0 -41 -35 -70q17 -15 27 -35t10 -43q0 -22 -14 -44t-30.5 -45
t-30 -48.5t-13.5 -53.5q0 -12 7 -20t17 -13.5t21.5 -8t20.5 -2.5q6 0 12 1t12 1q29 0 52 -15t23 -48z" />
    <glyph glyph-name="A_A.liga" unicode="AA" horiz-adv-x="1411" 
d="M1398 94q0 -19 -8 -36t-21 -29.5t-30 -19.5t-36 -7q-27 0 -48 15t-37.5 37t-30 47t-25.5 45q-54 -5 -114.5 -14t-113.5 -20q-3 -17 -3.5 -29.5t-1 -24t-1 -24t-3.5 -29.5q-7 -39 -30.5 -66t-66.5 -27q-46 0 -68 29.5t-22 72.5q0 56 8.5 120t23.5 131.5t35.5 136
t44.5 133.5t50.5 124.5t53.5 107.5q13 23 33 40.5t49 17.5q17 0 30.5 -6.5t24 -17t18 -24.5t12.5 -28q10 -27 18.5 -55t18.5 -55q12 -34 26 -71.5t29 -76t30.5 -75.5t30.5 -69q45 -4 73 -27t28 -71q0 -34 -18 -59q13 -21 27 -46t14 -50zM711 117q0 -18 -6 -34t-17.5 -28
t-27 -19t-33.5 -7q-32 0 -56.5 23.5t-43.5 56t-33.5 67.5t-26.5 58q-67 -7 -135 -28t-131 -44q-6 -23 -12 -53t-17 -57t-30 -46t-51 -19q-19 0 -35.5 7.5t-29 20t-19.5 29.5t-7 36q0 27 10 70.5t26.5 94.5t37.5 106t42 106t40 94t32 70q6 13 16 35.5t22 47.5t26.5 51
t30.5 47t33 34t34 13q14 0 27 -6t24.5 -15.5t21 -21t15.5 -23.5q15 -29 26 -60.5t24 -62.5q24 -60 49 -118.5t51 -117.5q23 -2 43 -6.5t35 -15t24 -28t9 -43.5q0 -40 -24 -68q4 -15 10 -34t12 -39.5t10 -39.5t4 -33zM1066 330q-5 12 -11 28t-12 33t-11.5 33.5l-9.5 28.5
q-4 -13 -9 -30.5t-11 -36.5t-11 -36.5t-9 -30.5zM387 407q-14 30 -26 60.5t-26 61.5q-17 -35 -31.5 -70t-28.5 -70q57 11 112 18z" />
    <glyph glyph-name="B_B.liga" unicode="BB" horiz-adv-x="1567" 
d="M1564 288q0 -34 -14 -64.5t-36 -56.5t-49 -48t-53 -38q-36 -23 -91 -49t-115 -48t-118 -37t-100 -15q-31 0 -54 8t-43 33q-11 14 -18.5 32.5t-12.5 39t-7.5 40.5t-3.5 38q-3 38 -3 75t-3 75q-8 99 -10.5 196t-2.5 197q0 26 22 47t56.5 37.5t77 29t83.5 20.5t76 12t55 4
q37 0 75 -9t68 -28.5t49 -50.5t19 -74q0 -52 -24.5 -97t-58.5 -82q38 -6 79.5 -18t76.5 -34t57.5 -55t22.5 -80zM792 416q0 -43 -24 -84t-63 -79.5t-88.5 -73t-99.5 -63.5t-97 -51.5t-81 -37.5q-14 -6 -35.5 -15.5t-44 -18.5t-43.5 -15t-35 -6q-28 0 -47.5 15.5t-33 40
t-21.5 55.5t-12 62.5t-5.5 60t-1.5 47.5q0 96 1.5 190.5t10.5 190.5q-16 14 -24.5 34.5t-8.5 41.5q0 32 17.5 51t46.5 29q30 10 64 18t68.5 14t69 9t66.5 3q38 0 82 -2.5t81.5 -16t62 -42.5t24.5 -81q0 -28 -12 -54.5t-28 -49.5q36 -2 73.5 -13.5t68 -32.5t50 -52.5
t19.5 -73.5zM1209 626h-9q-46 0 -90.5 -10.5t-89.5 -22.5q0 -29 0.5 -57t1.5 -57q21 13 48 29.5t53.5 36t49 40t36.5 41.5zM1359 279q-19 8 -44.5 12t-52.5 6t-53.5 2.5t-47.5 0.5q-17 0 -34.5 -0.5t-34.5 -1.5l-60 -33q2 -33 2 -65.5t4 -65.5q33 9 77.5 25t89.5 35.5
t86 41.5t68 43zM430 649q-8 1 -16.5 1.5t-16.5 0.5q-71 0 -140 -15q-3 -29 -5 -59t-3 -59q21 11 47 25.5t51.5 31.5t48 35.5t34.5 38.5zM592 406q-14 5 -29.5 6t-30.5 1q-33 0 -63.5 -6t-60.5 -14.5t-60 -19t-61 -19.5q-2 -1 -9 -2.5t-15 -3.5t-14.5 -4t-7.5 -3
q3 -37 2.5 -72t4.5 -75q39 17 88 39.5t97.5 49.5t91 58t67.5 65z" />
    <glyph glyph-name="C_C.liga" unicode="CC" horiz-adv-x="1183" 
d="M1313 142q0 -32 -16 -51.5t-43 -33.5q-36 -18 -81 -32.5t-92.5 -25.5t-94.5 -17t-87 -6q-99 0 -161 39t-91 110q-36 -23 -77 -42t-84 -32.5t-86.5 -21t-83.5 -7.5q-66 0 -119 19t-90 55t-57 88t-20 119q0 43 8.5 100t26 117.5t44 119t62 104.5t80.5 74t99 28
q56 0 95.5 -26t64.5 -66.5t36.5 -90t11.5 -97.5q0 -43 -25.5 -71t-69.5 -28q-42 0 -61 18.5t-27.5 46t-12.5 58.5t-15 57q-31 -31 -54.5 -73.5t-40 -90t-25 -96t-8.5 -91.5q0 -45 19.5 -64.5t64.5 -19.5q86 0 160 26.5t147 69.5l7 3.5t6 3.5q4 40 15 90.5t28 103.5
t40.5 103.5t52.5 90.5t63 64t74 24q52 0 97 -19t77 -52.5t50.5 -78.5t18.5 -97q0 -41 -27 -67t-68 -26q-31 0 -48.5 10t-27 25.5t-14 33.5t-8.5 34.5t-10.5 29t-20.5 15.5q-17 -25 -35 -67.5t-33.5 -89.5t-25.5 -91.5t-10 -74.5q0 -28 2 -49t10.5 -34.5t26 -20t49.5 -6.5
q72 0 144 20q16 4 41 13t51 18t49.5 16t35.5 7q20 0 37 -8t29.5 -21.5t19.5 -31.5t7 -37z" />
    <glyph glyph-name="D_D.liga" unicode="DD" horiz-adv-x="1443" 
d="M1418 562q0 -20 -4 -39t-10 -38q-24 -77 -56.5 -143t-74.5 -124.5t-94 -111.5t-114 -103q-14 -11 -33 -26t-40 -28.5t-42 -23t-38 -9.5q-18 0 -32 7.5t-24.5 19t-18.5 26t-13 29.5q-14 40 -23.5 100t-14.5 125t-7 127t-2 106q0 78 3 155q-8 14 -13 28.5t-5 30.5
q0 34 18 56t44.5 35.5t58 19t58.5 5.5q37 0 86.5 -2.5t102.5 -10t104.5 -22.5t92.5 -40t66 -61.5t25 -87.5zM737 567q0 -54 -22 -107.5t-58 -105t-83 -99.5t-97 -90t-100 -77.5t-91 -61.5q-25 -16 -53 -30.5t-59 -14.5q-28 0 -46 16.5t-29 39.5q-13 26 -22 63.5t-15.5 81
t-10 90.5t-6 91.5t-3 84.5t-0.5 70v102q0 75 11 117t38 63t72 26t113 5q43 0 93.5 -4t102 -14.5t99.5 -29t84.5 -48t59 -71t22.5 -97.5zM1220 517q0 29 -21 44.5t-50 22.5t-60 8t-51 1q-18 0 -35.5 -0.5t-35.5 -0.5q-1 -34 -1.5 -68t-0.5 -68q0 -70 3 -140t11 -140
q19 16 44.5 40.5t52 53.5t52.5 61t46.5 64.5t33 63.5t12.5 58zM549 555q0 20 -17 33.5t-44 22.5t-59.5 13.5t-63.5 6.5t-57 2.5t-40 0.5h-39q-2 -37 -3 -73t-1 -73q0 -61 2.5 -124.5t18.5 -122.5q22 11 43.5 22.5t42.5 24.5q15 10 37.5 28t46.5 41.5t48 50.5t42.5 53.5
t30.5 50.5t12 43z" />
    <glyph glyph-name="E_E.liga" unicode="EE" horiz-adv-x="1311" 
d="M1291 133q0 -30 -16.5 -49t-42.5 -31q-42 -20 -87 -34t-90 -29q-47 -16 -90.5 -35t-88.5 -39q-12 -5 -24.5 -9t-26.5 -4q-43 0 -65.5 28t-29.5 66q-22 111 -32.5 224t-10.5 226q0 17 1 45t3 60.5t7 66.5t12 63.5t18 52.5t26 33q24 16 63 25.5t81.5 14.5t84 6.5t71.5 1.5
q29 0 57 -3.5t50 -14.5t35.5 -32.5t13.5 -57.5t-15 -53.5t-37.5 -24t-49.5 -6t-52 0.5q-42 0 -84 -1.5t-82 -12.5q-5 -27 -7.5 -54t-3.5 -55q79 17 159.5 28t161.5 11q41 0 65 -27t24 -67q0 -42 -23.5 -66.5t-63.5 -31.5q-23 -4 -45 -5.5t-45 -3.5q-59 -7 -116 -17t-114 -26
q3 -39 7.5 -77.5t9.5 -76.5q27 11 65 25.5t78.5 27.5t78.5 22t67 9q20 0 38.5 -7t33 -19.5t23 -29.5t8.5 -38zM670 207q0 -34 -16.5 -58.5t-45.5 -41.5q-17 -9 -51 -26t-77 -37t-90 -41t-89.5 -37.5t-75.5 -27.5t-48 -11q-31 0 -52 17.5t-34.5 45t-20.5 62.5t-10.5 69.5
t-4 65.5t-0.5 52q0 85 2.5 169t4.5 169q-20 15 -30 39t-10 48q0 73 68 96q36 12 91 22t115 17t116.5 11t95.5 4q19 0 36.5 -3.5t30.5 -12.5t20.5 -24t7.5 -37q0 -39 -24.5 -63.5t-61.5 -32.5q-20 -4 -40.5 -6.5t-40.5 -6.5q-49 -9 -97.5 -21t-96.5 -25q-5 -25 -6 -50t-1 -51
q26 7 62.5 16.5t75 17t75 13t62.5 5.5q38 0 62 -23t24 -62q0 -36 -19.5 -59t-52.5 -34q-37 -13 -75 -23.5t-75.5 -21.5t-74 -23.5t-72.5 -30.5v-36q0 -17 1.5 -33.5t7.5 -32.5q13 5 43.5 17t69 27t80.5 30.5t77.5 29t61.5 22t32 8.5q34 0 52 -25t18 -56z" />
    <glyph glyph-name="F_F.liga" unicode="FF" horiz-adv-x="1441" 
d="M1439 689q0 -20 -5.5 -38t-17 -32.5t-27.5 -23t-37 -8.5q-10 0 -19 0.5t-19 0.5q-77 0 -153 -10t-153 -15v-31q0 -28 1 -56l2 -56q68 20 137.5 27.5t139.5 7.5q38 0 61 -23t23 -61q0 -40 -23.5 -65.5t-60.5 -35.5q-63 -17 -126 -31.5t-125 -37.5v-36t1 -38.5t4 -38
t9 -33.5q4 -11 6.5 -20t2.5 -20q0 -20 -6.5 -40t-19 -36t-30 -26t-39.5 -10q-26 0 -44.5 14t-32 35t-21.5 45t-12 45q-11 61 -13.5 122.5t-5.5 123.5q-6 141 -3 283q-20 17 -29 42.5t-9 51.5q0 37 17 64t55 36q48 11 102.5 17t110.5 9t111.5 3.5t105.5 0.5q29 0 54.5 -3.5
t45 -14.5t31 -32t11.5 -56zM738 728q0 -39 -25 -65.5t-65 -26.5q-99 0 -200 -10t-196 -37q1 -33 4.5 -65.5t6.5 -64.5q72 13 143.5 22.5t144.5 9.5q41 0 68.5 -26t27.5 -68q0 -41 -23.5 -62.5t-61.5 -29.5q-35 -7 -71 -12t-71.5 -11.5t-70.5 -15t-69 -21.5q6 -47 13 -92.5
t16 -92.5q2 -6 2 -12v-12q0 -43 -28.5 -70t-70.5 -27q-32 0 -52 15t-32.5 38.5t-18 54t-8.5 61.5t-3.5 60.5t-3.5 50.5q-29 16 -44 47t-15 63q0 26 9.5 49t33.5 36q-5 69 -8 137.5t-3 137.5q0 35 22.5 58.5t59 38.5t81 22.5t88.5 11.5t82 5.5t62 3.5q30 2 60 3t60 1
q28 0 55.5 -3.5t50 -14.5t36.5 -32t14 -55z" />
    <glyph glyph-name="G_G.liga" unicode="GG" horiz-adv-x="1460" 
d="M1454 377q0 -16 -9.5 -49t-22.5 -69.5t-26.5 -69t-22.5 -47.5q-21 -36 -52.5 -76t-70 -73t-82.5 -54.5t-89 -21.5q-72 0 -128.5 31t-98 81.5t-67 114.5t-36.5 130q-20 -45 -43 -84.5t-45 -64.5q-36 -41 -70 -73t-72 -54t-83 -33t-103 -11q-78 0 -134 36.5t-92 93.5
t-53.5 126.5t-17.5 136.5q0 41 6.5 92.5t19.5 106t34 107.5t50 97t66.5 75t84.5 41q15 3 30 4t30 1q37 0 78.5 -17t76.5 -45t57.5 -65.5t22.5 -77.5q0 -42 -23.5 -65t-65.5 -23q-39 0 -57.5 17t-31.5 37.5t-27 37.5t-44 17q-22 0 -39 -20t-29.5 -52t-21 -70.5t-14 -75.5
t-7.5 -68.5t-2 -47.5q0 -30 6.5 -65.5t21.5 -66.5t40 -52t62 -21q47 0 79 15.5t55.5 42t41.5 60t37 69.5q-24 -3 -53.5 -10l-59 -14t-55.5 -12.5t-43 -5.5q-38 0 -62 26t-24 64q0 41 22.5 64.5t60.5 34.5q24 7 49 11.5t50 9.5q34 7 62 13t54 10.5t54 6.5t64 2q20 0 35 -4
t27 -12q11 61 32.5 121.5t56.5 107.5t84 76.5t116 29.5q45 0 89 -18t78 -49t55 -72.5t21 -87.5q0 -40 -22 -63.5t-60 -23.5q-29 0 -45.5 5.5t-27 15.5t-18 24.5t-18.5 32.5q-10 17 -26.5 31t-37.5 14q-22 0 -37.5 -17.5t-26.5 -45t-18 -61.5t-11 -67t-5.5 -61t-1.5 -43
q0 -29 9 -73.5t27.5 -86t46 -71.5t65.5 -30q5 0 9 2.5t8 4.5q54 33 86 82t52 107q-23 -2 -42.5 -5t-38.5 -7t-38.5 -7.5t-41.5 -6.5q-4 -1 -12 -1q-41 0 -67.5 28.5t-26.5 68.5q0 41 22.5 63t60.5 30q66 14 125 21t126 7q30 0 57.5 -5t49 -18t34 -36t12.5 -58z" />
    <glyph glyph-name="H_H.liga" unicode="HH" horiz-adv-x="1416" 
d="M1395 304q0 -22 -9 -42.5t-27 -34.5q-3 -120 -3 -239q0 -41 -26 -67.5t-67 -26.5q-43 0 -63 20.5t-27 51t-5.5 65t1.5 63.5v57.5t1 57.5q-45 -3 -88.5 -8t-88.5 -11v-36q0 -34 2 -66.5t9 -65.5q3 -14 3 -27q0 -20 -8 -36.5t-21 -28.5t-30.5 -19t-36.5 -7
q-34 0 -55.5 18.5t-32.5 49.5q-10 30 -14.5 80t-5.5 105.5t-0.5 108t0.5 87.5q0 86 3 173.5t20 172.5q8 36 31 58t61 22q39 0 67 -26t28 -66q0 -10 -1 -15q-9 -73 -14 -146t-6 -147q44 5 87.5 9.5t88.5 7.5q-6 85 -17.5 169t-11.5 170q0 42 25 70t69 28q40 0 63 -23t29 -61
q5 -26 6.5 -52t3.5 -52q6 -66 11 -131.5t9 -131.5q20 -13 30 -34t10 -44zM730 396q0 -36 -21 -57t-50 -38q1 -29 2.5 -56.5t4.5 -56.5q4 -40 11 -79.5t7 -79.5t-21.5 -65t-63.5 -25t-71 25.5t-38 65.5q-14 59 -16 120t-4 121l-186 -41q0 -23 0.5 -45.5t0.5 -45.5
q0 -25 -5 -48.5t-17 -42t-31.5 -30t-48.5 -11.5q-26 0 -43 9t-27 24.5t-13.5 35.5t-3.5 43q0 33 -3 65.5t-3 65.5q-14 15 -20.5 34.5t-6.5 39.5t7 39t21 33q0 69 -0.5 138t-0.5 138q0 20 3.5 39t12.5 33.5t24.5 23t39.5 8.5q44 0 66.5 -26.5t31.5 -64.5t9 -79.5v-71.5
q0 -25 -0.5 -50t-0.5 -50l186 21q0 76 3.5 153.5t14.5 152.5q6 41 34 68t71 27q34 0 56.5 -21t22.5 -56v-8.5t-1 -8.5q-5 -34 -7.5 -67t-2.5 -67q0 -38 1.5 -77t2.5 -77q33 -1 53 -23.5t20 -54.5z" />
    <glyph glyph-name="i_i.liga" unicode="ii" horiz-adv-x="690" 
d="M618 55q4 -42 -19.5 -71t-65.5 -34q-31 -3 -51.5 7.5t-33 30t-18.5 44t-9 50.5q-7 72 -13 143t-10 143q-3 65 -7 129t-2 129q1 20 5 42t13.5 41t25.5 32t40 15q23 3 44.5 -5.5t38 -24t27.5 -36t13 -42.5q1 -11 0 -21q-4 -63 -7.5 -125t-0.5 -125q2 -43 5 -85.5t8 -85.5
q4 -38 8.5 -75.5t8.5 -75.5zM293 105q0 -22 -8.5 -43.5t-23.5 -38.5t-35.5 -27.5t-43.5 -10.5q-24 0 -41 11.5t-28.5 29t-18 39t-9.5 41.5q-9 64 -11.5 128.5t-5.5 129.5q-4 72 -5 143.5t-1 143.5q0 25 3.5 50.5t14 46t29.5 33t51 12.5q42 0 68.5 -27t26.5 -69q0 -38 -1 -76
t-1 -76q0 -43 1.5 -85.5t3.5 -85.5q4 -63 13 -124.5t20 -123.5q1 -5 1.5 -10.5t0.5 -10.5z" />
    <glyph glyph-name="K_K.liga" unicode="KK" horiz-adv-x="1359" 
d="M1426 239q0 -40 -26.5 -64t-65.5 -24q-8 0 -15 1.5t-15 3.5q-56 14 -112 17t-113 3q-39 0 -77.5 -0.5t-77.5 -5.5q3 -13 9.5 -31.5t12.5 -38.5t10.5 -38t4.5 -29q0 -20 -8 -36.5t-21.5 -29t-31.5 -19.5t-37 -7q-30 0 -56 16t-39 43q-16 34 -25.5 69t-15.5 71q-4 -1 -8 -1
h-9q-9 0 -14 1l-428 49q3 -38 10 -75.5t7 -75.5q0 -39 -23.5 -62t-62.5 -23q-45 0 -73 26.5t-35 69.5q-5 32 -6.5 64t-3.5 64q-5 78 -8.5 154.5t-3.5 154.5q0 67 2 134t8 134q4 38 25.5 63.5t62.5 25.5q39 0 58.5 -18t27 -45.5t7.5 -59v-58.5q0 -30 -0.5 -60.5t-0.5 -60.5
l224 196q27 24 62 24q19 0 36.5 -8t31 -21t21.5 -30.5t8 -36.5q0 -21 -7.5 -40t-23.5 -33l-221 -205l310 -67q4 -1 7.5 -2t7.5 -2v67q0 21 -1 57t0.5 78t6.5 85t17 78.5t32 57.5t51 22q46 0 71 -28t25 -73t-6 -90t-6 -90v-52q49 59 95 118.5t88 123.5q18 28 35.5 56t41.5 51
q14 13 30.5 21.5t36.5 8.5q19 0 36.5 -8t31 -21.5t21.5 -31t8 -36.5q0 -20 -8 -35t-20 -30q-23 -28 -41 -58t-40 -59q-31 -41 -61.5 -81.5t-61.5 -81.5q27 -1 62 -3.5t71.5 -7t70.5 -11t59 -15.5q31 -11 48.5 -33t17.5 -56z" />
    <glyph glyph-name="L_L.liga" unicode="LL" horiz-adv-x="1243" 
d="M1230 141q0 -30 -16 -47t-42 -27q-37 -14 -75 -24t-76 -23q-27 -9 -60.5 -22.5t-68 -26.5t-68 -22t-60.5 -9q-30 0 -44.5 18.5t-20 44t-5.5 53.5v48q0 45 -1.5 89t-1.5 89v340q0 27 2.5 58.5t12.5 58.5t30.5 45.5t56.5 18.5q40 0 68.5 -26t28.5 -67q0 -63 -9.5 -125
t-9.5 -125q0 -72 4 -142.5t7 -142.5q21 7 53.5 17.5t67 19.5t67.5 15.5t54 6.5q20 0 39 -6.5t34 -18.5t24 -29t9 -39zM650 209q0 -36 -20 -57.5t-53 -30.5q-49 -14 -98 -26t-97 -28q-54 -17 -104.5 -42t-103.5 -48q-10 -5 -20.5 -8t-21.5 -3q-21 0 -35.5 8t-24 21t-14.5 30
t-6 35q-3 39 -4 78.5t-1 79.5q0 100 1 198.5t6 198.5q2 35 3 69t7 68q6 35 27.5 59.5t59.5 24.5q39 0 63.5 -27.5t24.5 -65.5q0 -3 -0.5 -6.5t-0.5 -6.5q-9 -93 -9 -186q0 -78 3 -156.5t5 -156.5q33 11 76 22.5t88 21t88.5 15.5t78.5 6q36 0 59 -26t23 -61z" />
    <glyph glyph-name="M_M.liga" unicode="MM" horiz-adv-x="1628" 
d="M1599 73q0 -19 -6 -37t-17.5 -32t-27.5 -22.5t-37 -8.5q-27 0 -48 14.5t-35 36.5q-14 21 -25.5 61.5t-20.5 86t-15 88.5t-9 70q-12 -19 -30.5 -45t-40 -49.5t-46 -40t-49.5 -16.5q-22 0 -44 11t-41.5 27.5t-36.5 35.5t-29 35l1 -105q0 -35 2.5 -69t7.5 -68q1 -5 1.5 -10
t0.5 -10q0 -20 -8 -37t-21 -29t-31 -19t-37 -7q-42 0 -63.5 25t-30.5 60.5t-10 75t-1 68.5q0 106 5 210t21 209q-11 26 -17.5 56.5t-6.5 59.5q0 38 23.5 65t63.5 27q38 0 58.5 -19.5t32.5 -52.5q12 -32 30.5 -75t41 -86.5t47 -82.5t47.5 -63q31 30 56 75.5t45 95.5t37.5 100
t34.5 91q13 31 35 52.5t58 21.5q24 0 41 -9t28 -24.5t16.5 -35.5t5.5 -41q0 -65 -7 -128t-7 -128q0 -48 5.5 -95t13.5 -93.5t18 -93t18 -93.5q3 -17 3 -33zM770 53q0 -20 -7.5 -38t-20.5 -32t-30.5 -22.5t-37.5 -8.5q-30 0 -48 16.5t-29 41.5q-16 34 -28.5 86t-22 108
t-16.5 110.5t-11 93.5q-23 -51 -43 -103t-44 -103q-11 -22 -27.5 -42.5t-44.5 -20.5q-20 0 -40.5 15.5t-38.5 36.5t-33 44t-24 38q-5 -52 -7.5 -103.5t-2.5 -104.5q0 -39 -23.5 -69.5t-65.5 -30.5t-66 30t-24 70q0 73 2.5 155t10 164.5t20.5 162.5t33 151q4 16 11.5 31.5
t18 28t24.5 20t33 7.5q20 0 34.5 -8.5t25 -22.5t17 -31t10.5 -33q14 -63 28 -124.5t40 -121.5q23 49 45.5 98t45.5 98q16 33 31 65.5t35 63.5q15 23 36 40t51 17q24 0 41 -10.5t28.5 -27t16.5 -37.5t5 -42q0 -153 21 -311.5t64 -305.5q3 -10 5 -19.5t2 -19.5z" />
    <glyph glyph-name="N_N.liga" unicode="NN" horiz-adv-x="1403" 
d="M1367 74q0 -39 -21.5 -69t-63.5 -30q-29 0 -52.5 14.5t-42.5 34.5q-52 55 -101 112t-89 122q1 -32 1.5 -63t0.5 -63q0 -25 -2.5 -48.5t-11.5 -42t-27 -29.5t-49 -11q-45 0 -72.5 27t-27.5 72q0 23 1.5 45.5t1.5 45.5q0 75 -4.5 149.5t-11.5 149.5q-2 15 -3.5 34.5
t-2.5 40t-2 40t-1 34.5q0 20 7 39t20 33.5t31 23.5t39 9q29 0 49.5 -15.5t34.5 -40.5q23 -41 43.5 -82.5t42.5 -82.5t46 -80.5t54 -75.5q-6 72 -9.5 143t-3.5 143q0 29 3.5 63t15 63t34 48.5t60.5 19.5q42 0 66 -26t24 -67q0 -9 -1 -14q-9 -74 -9 -148q0 -88 4.5 -173.5
t12.5 -172.5q5 -43 10.5 -85.5t5.5 -86.5zM708 199q0 -24 -3 -65t-13.5 -80.5t-30.5 -68.5t-54 -29q-30 0 -64 20t-69 51.5t-69.5 71.5t-64.5 79.5t-54 75t-39 58.5q5 -57 9 -112.5t10 -112.5q1 -5 1 -15q0 -40 -26 -68.5t-67 -28.5q-44 0 -65.5 27t-29.5 65
q-12 55 -18 111.5t-8 113.5t-3 114.5t-2 113.5q-1 32 -1.5 64t-0.5 64q0 19 5.5 39.5t16.5 36.5t27.5 26.5t39.5 10.5q28 0 47 -15.5t35 -35.5q26 -34 48.5 -70.5t44.5 -73t44 -73.5t47 -72q28 -39 56 -79t61 -75v11q0 111 -13.5 220t-30.5 218q-1 5 -1.5 10.5t-0.5 10.5
q0 17 5.5 33t16 28t25.5 19.5t33 7.5q48 0 72 -24.5t36 -67.5q18 -65 27.5 -131t14 -133.5t5.5 -135t1 -134.5z" />
    <glyph glyph-name="O_O.liga" unicode="OO" horiz-adv-x="1366" 
d="M1353 353q0 -97 -38.5 -172.5t-114.5 -133.5q-25 -19 -55.5 -39t-63.5 -36.5t-67 -27t-66 -10.5q-53 0 -92.5 26.5t-65 67.5t-38 90t-12.5 95q0 64 13.5 129.5t38 128t60 119t80.5 102.5q10 11 24.5 24t30.5 24.5t33 19.5t33 8q28 0 61.5 -20t65.5 -48.5t59 -60t42 -53.5
q34 -49 53 -111t19 -122zM700 332q0 -68 -36 -132.5t-92.5 -115.5t-125.5 -82t-134 -31q-146 0 -213 77.5t-67 218.5q0 57 13 114t34 112t48.5 107.5t57.5 100.5q11 17 24 37t29.5 37t35.5 28.5t42 11.5q14 0 26 -4q73 -25 138.5 -73.5t114 -112t77 -139t28.5 -154.5z
M1168 382q0 21 -11.5 45.5t-28.5 48t-36 44.5t-34 35q-26 -30 -51 -68.5t-44.5 -81t-31.5 -86.5t-12 -84q0 -11 0.5 -27.5t4.5 -32.5t12.5 -27t24.5 -11q13 0 29.5 5t33 13t31.5 17t25 17q44 33 66 86t22 107zM500 333q0 37 -13 74t-34.5 70.5t-50 61.5t-58.5 48
q-45 -72 -77 -152.5t-32 -167.5q0 -26 1 -45.5t7.5 -33t22.5 -20.5t46 -7q22 0 54 18.5t62 45t51 56t21 52.5z" />
    <glyph glyph-name="P_P.liga" unicode="PP" horiz-adv-x="1276" 
d="M1271 644q0 -58 -19.5 -106t-52 -88.5t-73.5 -74.5t-84 -65q-42 -29 -82 -59.5t-82 -59.5q3 -33 8.5 -64t16.5 -63q3 -9 5 -17t2 -18q0 -20 -8.5 -37.5t-22 -31t-32 -21.5t-37.5 -8q-24 0 -41 10t-29 25.5t-20 35.5t-12 40q-20 86 -26 174t-6 176q0 64 3.5 128.5
t8.5 128.5q-22 25 -22 61q0 43 21 67.5t53 36.5t69.5 15t70.5 3q31 0 72.5 -1.5t85 -8t85.5 -18.5t75 -33t53 -52t20 -75zM630 565q0 -45 -17.5 -86.5t-47 -78.5t-68 -69.5t-80.5 -59.5t-84 -47.5t-79 -34.5q3 -29 7 -59t14 -57q5 -14 10 -23.5t5 -26.5q0 -20 -8 -37
t-21.5 -29.5t-31.5 -20t-37 -7.5q-26 0 -45 12t-33 32q-15 21 -26.5 72.5t-19.5 119t-13 143.5t-8 146.5t-4 129t-1 90.5q0 62 25.5 96t91.5 34q37 0 86.5 -3.5t101.5 -13.5t103 -27t91 -43.5t64.5 -64t24.5 -87.5zM1068 606q-47 18 -96 23t-99 5q-5 -47 -10.5 -93t-5.5 -94
v-30q22 16 54.5 38t64 47t57 51.5t35.5 52.5zM440 558q-18 16 -44.5 27t-55 17t-57 8.5t-52.5 3.5v-23q0 -50 2.5 -99.5t6.5 -99.5q21 10 54 27.5t64.5 39.5t55.5 47.5t26 51.5z" />
    <glyph glyph-name="R_R.liga" unicode="RR" horiz-adv-x="1307" 
d="M1289 175q0 -20 -8 -36.5t-21.5 -27.5t-31.5 -17t-37 -6t-55.5 7.5t-77.5 17t-79.5 19.5t-62.5 15q3 -35 6 -70.5t3 -70.5q0 -42 -29 -64.5t-68 -22.5q-43 0 -70.5 23t-33.5 65q-3 20 -3 41.5t-2 41.5l-1 14q-23 -9 -52 -9q-45 0 -88.5 9.5t-88.5 18.5q-57 12 -114 22
t-115 15q2 -22 3 -43.5t1 -43.5q0 -21 -8.5 -42t-22.5 -37.5t-33.5 -26.5t-41.5 -10q-30 0 -44 18.5t-22 44.5q-11 39 -16.5 79t-10.5 81q-14 112 -20.5 223.5t-6.5 223.5q0 46 5 77t20.5 50t45 26.5t79.5 7.5q21 0 41.5 1.5t41.5 1.5q31 0 68.5 -2.5t76.5 -10t75.5 -20
t65 -33.5t46 -51t17.5 -71q0 -44 -16 -81.5t-41.5 -69t-58 -58t-65.5 -49.5q26 -7 61.5 -13.5t73 -15t73.5 -21t63 -32.5q-4 84 -5.5 166.5t-1.5 163.5v44.5t3 44.5q3 26 25.5 46t55.5 34.5t73.5 25t79.5 16.5t73 9t55 3q31 0 67.5 -8t68 -25.5t52 -44.5t20.5 -65
q0 -63 -21.5 -112.5t-56.5 -91t-79.5 -76.5t-90.5 -68q46 -11 91 -24t90 -30q33 -12 56.5 -35t23.5 -61zM1073 639q-42 -1 -85 -5.5t-83 -18.5q0 -18 -0.5 -41.5t-0.5 -41.5v-66q21 15 46.5 35t49.5 42.5t44 47t29 48.5zM423 585q-29 12 -60.5 14.5t-63.5 2.5h-36t-36 -2
q-3 -23 -3 -45q0 -65 3 -129q21 12 50 30.5t57.5 40t52.5 44.5t36 44z" />
    <glyph glyph-name="S_S.liga" unicode="SS" horiz-adv-x="1391" 
d="M1377 218q0 -47 -25 -98.5t-65 -94.5t-89.5 -71t-97.5 -28q-29 0 -66 8.5t-76 24.5t-76.5 38t-67 48.5t-47.5 57.5t-18 64q0 17 2 33t8.5 28t19 19t33.5 7q22 0 43 -13q8 -5 15 -11.5t15 -12.5q16 -14 40 -29.5t50.5 -29t53 -22t48.5 -8.5q19 0 39.5 12.5t37 31t27 40.5
t10.5 41q0 10 -5.5 13t-13.5 6q-12 5 -27.5 8t-32 5.5t-32.5 3.5t-29 3q-53 5 -106 12t-103 27q-33 13 -53.5 32t-32 43t-15.5 53t-4 61q0 28 12 64t32.5 73t48 72t58 62.5t62.5 44.5t63 17q44 0 91 -16t86 -45t64 -69.5t25 -89.5q0 -18 -5.5 -36.5t-16 -33t-26.5 -23.5
t-36 -9q-30 0 -50 19t-37 42t-36 42t-49 19q-15 0 -32 -12.5t-31 -30t-23.5 -37t-9.5 -33.5q0 -11 9 -18.5t21.5 -12.5t25.5 -7.5t21 -4.5q32 -7 63.5 -9.5t63.5 -7.5q63 -9 109.5 -26t76.5 -47t45 -76t15 -113zM709 314q0 -74 -35 -136.5t-91 -109t-125.5 -72.5t-138.5 -26
q-27 0 -66.5 13.5t-78.5 34.5t-71.5 46.5t-44.5 50.5q-7 14 -11 28.5t-4 29.5q0 29 17.5 46.5t46.5 17.5q23 0 46 -10t49.5 -22.5t56.5 -22.5t66 -10q27 0 48 5.5t39 15t34.5 23.5t34.5 32q7 7 17.5 17t10.5 21q0 3 -4 2.5t-6 -0.5q-11 0 -21 1.5t-21 1.5q-43 0 -85.5 -3.5
t-85.5 -3.5q-40 0 -89 4.5t-92.5 20t-73 46.5t-29.5 85q0 27 10 60t26 65.5t34 62.5t35 51q23 30 56.5 61t72 56.5t79.5 41.5t80 16q28 0 57 -16.5t51.5 -41.5t37 -55t14.5 -58q0 -18 -5.5 -36.5t-16.5 -33.5t-26.5 -25t-35.5 -10q-21 0 -33.5 9t-23.5 20.5t-24.5 20.5
t-36.5 9q-18 0 -40.5 -16.5t-42 -39.5t-32.5 -48t-13 -43q0 -8 11 -9.5t16 -1.5q13 0 26 2t26 2q32 0 64.5 1.5t64.5 1.5q43 0 91.5 -6t89.5 -24.5t68 -52.5t27 -89z" />
    <glyph glyph-name="T_T.liga" unicode="TT" horiz-adv-x="1155" 
d="M1168 697q0 -21 -7 -42t-19.5 -36.5t-31 -25t-42.5 -8.5q-20 1 -39 2.5t-39 2.5q-33 1 -65 0v-30q0 -143 8.5 -284.5t24.5 -284.5q0 -3 0.5 -5.5t0.5 -5.5q0 -23 -9.5 -41t-25 -31t-36 -19.5t-41.5 -5.5q-38 2 -62 23t-31 59q-14 78 -14.5 161t-0.5 161q0 75 2 150t6 150
q-14 -1 -27 -1t-27 -1q-8 -4 -17.5 -6.5t-20.5 -3.5t-22.5 -1t-22.5 -1q-5 -1 -10 -1.5t-10 -0.5q-2 0 -5 0.5t-5 0.5q-26 -1 -50.5 -1.5t-49.5 -3.5l-45 -4v-117t3 -138.5t10.5 -135.5t21.5 -107q3 -9 5.5 -18t2.5 -20q0 -23 -10.5 -44t-27.5 -37.5t-38.5 -27t-43.5 -12.5
q-53 -3 -78 45q-8 15 -14 40.5t-10 56t-6.5 64.5t-4 66t-2 60.5t-0.5 47.5q0 63 2.5 126t7.5 126l-66 -16t-67 -10q-18 -2 -37.5 2t-35.5 13.5t-26.5 25t-10.5 36.5q0 32 37 58.5t95.5 47t129 36.5t137 26.5t121.5 17t81 8.5q21 2 41 1.5t37 -5.5q84 17 171.5 24t165.5 3
q29 -1 54.5 -5t45 -15.5t31 -32.5t11.5 -56z" />
    <glyph glyph-name="U_U.liga" unicode="UU" horiz-adv-x="1327" 
d="M1293 375q0 -74 -15.5 -136.5t-49.5 -127.5q-20 -38 -47 -71t-60 -58t-72.5 -39.5t-83.5 -14.5q-47 0 -84 27.5t-65 72t-47 100.5t-31.5 112.5t-18 107.5t-5.5 87q0 30 2 70.5t7 82t14 80t23 64.5t34 41t50 15q19 0 37 -7t31.5 -20t22 -30t8.5 -37q0 -11 -2.5 -20.5
t-6.5 -19.5q-10 -28 -15.5 -60t-8.5 -65.5t-4 -66.5t-1 -63q0 -14 0.5 -38.5t2.5 -54t6.5 -60t13 -55.5t22 -41t33.5 -16q13 0 24.5 6.5t21.5 16.5t17.5 21.5t13.5 21.5q44 78 44 169q0 38 -2.5 70t-8 62.5t-15.5 61t-25 65.5q-5 12 -8.5 22.5t-3.5 23.5q0 19 8 36t21.5 30
t31.5 20t37 7q30 0 53.5 -23t40.5 -59t28.5 -80.5t18.5 -88t10 -81.5t3 -60zM628 532q0 -67 -4.5 -134t-17.5 -133q-9 -45 -28.5 -95.5t-49.5 -93t-72 -70t-96 -27.5q-57 0 -102.5 21t-80 57t-59 83t-40.5 98t-23 103.5t-7 99.5q0 57 2.5 115t19.5 113q11 38 35 58t65 20
q20 0 39.5 -6.5t34.5 -18.5t24.5 -29.5t9.5 -39.5v-8.5t-1 -8.5q-9 -58 -18.5 -114.5t-9.5 -115.5q0 -19 1.5 -56t8.5 -73.5t22 -64t43 -27.5q30 0 51 15t34.5 39t20.5 54.5t10 61.5t3.5 60t0.5 50q0 62 -3.5 122.5t-14.5 121.5q-3 15 -3 29q0 20 6.5 40.5t19 37.5t30 27.5
t39.5 10.5q24 0 41.5 -19t29.5 -49t19.5 -67.5t12 -73t6 -66t1.5 -47.5z" />
    <glyph glyph-name="V_V.liga" unicode="VV" horiz-adv-x="1194" 
d="M1171 689v-10t-1 -10q-22 -131 -49 -260t-41 -260q-3 -29 -4.5 -57t-4.5 -57q-2 -19 -5.5 -37t-12 -32.5t-23 -23t-37.5 -8.5q-26 0 -48.5 13t-39.5 33q-27 31 -55.5 82.5t-56 113.5t-53 130.5t-47 134.5t-38 124.5t-25.5 101.5q-3 10 -3 22q0 21 8.5 38t22.5 29t32 19
t38 7q39 0 56 -20.5t28 -53.5q11 -35 19.5 -69.5t19.5 -69.5q17 -56 36 -111t39 -110q14 90 29.5 179.5t41.5 177.5q5 17 11.5 31t16 24t23.5 15.5t34 5.5q41 0 65 -26t24 -66zM583 775q0 -8 -2 -16.5t-4 -16.5q-45 -168 -73.5 -339t-28.5 -345q0 -18 -5 -37t-14.5 -34
t-25 -24.5t-36.5 -9.5q-23 0 -42.5 12.5t-36.5 31t-31 39t-25 36.5q-91 134 -157.5 284t-111.5 305l-4 18t-2 18q0 37 24.5 64t62.5 27q32 0 50 -17.5t30 -44.5q16 -36 29 -73.5t29 -73.5q26 -57 50.5 -114.5t53.5 -113.5q11 75 29 147.5t36 146.5q9 36 17 72.5t22 71.5
q11 29 31 49t54 20q35 0 58 -24t23 -59z" />
    <glyph glyph-name="W_W.liga" unicode="WW" horiz-adv-x="1600" 
d="M1600 741q0 -25 -12.5 -50t-20.5 -48q-20 -54 -33.5 -117t-22.5 -128.5t-13 -130t-4 -121.5q0 -27 2.5 -54.5t2.5 -54.5q0 -20 -6 -38t-18 -32t-28.5 -22.5t-37.5 -8.5q-32 0 -54 18.5t-37 44.5q-14 26 -28 60t-27 70.5t-25 71.5t-24 62q-4 -21 -8 -50.5t-7.5 -60.5
t-7 -60.5t-7.5 -50.5q-3 -18 -9 -34.5t-16.5 -29.5t-25.5 -21t-35 -8q-26 0 -47.5 14t-36.5 34q-42 55 -68 128t-40.5 152.5t-20 158.5t-5.5 147q0 25 3 50.5t13 46t29 33t51 12.5q38 0 57.5 -14t27.5 -36.5t8.5 -50.5t0.5 -56q0 -14 0.5 -35t1.5 -44t2 -44.5t3 -34.5
q5 21 10.5 49.5t11.5 58.5t12.5 58t14.5 48q12 31 34.5 54t58.5 23q22 0 38.5 -8.5t27.5 -22.5t17.5 -32.5t8.5 -37.5q2 -17 4 -41t4 -50t5 -50.5t6 -40.5q6 33 14.5 83.5t19.5 104t25 102t31 76.5q14 23 33 37.5t48 14.5q19 0 37 -7t31.5 -20t22 -30t8.5 -37zM841 743
q0 -8 -1.5 -17t-3.5 -17q-23 -106 -47.5 -211t-44.5 -212q-6 -30 -10.5 -60t-9.5 -60q-5 -31 -12 -62t-18 -60q-11 -30 -32 -54t-57 -24q-32 0 -52.5 19t-34.5 44q-27 47 -51 95t-45 98q-4 -26 -9.5 -71.5t-18.5 -90t-36 -77t-60 -32.5q-28 0 -53 24.5t-47.5 62.5t-41.5 85
t-34 93t-26 85t-17 61q-23 85 -43.5 175t-20.5 179q0 41 28 67t68 26q42 0 64 -23t30 -61q5 -25 7.5 -50t7.5 -50q9 -51 18.5 -100.5t21.5 -99.5q9 62 19.5 123.5t29.5 121.5q11 33 32 58.5t59 25.5t59.5 -25t32.5 -57q9 -26 14.5 -52t11.5 -52q12 -51 24.5 -102t29.5 -101
q3 19 9 53.5t14 76t17.5 85.5t19 84t19 71t17.5 45q30 53 91 53q39 0 60.5 -26.5t21.5 -63.5z" />
    <glyph glyph-name="X_X.liga" unicode="XX" horiz-adv-x="1276" 
d="M1273 55q0 -19 -7 -37t-20 -31.5t-30 -22t-37 -8.5q-32 0 -70.5 26t-76.5 61.5t-70.5 73t-50.5 61.5q-10 -25 -16.5 -50t-13.5 -51q-9 -37 -32 -59.5t-63 -22.5q-45 0 -68.5 32t-23.5 74q0 27 10 63t25 73t31.5 72t29.5 60q-14 28 -31.5 66t-32.5 78.5t-25 80t-10 70.5
q0 41 28.5 67t68.5 26q41 0 63 -22t30 -60l12 -52t15 -52q15 22 42 56t59 66.5t65.5 56t62.5 23.5q19 0 36.5 -8t30 -21.5t20 -31.5t7.5 -37q0 -29 -13 -46t-35 -33q-57 -42 -99 -103t-77 -122q43 -70 92.5 -129.5t120.5 -104.5q24 -15 38.5 -33.5t14.5 -48.5zM636 121
q0 -18 -6 -35.5t-17 -31t-26.5 -21.5t-34.5 -8q-32 0 -68.5 20t-72 49t-66.5 60t-51 54q-5 -13 -9 -26t-7 -26q-6 -26 -11.5 -54.5t-16 -53.5t-30.5 -41t-55 -16q-41 0 -70.5 27t-29.5 69q0 28 10.5 66.5t25.5 79t32 78.5t30 64q-12 19 -35 58t-46 82.5t-40 82.5t-17 59
t8.5 37.5t22.5 30t32 20t38 7.5q31 0 51.5 -15.5t34.5 -41.5q17 -30 31 -61t30 -61q32 54 66.5 107.5t74.5 103.5q15 19 33 30.5t44 11.5q19 0 36 -7t30 -19t21 -28.5t8 -35.5q0 -18 -6 -34t-16 -31q-44 -69 -90.5 -134t-86.5 -136q32 -41 66.5 -78t73.5 -70q18 -16 37 -30
t36 -30q17 -15 26.5 -32t9.5 -40z" />
    <glyph glyph-name="Y_Y.liga" unicode="YY" horiz-adv-x="1262" 
d="M1241 736q0 -13 -7 -33.5t-16 -42.5t-18.5 -43t-15.5 -34q-58 -142 -95.5 -287t-59.5 -296q-5 -34 -22.5 -56.5t-55.5 -22.5q-27 0 -47.5 11.5t-34.5 30t-21 42.5t-7 48q0 57 16 110.5t33 107.5q-22 13 -47 38t-49.5 57t-46.5 68.5t-39.5 73t-27.5 70t-10 58.5
q0 17 5.5 39.5t16 42t26.5 33t37 13.5q26 0 40 -16.5t23 -38.5q10 -27 24 -59t31 -62.5t37.5 -57.5t44.5 -43q15 45 30.5 88.5t31.5 87.5q8 23 21 51.5t31 53.5t41.5 42t52.5 17q40 0 59 -27t19 -64zM637 760q0 -14 -6 -34t-15 -40.5t-18.5 -39.5t-16.5 -32
q-63 -126 -110 -257t-83 -267q-9 -33 -16 -67t-18 -67q-10 -28 -27.5 -44.5t-49.5 -16.5q-24 0 -43.5 11t-33.5 29t-22 40t-8 44q0 21 10.5 64t24.5 91.5t28.5 93t22.5 67.5q-54 47 -105.5 101t-94.5 111q-12 16 -19 31.5t-7 35.5q0 17 6 35t17.5 32.5t27 23.5t34.5 9
q21 0 37 -9.5t30 -23.5q38 -38 76 -74.5t81 -68.5q29 69 58.5 137.5t71.5 131.5q14 22 33 35t46 13q20 0 36.5 -7.5t28 -20.5t18 -30.5t6.5 -36.5z" />
    <glyph glyph-name="Z_Z.liga" unicode="ZZ" horiz-adv-x="1438" 
d="M1431 188q0 -26 -10.5 -45t-27.5 -33t-38 -23.5t-43 -14.5q-47 -12 -96 -23t-97.5 -25.5t-95 -33t-87.5 -44.5q-15 -10 -29 -15.5t-33 -5.5q-20 0 -38.5 7.5t-33 21t-23 31t-8.5 38.5q0 17 5.5 30.5t14.5 27.5q16 23 32 46.5t30 47.5q42 72 77 146t77 145q17 29 35 58.5
t37 58.5q-18 -2 -41 -5.5t-46 -9t-43.5 -13.5t-35.5 -20q-14 -11 -25.5 -18.5t-31.5 -7.5q-19 0 -35 8t-28 21.5t-18.5 31t-6.5 35.5q0 37 23.5 63.5t61 44.5t84 29t92.5 18t86.5 12t66.5 10q31 7 60.5 17t61.5 10q35 0 60 -23t25 -59q0 -22 -9 -40.5t-23 -35.5
q-22 -27 -44 -52.5t-43 -53.5q-63 -85 -115 -174.5t-99 -183.5q31 8 70.5 22t80 27.5t78.5 23t68 9.5q34 0 56 -24t22 -57zM805 214q0 -19 -8 -33t-21 -24t-29.5 -16.5t-32.5 -9.5q-38 -8 -76.5 -14t-76.5 -17q-97 -26 -189 -60.5t-185 -72.5q-13 -5 -26 -9t-27 -4
q-23 0 -42 8.5t-33.5 23.5t-22.5 35t-8 42q0 16 4 30.5t11 28.5q20 43 46.5 83t52.5 80q48 74 99 146l102 144l-42 -6t-42 -7q-12 -2 -36.5 -8.5t-50 -13.5t-46.5 -12t-28 -5q-32 0 -53 21t-21 53t17 56t44 41.5t61 29t69 19.5t67.5 13t55.5 8q50 7 98.5 16.5t96.5 24.5
q12 4 23.5 6.5t24.5 2.5q35 0 62 -22t27 -59q0 -20 -8.5 -37t-19.5 -33q-42 -56 -85.5 -110t-85.5 -108.5t-81 -112t-72 -118.5q35 14 83.5 30.5t99.5 30.5t100 23.5t86 9.5q20 0 41 -6t38 -18t28 -29.5t11 -40.5z" />
    <glyph glyph-name="c_a.liga" unicode="ca" horiz-adv-x="1281" 
d="M1268 104q0 -19 -8 -36t-21 -29.5t-30 -19.5t-36 -7q-27 0 -48 15t-37.5 37t-30 47t-25.5 45q-54 -5 -114.5 -14t-113.5 -20q-3 -17 -3.5 -29.5t-1 -24t-1 -24t-3.5 -29.5q-7 -39 -30.5 -66t-66.5 -27q-46 0 -68 29.5t-22 72.5q0 32 3 68q-36 -15 -77 -27t-84 -20.5
t-84 -13.5t-77 -5q-72 0 -124 21.5t-86.5 60.5t-51 94.5t-16.5 123.5q0 34 8.5 85.5t24.5 109t40 114.5t54.5 103t67.5 74.5t80 28.5q52 0 97 -19t77 -52.5t50.5 -78.5t18.5 -97q0 -41 -27 -67t-68 -26q-31 0 -48.5 10t-27 25.5t-14 33.5t-8.5 34.5t-10.5 29t-20.5 15.5
q-17 -25 -35 -67.5t-33.5 -89.5t-25.5 -91.5t-10 -74.5q0 -28 2 -49t10.5 -34.5t26 -20t49.5 -6.5q72 0 144 20q16 4 41 13t51 18t49.5 16t35.5 7q17 0 32 -6q15 66 35 133.5t44 131.5t50 122t53 106q13 23 33 40.5t49 17.5q17 0 30.5 -6.5t24 -17t18 -24.5t12.5 -28
q10 -27 18.5 -55t18.5 -55q12 -34 26 -71.5t29 -76t30.5 -75.5t30.5 -69q45 -4 73 -27t28 -71q0 -34 -18 -59q13 -21 27 -46t14 -50zM936 340q-5 12 -11 28t-12 33t-11.5 33.5l-9.5 28.5q-4 -13 -9 -30.5t-11 -36.5t-11 -36.5t-9 -30.5z" />
    <glyph glyph-name="c_e.liga" unicode="ce" horiz-adv-x="1211" 
d="M1221 199q0 -28 -16.5 -47t-42.5 -32q-43 -22 -88.5 -37.5t-90.5 -32.5q-48 -18 -92 -38.5t-89 -41.5q-13 -6 -25.5 -10.5t-26.5 -5.5q-43 -2 -66 23.5t-30 60.5q-4 18 -7 35.5t-6 35.5q-36 -20 -80.5 -37.5t-91.5 -31t-93.5 -22t-85.5 -10.5q-72 -4 -124.5 15t-87 57.5
t-51 94.5t-16.5 126q0 35 8.5 88.5t24.5 113.5t40 120t54.5 109t68 80.5t80.5 33.5q52 3 97 -14t77 -49.5t50.5 -78t18.5 -98.5q0 -42 -27 -70.5t-68 -30.5q-31 -2 -48.5 7.5t-27 25t-14 34t-8.5 35t-10.5 29t-20.5 14.5q-17 -27 -35.5 -71.5t-34 -93.5t-25.5 -96t-10 -77
q0 -29 2 -50t10.5 -34.5t26.5 -19.5t50 -4q36 2 72.5 9t71.5 19q16 5 41 16t51 21.5t49.5 19t35.5 9.5h6q-6 82 -6 166q0 17 0.5 43.5t3 57.5t7 63.5t12 61.5t18.5 51t27 33q24 16 63.5 27.5t82.5 18.5t85 10.5t72 5.5q29 1 57.5 -0.5t50.5 -11t35.5 -29t13.5 -53.5
t-15 -51.5t-38 -25t-50 -9t-52 -2.5q-42 -2 -84.5 -6t-83.5 -16q-5 -26 -7.5 -52.5t-3.5 -52.5q80 21 161 36t163 20q42 2 66 -22.5t24 -62.5q0 -39 -23.5 -64.5t-64.5 -33.5q-23 -5 -45.5 -7.5t-45.5 -6.5q-59 -9 -117 -22t-115 -32q2 -36 7 -72.5t10 -72.5q28 12 66 28
t78.5 30.5t79.5 25t68 12.5q20 1 38.5 -4.5t33 -16.5t23.5 -27t9 -36z" />
    <glyph glyph-name="c_h.liga" unicode="ch" horiz-adv-x="1226" 
d="M1205 334q0 -23 -9 -44t-27 -35q-3 -120 -3 -239q0 -41 -26 -69t-67 -30q-43 -2 -63 17.5t-27 49.5t-5.5 64.5t1.5 63.5v57.5t1 57.5q-45 -6 -88.5 -13.5t-88.5 -15.5v-36q0 -33 2 -66t9 -65q3 -14 3 -27q0 -20 -8 -37t-21 -30t-30.5 -20.5t-36.5 -8.5q-34 -2 -55.5 15.5
t-32.5 47.5q-8 21 -12 53t-6 70q-36 -17 -77.5 -31.5t-84.5 -26t-85.5 -18.5t-78.5 -9q-72 -4 -124 14.5t-86.5 55.5t-51 91.5t-16.5 123.5q0 34 8.5 86t24.5 110t40 116.5t54.5 106t67.5 78t80 33.5q52 3 97 -14t77 -48.5t50.5 -75.5t18.5 -96q0 -42 -27 -69t-68 -29
q-31 -2 -48.5 7t-27 24t-14 33t-8.5 34.5t-10.5 28t-20.5 14.5q-17 -26 -35 -69.5t-33.5 -91.5t-25.5 -93t-10 -75q0 -28 2 -48.5t10.5 -34t26 -19t49.5 -3.5q37 2 73 9t71 19q16 5 41 15t51 20.5t49.5 19t35.5 8.5h3v61q0 86 3 174t20 173q8 37 31 60t61 25q39 2 67 -22.5
t28 -64.5q0 -10 -1 -15q-9 -74 -14 -147t-6 -147q86 16 176 27q-6 85 -17.5 168t-11.5 169q0 42 25 71.5t69 31.5q40 2 63 -19.5t29 -59.5q5 -26 6.5 -51.5t3.5 -51.5q6 -66 11 -131t9 -131q20 -12 30 -32.5t10 -43.5z" />
    <glyph glyph-name="C_A.liga" unicode="CA" horiz-adv-x="1323" 
d="M1321 107q0 -18 -6 -34t-17.5 -28t-27 -19t-33.5 -7q-32 0 -56.5 23.5t-43.5 56t-33.5 67.5t-26.5 58q-67 -7 -135 -28t-131 -44q-6 -23 -12 -53t-17 -57t-30 -46t-51 -19q-19 0 -35.5 7.5t-29 20t-19.5 29.5t-7 36q0 14 3 34q-76 -40 -161.5 -63.5t-161.5 -25.5
q-68 0 -120.5 18t-87 53t-50 86t-8.5 117q4 42 19 98t39.5 115.5t57.5 117t74.5 103.5t90.5 74t105 29q58 0 96 -25t59.5 -64.5t28 -88t1.5 -95.5q-5 -42 -34 -70t-74 -29q-43 0 -60.5 18t-23.5 45t-7 57.5t-10 55.5q-35 -31 -64 -73t-50.5 -88.5t-35.5 -94.5t-18 -90
q-5 -45 13 -64t65 -18q89 1 167.5 27.5t158.5 70.5q14 8 26 12.5t28 5.5q16 43 33 86t33 82t30.5 71t25.5 54q6 13 16 35.5t22 47.5t26.5 51t30.5 47t33 34t34 13q14 0 27 -6t24.5 -15.5t21 -21t15.5 -23.5q15 -29 26 -60.5t24 -62.5q24 -60 49 -118.5t51 -117.5
q23 -2 43 -6.5t35 -15t24 -28t9 -43.5q0 -40 -24 -68q4 -15 10 -34t12 -39.5t10 -39.5t4 -33zM997 397q-14 30 -26 60.5t-26 61.5q-17 -35 -31.5 -70t-28.5 -70q57 11 112 18z" />
    <glyph glyph-name="C_E.liga" unicode="CE" horiz-adv-x="1370" 
d="M1320 197q0 -34 -16.5 -58.5t-45.5 -41.5q-17 -9 -51 -26t-77 -37t-90 -41t-89.5 -37.5t-75.5 -27.5t-48 -11q-33 0 -55 20.5t-35.5 52t-20 70t-9.5 75.5q-3 -3 -6 -5.5t-7 -5.5q-41 -30 -91 -55t-103 -43.5t-107 -29t-103 -11.5q-68 0 -120.5 18t-87 53t-50 86t-8.5 117
q4 42 19 98t39.5 115.5t57.5 117t74.5 103.5t90.5 74t105 29q58 0 96 -25t59.5 -64.5t28 -88t1.5 -95.5q-5 -42 -34 -70t-74 -29q-43 0 -60.5 18t-23.5 45t-7 57.5t-10 55.5q-35 -31 -64 -73t-50.5 -88.5t-35.5 -94.5t-18 -90q-5 -45 13 -64t65 -18q89 1 167.5 27.5
t158.5 70.5q14 8 27 13t30 5h13.5t12.5 -2q1 71 3 140.5t4 140.5q-20 15 -30 39t-10 48q0 73 68 96q36 12 91 22t115 17t116.5 11t95.5 4q19 0 36.5 -3.5t30.5 -12.5t20.5 -24t7.5 -37q0 -39 -24.5 -63.5t-61.5 -32.5q-20 -4 -40.5 -6.5t-40.5 -6.5q-49 -9 -97.5 -21
t-96.5 -25q-5 -25 -6 -50t-1 -51q26 7 62.5 16.5t75 17t75 13t62.5 5.5q38 0 62 -23t24 -62q0 -36 -19.5 -59t-52.5 -34q-37 -13 -75 -23.5t-75.5 -21.5t-74 -23.5t-72.5 -30.5v-36q0 -17 1.5 -33.5t7.5 -32.5q13 5 43.5 17t69 27t80.5 30.5t77.5 29t61.5 22t32 8.5
q34 0 52 -25t18 -56z" />
    <glyph glyph-name="C_H.liga" unicode="CH" horiz-adv-x="1365" 
d="M1330 406q0 -36 -21 -60t-50 -44q1 -28 2.5 -56t4.5 -56q4 -39 11 -77.5t7 -79.5q0 -40 -21.5 -67.5t-63.5 -32.5t-71 17t-38 60q-14 58 -16 118.5t-4 120.5l-186 -64q0 -23 0.5 -45.5t0.5 -45.5q0 -25 -5 -49t-17 -44t-31.5 -34t-48.5 -17q-26 -3 -43 3.5t-27 21
t-13.5 34t-3.5 42.5q0 26 -1.5 50.5t-3.5 50.5q-41 -30 -91 -54.5t-102.5 -42.5t-106 -28.5t-101.5 -11.5q-68 0 -120.5 18t-87 53t-50 86t-8.5 117q4 42 19 98t39.5 115.5t57.5 117t74.5 103.5t90.5 74t105 29q58 0 96 -25t59.5 -64.5t28 -88t1.5 -95.5q-5 -42 -34 -70
t-74 -29q-43 0 -60.5 18t-23.5 45t-7 57.5t-10 55.5q-35 -31 -64 -73t-50.5 -88.5t-35.5 -94.5t-18 -90q-5 -45 13 -64t65 -18q89 1 167.5 27.5t158.5 70.5q14 8 27 13t30 5h5q4 6 7 9q0 69 -0.5 138t-0.5 138q0 20 3.5 39.5t12.5 35t24.5 26t39.5 13.5q44 6 66.5 -18
t31.5 -61t9 -78.5v-71.5q0 -25 -0.5 -50t-0.5 -50l186 44q0 76 3.5 153.5t14.5 154.5q6 42 34 72.5t71 35.5q34 5 56.5 -13.5t22.5 -53.5v-9t-1 -8q-5 -35 -7.5 -68t-2.5 -67q0 -39 1.5 -77.5t2.5 -76.5q33 4 53 -16.5t20 -52.5z" />
    <glyph glyph-name="l_a.liga" unicode="la" horiz-adv-x="1141" 
d="M1128 84q0 -19 -8 -36t-21 -29.5t-30 -19.5t-36 -7q-27 0 -48 15t-37.5 37t-30 47t-25.5 45q-54 -5 -114.5 -14t-113.5 -20q-3 -17 -3.5 -29.5t-1 -24t-1 -24t-3.5 -29.5q-7 -39 -30.5 -66t-66.5 -27q-46 0 -68 29.5t-22 72.5q0 18 1 37t3 39q-26 -8 -51 -15t-50 -15
q-27 -9 -60.5 -22.5t-68 -26.5t-68 -22t-60.5 -9q-30 0 -44.5 18.5t-20 44t-5.5 53.5v48q0 45 -1.5 89t-1.5 89v340q0 27 2.5 58.5t12.5 58.5t30.5 45.5t56.5 18.5q40 0 68.5 -26t28.5 -67q0 -63 -9.5 -125t-9.5 -125q0 -72 4 -142.5t7 -142.5q21 7 53.5 17.5t67 19.5
t67.5 15.5t54 6.5q13 0 27 -3q15 67 35.5 134.5t44 132t50 123t53.5 106.5q13 23 33 40.5t49 17.5q17 0 30.5 -6.5t24 -17t18 -24.5t12.5 -28q10 -27 18.5 -55t18.5 -55q12 -34 26 -71.5t29 -76t30.5 -75.5t30.5 -69q45 -4 73 -27t28 -71q0 -34 -18 -59q13 -21 27 -46
t14 -50zM796 320q-5 12 -11 28t-12 33t-11.5 33.5l-9.5 28.5q-4 -13 -9 -30.5t-11 -36.5t-11 -36.5t-9 -30.5z" />
    <glyph glyph-name="l_e.liga" unicode="le" horiz-adv-x="1131" 
d="M1111 151q0 -29 -16.5 -47.5t-42.5 -30.5q-43 -20 -88 -33.5t-90 -27.5q-47 -16 -90.5 -34t-88.5 -38q-13 -5 -25.5 -9t-26.5 -4q-43 0 -65 27t-30 65q-9 40 -15 83q-3 -2 -5.5 -3t-5.5 -2q-37 -14 -75 -24t-76 -23q-27 -9 -60.5 -22.5t-68 -26.5t-68 -22t-60.5 -9
q-30 0 -44.5 18.5t-20 44t-5.5 53.5v48q0 45 -1.5 89t-1.5 89v340q0 27 2.5 58.5t12.5 58.5t30.5 45.5t56.5 18.5q40 0 68.5 -26t28.5 -67q0 -63 -9.5 -125t-9.5 -125q0 -72 4 -142.5t7 -142.5q21 7 53.5 17.5t67 19.5t67.5 15.5t54 6.5q20 0 40 -6q-9 99 -9 198
q0 17 0.5 44t3 58.5t7 65t12 62.5t18.5 51t26 32q25 16 64 25t81.5 13.5t84 6t71.5 1.5q29 0 57.5 -3t50.5 -14t35.5 -32t13.5 -56t-15 -52t-38 -23t-50 -5.5t-52 0.5q-42 0 -84 -1.5t-82 -12.5q-6 -26 -8 -52.5t-3 -53.5q79 17 159.5 27.5t162.5 10.5q41 0 65 -26.5
t24 -65.5q0 -40 -23.5 -64t-63.5 -31q-23 -4 -45.5 -5t-45.5 -4q-58 -6 -115.5 -16t-114.5 -26q2 -38 6.5 -75t10.5 -74q27 10 65 24t78.5 27t79 21.5t67.5 8.5q20 0 38.5 -6.5t33 -18.5t23 -29t8.5 -37z" />
    <glyph glyph-name="L_A.liga" unicode="LA" horiz-adv-x="1193" 
d="M1191 96q0 -36 -23.5 -64t-60.5 -30q-32 -2 -56.5 20t-43.5 53.5t-33.5 65t-26.5 56.5q-67 -11 -135 -37t-131 -53q-6 -23 -12 -53.5t-17 -58.5t-30 -48t-51 -22q-19 -1 -35.5 5t-29 18t-19.5 28.5t-7 35.5q0 16 3.5 36.5t9.5 44.5q-28 -9 -55.5 -18t-55.5 -20
q-54 -21 -104.5 -49.5t-103.5 -54.5q-10 -5 -20.5 -9t-21.5 -5q-21 -1 -35.5 6t-24 19.5t-14.5 29t-6 34.5q-3 39 -4 78.5t-1 79.5q0 100 1 198.5t6 198.5q2 35 3 69t7 69t27.5 61t59.5 29q39 2 63.5 -24t24.5 -64q0 -3 -0.5 -6t-0.5 -7q-9 -93 -9 -186q0 -79 3 -157t5 -156
q32 13 72.5 27t83.5 26t85.5 21t78.5 12q15 40 30.5 80t30 75t27.5 64.5t23 50.5q6 14 16 37t22 49t26.5 53t30.5 49t33 36t34 15q28 2 52 -17.5t36 -42.5q15 -29 26 -59.5t24 -60.5q24 -58 49 -115t51 -114q23 0 43 -3.5t35 -13t24 -26.5t9 -43q0 -39 -24 -70q4 -14 10 -33
t12 -38.5t10 -38.5t4 -33zM867 365q-14 29 -26 59t-26 59q-17 -35 -31.5 -71.5t-28.5 -72.5q28 8 55.5 14.5t56.5 11.5z" />
    <glyph glyph-name="L_E.liga" unicode="LE" horiz-adv-x="1230" 
d="M1180 218q0 -34 -16.5 -59.5t-45.5 -43.5q-17 -10 -51 -29t-77 -41.5t-90 -46t-89.5 -42.5t-75.5 -31.5t-48 -13.5q-33 -2 -54.5 16.5t-35 48.5t-20 68t-9.5 74q-47 -16 -93.5 -30.5t-92.5 -31.5q-54 -21 -104.5 -48.5t-103.5 -53.5q-10 -5 -20.5 -8.5t-21.5 -4.5
q-21 -1 -35.5 6t-24 19.5t-14.5 29t-6 34.5q-3 39 -4 78.5t-1 79.5q0 100 1 198.5t6 198.5q2 35 3 69t7 69t27.5 61t59.5 28q39 2 63.5 -24t24.5 -64q0 -4 -0.5 -7t-0.5 -6q-9 -93 -9 -187q0 -78 3 -156t5 -156q33 13 75 26.5t86.5 25.5t88 20.5t79.5 10.5q2 130 6 259
q-20 14 -30 37.5t-10 47.5q0 73 68 100q36 14 91 27t115 23.5t116.5 17.5t95.5 9q19 1 36.5 -1.5t30.5 -11t20.5 -22.5t7.5 -36q0 -40 -24.5 -66t-61.5 -35q-20 -5 -40.5 -9t-40.5 -9q-49 -12 -97.5 -26.5t-96.5 -30.5q-5 -25 -6 -50t-1 -51q26 9 62.5 20t75 21t75 17.5
t62.5 8.5q38 2 62 -19.5t24 -60.5q0 -36 -19.5 -60t-52.5 -37q-75 -29 -150 -53t-147 -62v-36q0 -17 1.5 -34t7.5 -32q13 6 43.5 19.5t69 30.5t80.5 35.5t77.5 33.5t61.5 25t32 11q34 1 52 -23t18 -55z" />
    <glyph glyph-name="c_k.liga" unicode="ck" horiz-adv-x="1269" 
d="M1336 239q0 -40 -26.5 -64t-65.5 -24q-8 0 -15 1.5t-15 3.5q-56 14 -112 17t-113 3q-39 0 -77.5 -0.5t-77.5 -5.5q3 -13 9.5 -31.5t12.5 -38.5t10.5 -38t4.5 -29q0 -20 -8 -36.5t-21.5 -29t-31.5 -19.5t-37 -7q-30 0 -56 16t-39 43q-25 54 -35 110q-36 -20 -81 -37.5
t-92 -31t-93.5 -22.5t-86.5 -11q-72 -4 -124.5 15t-87 57.5t-51 94.5t-16.5 126q0 35 8.5 88.5t24.5 113.5t40 120t54.5 109t68 80.5t80.5 33.5q52 3 97 -14t77 -49.5t50.5 -78t18.5 -98.5q0 -42 -27 -70.5t-68 -30.5q-31 -2 -48.5 7.5t-27 25t-14 34t-8.5 35t-10.5 29
t-20.5 14.5q-17 -27 -35.5 -71.5t-34 -93.5t-25.5 -96t-10 -77q0 -29 2 -50t10.5 -34.5t26.5 -19.5t50 -4q36 2 72.5 9t71.5 19q16 5 41 16t51 21.5t49.5 19t35.5 9.5q10 0 14 -1v86q0 21 -1 57t0.5 78t6.5 85t17 78.5t32 57.5t51 22q46 0 71 -28t25 -73t-6 -90t-6 -90v-52
q49 59 95 118.5t88 123.5q18 28 35.5 56t41.5 51q14 13 30.5 21.5t36.5 8.5q19 0 36.5 -8t31 -21.5t21.5 -31t8 -36.5q0 -20 -8 -35t-20 -30q-23 -28 -41 -58t-40 -59q-31 -41 -61.5 -81.5t-61.5 -81.5q27 -1 62 -3.5t71.5 -7t70.5 -11t59 -15.5q31 -11 48.5 -33t17.5 -56z
" />
    <glyph glyph-name="C_K.liga" unicode="CK" horiz-adv-x="1351" 
d="M1411 179q0 -37 -22.5 -58.5t-58.5 -21.5q-9 0 -14 1l-428 49q3 -38 10 -75.5t7 -75.5q0 -39 -23.5 -62t-62.5 -23q-45 0 -73 26.5t-35 69.5q-5 32 -6.5 64t-3.5 64l-1 21q-4 -2 -6 -4q-41 -30 -91 -55t-103 -43.5t-107 -29t-103 -11.5q-68 0 -120.5 18t-87 53t-50 86
t-8.5 117q4 42 19 98t39.5 115.5t57.5 117t74.5 103.5t90.5 74t105 29q58 0 96 -25t59.5 -64.5t28 -88t1.5 -95.5q-5 -42 -34 -70t-74 -29q-43 0 -60.5 18t-23.5 45t-7 57.5t-10 55.5q-35 -31 -64 -73t-50.5 -88.5t-35.5 -94.5t-18 -90q-5 -45 13 -64t65 -18
q89 1 167.5 27.5t158.5 70.5q14 8 27 13t30 5h12q-1 32 -1.5 64t-0.5 64q0 67 2 134t8 134q4 38 25.5 63.5t62.5 25.5q39 0 58.5 -18t27 -45.5t7.5 -59v-58.5q0 -30 -0.5 -60.5t-0.5 -60.5l224 196q27 24 62 24q19 0 36.5 -8t31 -21t21.5 -30.5t8 -36.5q0 -21 -7.5 -40
t-23.5 -33l-221 -205l310 -67q18 -4 34 -13t29 -22t20.5 -30t7.5 -36z" />
    <glyph glyph-name="c_r.liga" unicode="cr" horiz-adv-x="1227" 
d="M1209 205q0 -20 -8 -36.5t-21.5 -27.5t-31.5 -17t-37 -6t-55.5 7.5t-77.5 17t-79.5 19.5t-62.5 15q3 -35 6 -70.5t3 -70.5q0 -42 -29 -64.5t-68 -22.5q-43 0 -70.5 23t-33.5 65q-2 17 -2.5 35.5t-1.5 35.5q-36 -20 -80.5 -37t-91.5 -30.5t-93 -22t-85 -10.5
q-72 -4 -124.5 15t-87 57.5t-51 94.5t-16.5 126q0 35 8.5 88.5t24.5 113.5t40 120t54.5 109t68 80.5t80.5 33.5q52 3 97 -14t77 -49.5t50.5 -78t18.5 -98.5q0 -42 -27 -70.5t-68 -30.5q-31 -2 -48.5 7.5t-27 25t-14 34t-8.5 35t-10.5 29t-20.5 14.5q-17 -27 -35.5 -71.5
t-34 -93.5t-25.5 -96t-10 -77q0 -29 2 -50t10.5 -34.5t26.5 -19.5t50 -4q36 2 72.5 9t71.5 19q16 5 41 16t51 21.5t49.5 19t35.5 9.5h9.5t9.5 -1q-4 82 -5.5 163.5t-1.5 162.5v44.5t3 44.5q3 26 25.5 46t55.5 34.5t73.5 25t79.5 16.5t73 9t55 3q31 0 67.5 -8t68 -25.5
t52 -44.5t20.5 -65q0 -63 -21.5 -112.5t-56.5 -91t-79.5 -76.5t-90.5 -68q46 -11 91 -24t90 -30q33 -12 56.5 -35t23.5 -61zM993 669q-42 -1 -85 -5.5t-83 -18.5q0 -18 -0.5 -41.5t-0.5 -41.5v-66q21 15 46.5 35t49.5 42.5t44 47t29 48.5z" />
    <glyph glyph-name="C_R.liga" unicode="CR" horiz-adv-x="1328" 
d="M1410 160q0 -21 -8 -35.5t-21 -23t-30 -12.5t-35 -4q-45 0 -88.5 9.5t-88.5 18.5q-57 12 -114 22t-115 15q2 -22 3 -43.5t1 -43.5q0 -21 -8.5 -42t-22.5 -37.5t-33.5 -26.5t-41.5 -10q-30 0 -44 18.5t-22 44.5q-10 36 -15 72.5t-10 73.5q-5 -6 -10.5 -11.5t-12.5 -10.5
q-41 -30 -91 -55t-103 -43.5t-107 -29t-103 -11.5q-68 0 -120.5 18t-87 53t-50 86t-8.5 117q4 42 19 98t39.5 115.5t57.5 117t74.5 103.5t90.5 74t105 29q58 0 96 -25t59.5 -64.5t28 -88t1.5 -95.5q-5 -42 -34 -70t-74 -29q-43 0 -60.5 18t-23.5 45t-7 57.5t-10 55.5
q-35 -31 -64 -73t-50.5 -88.5t-35.5 -94.5t-18 -90q-5 -45 13 -64t65 -18q89 1 167.5 27.5t158.5 70.5q14 8 27 13t30 5h11.5t10.5 -1q-7 80 -10 159.5t-3 160.5q0 46 5 77t20.5 50t45 26.5t79.5 7.5q21 0 41.5 1.5t41.5 1.5q31 0 68.5 -2.5t76.5 -10t75.5 -20t65 -33.5
t46 -51t17.5 -71q0 -44 -16 -81.5t-41.5 -69t-58 -58t-65.5 -49.5q24 -7 57.5 -13t69 -14t70.5 -19t62.5 -28t44.5 -41.5t17 -59.5zM1073 575q-29 12 -60.5 14.5t-63.5 2.5h-36t-36 -2q-3 -23 -3 -45q0 -65 3 -129q21 12 50 30.5t57.5 40t52.5 44.5t36 44z" />
    <glyph glyph-name="c_s.liga" unicode="cs" horiz-adv-x="1232" 
d="M1217 238q0 -47 -25 -98.5t-65 -94.5t-89.5 -71t-97.5 -28q-31 0 -71.5 10t-83 28t-82 43.5t-67.5 55.5q-36 -17 -80 -31t-90.5 -24.5t-92 -16t-84.5 -5.5q-72 0 -124 21.5t-86.5 60.5t-51 94.5t-16.5 123.5q0 34 8.5 85.5t24.5 109t40 114.5t54.5 103t67.5 74.5t80 28.5
q52 0 97 -19t77 -52.5t50.5 -78.5t18.5 -97q0 -41 -27 -67t-68 -26q-31 0 -48.5 10t-27 25.5t-14 33.5t-8.5 34.5t-10.5 29t-20.5 15.5q-17 -25 -35 -67.5t-33.5 -89.5t-25.5 -91.5t-10 -74.5q0 -28 2 -49t10.5 -34.5t26 -20t49.5 -6.5q72 0 144 20q16 4 41 13t51 18
t49.5 16t35.5 7h6.5t6.5 -1q13 5 29 5q22 0 43 -13q8 -5 15 -11.5t15 -12.5q16 -14 40 -29.5t50.5 -29t53 -22t48.5 -8.5q19 0 39.5 12.5t37 31t27 40.5t10.5 41q0 10 -5.5 13t-13.5 6q-12 5 -27.5 8t-32 5.5t-32.5 3.5t-29 3q-53 5 -106 12t-103 27q-33 13 -53.5 32t-32 43
t-15.5 53t-4 61q0 28 12 64t32.5 73t48 72t58 62.5t62.5 44.5t63 17q44 0 91 -16t86 -45t64 -69.5t25 -89.5q0 -18 -5.5 -36.5t-16 -33t-26.5 -23.5t-36 -9q-30 0 -50 19t-37 42t-36 42t-49 19q-15 0 -32 -12.5t-31 -30t-23.5 -37t-9.5 -33.5q0 -11 9 -18.5t21.5 -12.5
t25.5 -7.5t21 -4.5q32 -7 63.5 -9.5t63.5 -7.5q63 -9 109.5 -26t76.5 -47t45 -76t15 -113z" />
    <glyph glyph-name="C_S.liga" unicode="CS" horiz-adv-x="1334" 
d="M1317 279q-2 -74 -39 -133.5t-94 -101t-127 -61.5t-139 -14q-21 2 -50.5 13t-60.5 28t-60.5 38t-51.5 43q-2 -2 -8 -6q-38 -27 -84.5 -48t-96.5 -35t-101.5 -19.5t-99.5 -1.5q-66 6 -118 29.5t-88 63t-54.5 93.5t-16.5 120q1 43 11.5 99.5t29.5 115t47 115t65 99t82.5 67
t99.5 19.5q56 -5 94.5 -34.5t62.5 -72t34 -93t9 -98.5q-2 -43 -28 -69t-70 -22q-42 4 -60.5 24t-26 48.5t-10.5 60t-13 58.5q-32 -29 -57 -69.5t-42.5 -86.5t-27.5 -93.5t-11 -90.5q-2 -46 17 -66.5t64 -25.5q86 -8 160.5 12t148.5 57q14 7 25.5 11.5t27.5 2.5t24 -4
q16 5 30 4q23 -2 46 -14.5t48.5 -27t55.5 -27.5t66 -16q26 -2 47 1.5t39.5 11.5t35.5 21t36 29q7 6 17.5 15.5t11.5 19.5q0 3 -4 3h-6q-11 1 -21 3.5t-21 3.5q-43 4 -85.5 4t-85.5 4q-39 3 -88.5 12t-92 28.5t-71 53t-26.5 87.5q1 27 12 59t27.5 63.5t35.5 59.5t36 48
q24 27 58 55t73.5 50t81 34.5t80.5 9.5q28 -2 56 -21t50 -46t35.5 -58.5t12.5 -59.5q0 -18 -6.5 -36t-17.5 -32t-27 -22.5t-36 -6.5q-21 1 -33 11.5t-23 22.5t-24 22.5t-36 12.5q-18 1 -40.5 -13t-42.5 -35.5t-34 -45.5t-15 -42q0 -8 11 -10.5t16 -2.5q13 -2 26 -0.5
t26 -0.5q32 -2 64.5 -3.5t64.5 -4.5q43 -4 91 -14t88.5 -32t66 -58.5t24.5 -91.5z" />
    <glyph glyph-name=".notdef" horiz-adv-x="406" 
d="M399 35q0 -6 -1 -12t-3 -12q-7 -27 -17.5 -42.5t-25.5 -23.5t-34.5 -10t-44.5 -2q-44 0 -85 11t-73 34.5t-51 59t-19 84.5q0 27 9 50t19.5 44t19.5 39.5t9 35.5q0 18 -10 30.5t-21.5 23.5t-21.5 23.5t-10 29.5q0 20 14.5 39t32.5 35.5t32.5 30t14.5 22.5q0 10 -3 22.5
t-6.5 26t-6.5 28t-3 28.5q0 75 41.5 125.5t114.5 66.5q3 1 6.5 1h6.5q19 0 36 -9t30.5 -24t21.5 -33t8 -36q0 -30 -13.5 -44t-30 -22.5t-30 -17t-13.5 -28.5q0 -17 4.5 -33t9.5 -31.5t9.5 -32t4.5 -33.5q0 -41 -35 -70q17 -15 27 -35t10 -43q0 -22 -14 -44t-30.5 -45
t-30 -48.5t-13.5 -53.5q0 -12 7 -20t17 -13.5t21.5 -8t20.5 -2.5q6 0 12 1t12 1q29 0 52 -15t23 -48z" />
    <glyph glyph-name="glyph1" horiz-adv-x="0" 
 />
    <glyph glyph-name="glyph1" horiz-adv-x="0" 
 />
    <glyph glyph-name="uni000D" unicode="&#xd;" horiz-adv-x="405" 
 />
    <glyph glyph-name="space" unicode=" " horiz-adv-x="405" 
 />
    <glyph glyph-name="exclam" unicode="!" horiz-adv-x="365" 
d="M336 796q0 -37 -10 -74.5t-17 -73.5q-6 -31 -10.5 -54t-7.5 -44.5t-5 -45t-2 -54.5q0 -23 -1.5 -45.5t-1.5 -45.5q0 -22 -8.5 -41.5t-23.5 -34.5t-34.5 -23.5t-41.5 -8.5q-27 0 -44.5 11t-28 28t-14.5 39t-4 45q0 30 2.5 51.5t6 41.5t7.5 41.5t7 51.5q8 64 17.5 128.5
t26.5 127.5q19 68 88 68q19 0 36.5 -6.5t31.5 -18t22.5 -27.5t8.5 -36zM311 67q0 -30 -10.5 -49t-27.5 -31t-39.5 -19.5t-46.5 -13.5q-20 -5 -43.5 -15t-43.5 -10q-21 0 -37 10t-26.5 26t-16 35.5t-5.5 37.5q0 29 9.5 50t26 36t39 25t47.5 16q18 5 39 9.5t40 4.5
q22 0 40 -10t30 -25.5t18.5 -35.5t6.5 -41z" />
    <glyph glyph-name="quotedbl" unicode="&#x22;" horiz-adv-x="610" 
d="M554 769q0 -11 -5 -34t-11.5 -50t-13 -53.5t-8.5 -43.5q-5 -34 -5 -67t-4 -67q-5 -38 -26.5 -62.5t-62.5 -24.5q-44 0 -72.5 29.5t-28.5 72.5q0 81 11.5 164.5t38.5 159.5q11 31 33 49.5t56 18.5q19 0 37 -7t31.5 -19t21.5 -29t8 -37zM285 757q0 -28 -8 -58t-13 -58
q-3 -17 -5 -31.5t-2.5 -28t-0.5 -27.5v-31q0 -41 -28.5 -67t-68.5 -26q-27 0 -45 10t-29.5 26.5t-16 38t-4.5 45.5q0 57 9 114.5t25 112.5q10 33 32.5 53t57.5 20q19 0 37 -7t31 -19.5t21 -29.5t8 -37z" />
    <glyph glyph-name="numbersign" unicode="#" horiz-adv-x="730" 
d="M714 303q0 -27 -8 -44.5t-22.5 -28t-34 -16t-43.5 -7.5q4 -17 7.5 -34.5t3.5 -35.5q0 -22 -8.5 -44t-23 -39.5t-34.5 -28.5t-43 -11q-31 0 -50 16.5t-29.5 41t-15 52.5t-6.5 52l-52 -9q5 -20 8.5 -40t3.5 -40q0 -22 -8.5 -44t-23 -39.5t-34.5 -28.5t-43 -11
q-31 0 -50 16.5t-29.5 41.5t-15 53t-6.5 52q-11 -3 -21.5 -5t-21.5 -2q-20 0 -37 7.5t-30 21t-20 30.5t-7 37q0 27 11 45t29 29.5t40 18t44 11.5l-2 57q-36 6 -58 32.5t-22 62.5q0 35 22 57.5t54 33.5q-1 19 -2.5 29.5t-1.5 29.5q0 23 5 44t16.5 37t30 25.5t44.5 9.5
q33 0 53 -11.5t30 -30.5t12.5 -44t2.5 -51l60 9l-1 74q0 25 3.5 50t14 45t30 32t50.5 12q43 0 63 -18.5t26.5 -46t5 -60.5t-1.5 -62q10 1 19 1.5t19 0.5q42 0 68.5 -26.5t26.5 -68.5q0 -32 -10.5 -50t-28.5 -28t-41.5 -14t-48.5 -6l2 -49q9 1 17.5 1.5t17.5 0.5
q42 0 68.5 -26.5t26.5 -68.5zM395 367l-2 52l-62 -11l2 -51z" />
    <glyph glyph-name="dollar" unicode="$" horiz-adv-x="701" 
d="M677 317q0 -42 -18.5 -77t-48 -63t-66 -48.5t-71.5 -33.5q4 -16 7.5 -31.5t3.5 -32.5q0 -20 -9 -37.5t-23 -31t-33 -21t-38 -7.5q-29 0 -47 11.5t-28.5 30t-15.5 42t-7 46.5q-26 3 -67 15t-79.5 31.5t-66 46t-27.5 59.5q0 29 20.5 46.5t48.5 17.5q23 0 41.5 -7t38.5 -15
q28 -11 55 -16t57 -5q21 0 45 4.5t48 12.5t46.5 18.5t40.5 22.5q-32 2 -70 2h-70h-54.5t-65.5 3t-67.5 9.5t-60 20t-43 34.5t-16.5 53q0 33 18 66.5t45 63.5t58.5 55t57.5 41q0 30 1 64t10 63.5t31 49t64 19.5q32 0 50 -11t27 -29t10.5 -42t-0.5 -49h10q26 0 53 -11
t49 -29.5t36 -43t14 -51.5q0 -33 -21.5 -57.5t-55.5 -24.5q-17 0 -30 7.5t-25 17t-25 17t-31 7.5q-12 0 -31.5 -9t-39 -22t-36.5 -27.5t-24 -24.5q25 -1 66.5 -1t89 -2.5t95.5 -9.5t86.5 -22t63 -40.5t24.5 -64.5z" />
    <glyph glyph-name="percent" unicode="%" horiz-adv-x="812" 
d="M777 266q0 -56 -18.5 -109t-53 -94t-83 -65.5t-108.5 -24.5q-35 0 -66 9.5t-56 28t-43 45t-27 60.5q-12 -19 -25 -41t-28.5 -41.5t-35.5 -32.5t-46 -13q-20 0 -38 7.5t-31.5 21t-21.5 31t-8 37.5q0 23 19.5 59.5t45.5 75.5t53 74.5t42 57.5q-7 -1 -13 -1h-13
q-43 0 -79.5 14t-63 39t-41.5 60.5t-15 79.5q0 57 21 109.5t58 92.5t87.5 64t109.5 24q78 0 126.5 -44t58.5 -120q14 19 34.5 46.5t44.5 53t49.5 44t51.5 18.5q19 0 37 -8t32 -21.5t22.5 -31t8.5 -36.5q0 -18 -7 -34t-17 -30q-14 -20 -31 -38.5t-33 -37.5q-25 -30 -49.5 -60
t-48.5 -61q5 0 9 0.5t9 0.5q45 0 79 -17t56.5 -46t34 -66.5t11.5 -79.5zM313 632q0 11 -3 20t-16 9q-19 0 -36.5 -12t-31 -29.5t-22 -38t-8.5 -37.5q0 -11 6.5 -15t16.5 -4q20 0 37.5 9.5t30 25t19.5 34.5t7 38zM604 265q0 10 -3 21t-16 11q-19 0 -36.5 -13t-31 -32
t-21.5 -40.5t-8 -38.5q0 -20 22 -20q21 0 38 10.5t29.5 27t19.5 36t7 38.5z" />
    <glyph glyph-name="ampersand" unicode="&#x26;" horiz-adv-x="830" 
d="M814 59q0 -19 -7 -37t-19.5 -31.5t-29.5 -21.5t-37 -8q-18 0 -48 12.5t-62 29t-61.5 34t-46.5 28.5q-80 -39 -168 -69t-178 -30q-27 0 -52 6t-45 19.5t-32 35t-12 51.5q0 32 11 67.5t28.5 71t38 67.5t39.5 56q-34 35 -57 74t-23 90q0 58 32.5 112.5t82.5 96.5t109.5 67.5
t114.5 25.5q33 0 67.5 -9t63 -28t47 -47t18.5 -65q0 -34 -20.5 -75.5t-49.5 -82.5t-60.5 -78t-53.5 -62q27 -20 54.5 -38t55.5 -36q17 11 42.5 30.5t53 39t53.5 33.5t44 14q19 0 36.5 -8.5t30.5 -22t20.5 -31.5t7.5 -37q0 -21 -11 -39.5t-27.5 -34.5t-35.5 -29t-34 -23
q19 -11 40 -20.5t39 -22.5t29.5 -31t11.5 -44zM363 609q-19 -6 -40 -17.5t-39 -26t-29.5 -29.5t-11.5 -29q0 -6 6 -13.5t11 -12.5q27 32 53.5 63t49.5 65zM317 185l-58 48l-44 -84q6 1 20.5 6.5t31 11.5t31 11t19.5 7z" />
    <glyph glyph-name="quotesingle" unicode="'" horiz-adv-x="340" 
d="M283 757q0 -28 -8 -58t-13 -58q-3 -17 -5 -31.5t-2.5 -28t-0.5 -27.5v-31q0 -41 -28.5 -67t-68.5 -26q-27 0 -45 10t-29.5 26.5t-16 38t-4.5 45.5q0 57 9 114.5t25 112.5q10 33 32.5 53t57.5 20q19 0 37 -7t31 -19.5t21 -29.5t8 -37z" />
    <glyph glyph-name="parenleft" unicode="(" horiz-adv-x="444" 
d="M430 742q0 -35 -15.5 -64t-48.5 -44q-10 -5 -19.5 -8.5t-18.5 -9.5q-31 -20 -51 -54.5t-32 -75t-16.5 -82.5t-4.5 -75q0 -66 14 -102.5t35.5 -56.5t46.5 -30t46.5 -21t35.5 -30t14 -57q0 -17 -5 -33t-14.5 -29t-23.5 -20.5t-33 -7.5h-8t-8 1q-83 18 -137.5 54t-87.5 87.5
t-46.5 118t-13.5 145.5q0 60 13 126.5t40 128t68 112t98 80.5q21 11 51 19t54 8q35 0 51 -24.5t16 -55.5z" />
    <glyph glyph-name="parenright" unicode=")" horiz-adv-x="444" 
d="M416 438q5 -60 -2 -127t-28.5 -130.5t-58 -118t-90.5 -88.5q-20 -14 -49.5 -24t-53.5 -12q-34 -3 -52.5 19.5t-20.5 53.5q-3 35 9.5 65.5t44.5 48.5q9 5 18.5 9.5t17.5 11.5q29 22 46 58.5t25.5 78t9.5 83.5t-2 75q-6 65 -23.5 100.5t-40.5 53.5t-48.5 25.5t-47.5 16.5
t-38 27t-19 56q-2 17 1.5 33.5t12 30t22 22t32.5 10.5q5 1 16 1q84 -11 141.5 -42t95 -79.5t56.5 -114t26 -143.5z" />
    <glyph glyph-name="asterisk" unicode="*" horiz-adv-x="572" 
d="M543 471q0 -40 -27.5 -63t-65.5 -23q-23 0 -49 8v-5q0 -37 -26.5 -61t-62.5 -24q-35 0 -54 18t-30 49q-20 -15 -42.5 -25.5t-47.5 -10.5q-36 0 -61.5 25.5t-25.5 61.5q0 25 8.5 40t22 24.5t30 18t31.5 21.5q-12 10 -26.5 23t-26.5 28t-20 31.5t-8 33.5q0 18 7.5 34t20 28
t28.5 19t34 7q11 0 23 -3v19q0 42 21 71.5t66 29.5q25 0 41.5 -8.5t26.5 -22.5t15 -33t6 -41q17 24 33.5 40.5t49.5 16.5q18 0 34 -6.5t28 -18.5t19 -27.5t7 -33.5q0 -19 -9.5 -39.5t-23.5 -39.5t-30 -36t-29 -30q6 -2 12.5 -4.5t12.5 -2.5q38 0 63 -25.5t25 -63.5z" />
    <glyph glyph-name="plus" unicode="+" horiz-adv-x="605" 
d="M574 371q0 -42 -26.5 -68.5t-68.5 -26.5q-26 0 -50.5 -2.5t-49.5 -5.5q3 -12 8 -26.5l10 -29t9 -28.5t4 -26q0 -19 -7 -37.5t-20 -33t-30 -23.5t-36 -9q-32 0 -54 20t-36 48.5t-22.5 61t-13.5 56.5q-18 -5 -36.5 -9.5t-36.5 -4.5q-20 0 -37 8t-29 21.5t-19 31.5t-7 37
q0 29 12 47.5t31.5 29.5t43.5 17t47 10q-4 38 -5 76t-1 76q0 42 26.5 68.5t68.5 26.5q28 0 46.5 -9.5t29 -25.5t15 -37.5t4.5 -45.5q0 -17 -1 -34t-1 -34q0 -9 0.5 -17.5t1.5 -17.5q34 4 67.5 7.5t67.5 3.5q42 0 68.5 -26.5t26.5 -68.5z" />
    <glyph glyph-name="comma" unicode="," horiz-adv-x="440" 
d="M361 258q0 -12 -4.5 -37.5t-12.5 -58t-17 -68.5t-19 -67.5t-18.5 -56t-14.5 -34.5q-13 -21 -32.5 -35t-45.5 -14q-18 0 -34.5 7.5t-29 20t-20 29.5t-7.5 35q0 15 4.5 25t9.5 24q6 14 11 45.5t9 67.5t7.5 70t6.5 53q6 42 32.5 65t69.5 23q21 0 40 -6.5t33.5 -18.5
t23 -29.5t8.5 -39.5z" />
    <glyph glyph-name="hyphen" unicode="-" horiz-adv-x="456" 
d="M424 371q0 -42 -26.5 -68.5t-68.5 -26.5q-45 0 -89.5 -3t-89.5 -15l-16 -4t-16 -2q-20 0 -37 8t-29 21.5t-19 31.5t-7 37q0 32 17.5 54.5t46.5 33.5q22 9 53 14.5t64 8.5t65.5 4t56.5 1q42 0 68.5 -26.5t26.5 -68.5z" />
    <glyph glyph-name="period" unicode="." horiz-adv-x="446" 
d="M351 168q0 -31 -14.5 -59t-38 -49t-53 -33t-59.5 -12q-23 0 -43 7.5t-36 21t-25 33t-9 42.5q0 31 17.5 59t44.5 49t58.5 33.5t60.5 12.5q48 0 72.5 -30t24.5 -75z" />
    <glyph glyph-name="slash" unicode="/" horiz-adv-x="690" 
d="M688 734q0 -19 -6.5 -34t-17.5 -29q-31 -42 -64.5 -80.5t-65.5 -78.5q-160 -198 -302 -415q-10 -15 -18.5 -30t-18.5 -30q-15 -23 -34.5 -36t-47.5 -13q-20 0 -38 7.5t-32 20.5t-22.5 31t-8.5 38q0 14 3.5 25.5t9.5 23.5q25 51 60 97t67 93q60 88 122.5 172.5
t128.5 167.5l54 68t58 66q15 16 32 25t40 9q19 0 37.5 -8t32.5 -21.5t22.5 -31t8.5 -37.5z" />
    <glyph glyph-name="zero" unicode="0" horiz-adv-x="648" 
d="M624 375q0 -72 -15 -137t-49.5 -114.5t-90.5 -78.5t-137 -29q-69 0 -125.5 16.5t-96.5 51t-62 87t-22 125.5q0 63 10 120t35 115q9 21 24 49t34.5 58t42.5 59t48 52t51 37t52 14q34 0 69.5 -23t69 -60.5t63 -84t51.5 -94t35 -90.5t13 -73zM421 323q0 13 -0.5 26t-0.5 26
q0 18 -11.5 47t-27 59.5t-32.5 58t-28 41.5q-22 -28 -39 -65t-29 -78t-18.5 -82t-6.5 -76q0 -24 9.5 -37.5t24.5 -20.5t34 -9t38 -2q30 0 47 8t26 22.5t11.5 35t2.5 46.5z" />
    <glyph glyph-name="one" unicode="1" horiz-adv-x="378" 
d="M327 722q0 -56 -4 -111.5t-9 -111t-9 -111t-4 -111.5q0 -23 -0.5 -46.5t-0.5 -46.5q0 -29 2.5 -56.5t8.5 -55.5q3 -14 3 -26q0 -20 -8 -37t-21 -29t-31 -19t-37 -7q-41 0 -63 25t-31.5 60t-11 74t-1.5 68v109q0 45 1 90t4 90q-18 2 -35 5.5t-31 11.5t-22.5 21.5
t-8.5 35.5q0 23 12.5 54t30.5 62.5t37.5 60t33.5 47.5q19 26 45 40.5t58 14.5q48 0 70 -28t22 -73z" />
    <glyph glyph-name="two" unicode="2" horiz-adv-x="624" 
d="M729 163q0 -41 -27 -68.5t-68 -27.5q-49 0 -116 -6t-135.5 -18.5t-131.5 -32t-105 -45.5q-17 -11 -31.5 -17.5t-35.5 -6.5q-38 0 -64.5 26.5t-26.5 64.5q0 20 7.5 36.5t19.5 32.5q23 31 58.5 73.5t75 90.5t80 99t74.5 100t57.5 93.5t29.5 79.5h-6q-21 0 -43 -12
t-41.5 -29t-36.5 -37t-28 -36q-16 -23 -33.5 -36.5t-47.5 -13.5q-19 0 -37 7t-31.5 20t-22 30t-8.5 37q0 12 3.5 23.5t8.5 22.5q20 43 59.5 82t88.5 67.5t102 45.5t100 17q39 0 69.5 -13t51.5 -36t32 -54.5t11 -69.5q0 -54 -21 -110.5t-53 -111.5t-69.5 -105.5t-69.5 -90.5
q59 11 117.5 17.5t118.5 6.5q24 0 47 -4t40 -14.5t27.5 -29t10.5 -47.5z" />
    <glyph glyph-name="three" unicode="3" horiz-adv-x="711" 
d="M690 280q0 -72 -26 -132.5t-71.5 -104.5t-107 -68.5t-132.5 -24.5q-41 0 -76 11.5t-65.5 31t-58 44.5t-54.5 53q-11 12 -24.5 24.5t-24.5 27t-18.5 30t-7.5 33.5q0 19 8 36.5t21.5 31t31 21.5t36.5 8q21 0 41 -12t39 -30t37.5 -39t37 -39t38 -30t39.5 -12q31 0 58 9.5
t47 27.5t31 44t11 59q0 12 -4.5 28t-12.5 30.5t-19.5 25t-25.5 10.5q-30 0 -49 -8t-34 -17.5t-29.5 -17.5t-35.5 -8q-19 0 -36 7.5t-30 20.5t-20.5 30t-7.5 36q0 27 23 53.5t56 55t69 60.5t61 70q-44 -9 -91 -31.5t-78 -54.5q-16 -17 -31.5 -26.5t-40.5 -9.5q-19 0 -37 7.5
t-31.5 21t-21.5 30.5t-8 37q0 16 6 31t15.5 28.5t21.5 25.5t23 22q56 50 128.5 79t148.5 29q38 0 72 -10t59.5 -30.5t40 -51.5t14.5 -72q0 -39 -14.5 -75t-37.5 -67q34 -18 61 -46.5t46 -63.5t29.5 -73.5t10.5 -75.5z" />
    <glyph glyph-name="four" unicode="4" horiz-adv-x="728" 
d="M724 259q0 -46 -25.5 -66.5t-67.5 -26.5q3 -26 7.5 -53t4.5 -54q0 -41 -28 -67t-68 -26q-36 0 -56 18t-30.5 45t-13.5 58t-4 57q-76 -11 -149.5 -27.5t-147.5 -36.5q-11 -3 -20.5 -5t-20.5 -2q-36 0 -62 22t-26 60q0 18 6.5 34.5t15.5 31.5q33 55 73 105t79 101
q69 89 136.5 177.5t133.5 179.5q16 22 37 37.5t50 15.5q24 0 40.5 -9.5t26.5 -25.5t14.5 -35.5t4.5 -40.5q0 -94 -6 -185.5t-6 -185.5h8q41 0 67.5 -28t26.5 -68zM440 459q-29 -35 -59 -70t-57 -73q29 5 57.5 9.5t57.5 8.5z" />
    <glyph glyph-name="five" unicode="5" horiz-adv-x="697" 
d="M670 370q0 -35 -10.5 -68.5t-25.5 -64.5q-25 -51 -59 -101t-76.5 -90.5t-95 -65.5t-114.5 -25q-29 0 -72 10t-83 29t-68.5 47t-28.5 63q0 19 8.5 35t22 27t31 17t35.5 6q17 0 35 -7t38 -15t41.5 -15t46.5 -7q28 0 59 21t57.5 52t44 65t17.5 61q0 3 -4.5 5t-10.5 2.5
t-11.5 0.5h-8.5q-19 0 -40.5 -1t-43 -4.5t-41.5 -9.5t-37 -16t-30.5 -22t-27 -22.5t-30 -17.5t-38.5 -7q-38 0 -64.5 20t-26.5 58q0 10 1 15q7 53 12 105t15 105q4 24 11 52t18.5 54t28 48t39.5 34q34 17 76.5 29.5t87.5 21t89 13t82 4.5q41 0 69.5 -26t28.5 -68
q0 -39 -27 -63.5t-65 -24.5q-67 0 -121.5 -10t-115.5 -39q-11 -32 -15 -64q41 14 81.5 20t83.5 6q42 0 83.5 -8.5t74.5 -28.5t53.5 -53t20.5 -82z" />
    <glyph glyph-name="six" unicode="6" horiz-adv-x="645" 
d="M636 373q0 -30 -9 -64t-19 -63q-15 -44 -40 -96.5t-60 -99t-79.5 -77.5t-98.5 -31q-87 0 -146 36.5t-96 95t-53 132t-16 147.5q0 49 9.5 104.5t29 109.5t48.5 103.5t68 87t87.5 60t106.5 22.5q125 0 173 -116q5 -11 8 -23t3 -24q0 -20 -8 -34.5t-21.5 -24t-30.5 -14
t-35 -4.5q-27 0 -40 8t-20 17t-12 17t-17 8q-32 0 -55.5 -19t-40.5 -46.5t-28 -58.5t-17 -56q48 29 103 50t112 21q35 0 70 -12t62.5 -34t44.5 -53t17 -69zM442 348q-24 -1 -54.5 -13t-61 -29.5t-58 -37.5t-45.5 -35q6 -20 14.5 -38.5t21.5 -32.5t30.5 -22t40.5 -8
q8 0 19 13.5t23 34t23.5 46t21 49.5t16.5 43.5t9 29.5z" />
    <glyph glyph-name="seven" unicode="7" horiz-adv-x="639" 
d="M654 722q0 -42 -14.5 -74t-36 -59t-46.5 -52.5t-47 -55.5q-25 -35 -48.5 -81.5t-42 -97t-30 -101t-11.5 -93.5q0 -21 7 -40.5t7 -40.5q0 -19 -8 -33.5t-20.5 -24t-29 -14.5t-33.5 -5q-31 0 -54.5 11t-39 30.5t-23 45t-7.5 54.5q0 62 19.5 134.5t50 144.5t68.5 137.5
t75 114.5q-58 -4 -112 -21t-109 -31l-18 -4t-19 -2q-20 0 -38.5 7t-32.5 19.5t-23 29.5t-9 38q0 26 14.5 45t35.5 33q22 13 56 25t75.5 21t86 16.5t87 12.5t80.5 7.5t64 2.5q25 0 48 -4t40.5 -15.5t27.5 -30.5t10 -49z" />
    <glyph glyph-name="eight" unicode="8" horiz-adv-x="774" 
d="M773 326q0 -52 -25 -100.5t-66.5 -90.5t-95 -76.5t-110 -59t-112 -38t-101.5 -13.5q-50 0 -91.5 12.5t-72.5 38t-48 64t-17 91.5q0 76 34.5 144.5t88.5 120.5q-30 28 -43 65.5t-13 77.5q0 64 27 117.5t71.5 92.5t102 61t118.5 22q47 0 84.5 -15t64 -42t41 -65t14.5 -84
q0 -65 -31 -125q37 -9 69.5 -26t57 -41.5t39 -57t14.5 -73.5zM429 653q0 9 -2.5 18.5t-14.5 9.5q-22 0 -42.5 -10.5t-37 -27.5t-26.5 -38.5t-10 -42.5q0 -15 4 -19.5t19 -4.5q24 0 44 9t35 25t23 37t8 44zM582 321q-15 14 -35 20.5t-40 6.5q-40 0 -89.5 -9.5t-92.5 -31
t-72.5 -56t-29.5 -84.5q0 -20 7 -24.5t26 -4.5q37 0 84.5 13.5t93 36t84 52t58.5 62.5q6 9 6 19z" />
    <glyph glyph-name="nine" unicode="9" horiz-adv-x="630" 
d="M605 342q0 -73 -21.5 -147.5t-64 -134.5t-105.5 -98t-145 -38q-30 0 -72 10t-80 29t-64.5 47.5t-26.5 66.5q0 18 6.5 36t18.5 32t28.5 22.5t36.5 8.5q21 0 39.5 -12t38 -26t40.5 -26t45 -12q18 0 35 12t31.5 29t25.5 36.5t18 33.5q-48 -27 -104 -27q-48 0 -88 25t-69 63
t-46.5 84.5t-20.5 89.5q-1 14 -1.5 28.5t-0.5 28.5q0 31 3 67t11.5 72t22.5 69.5t35.5 59t51.5 40.5t71 15q32 0 63 -9.5t60 -24.5q60 -32 103.5 -82t71 -110t40.5 -126.5t13 -131.5zM405 438q-6 27 -17 59.5t-28.5 61.5t-41.5 50.5t-55 26.5q-17 -32 -20.5 -67t-3.5 -71
v-24t2 -24q1 -11 7 -24t14.5 -25t18.5 -22t20 -15q11 1 26 9.5t30 20t27.5 24z" />
    <glyph glyph-name="colon" unicode=":" horiz-adv-x="440" 
d="M339 535q0 -33 -13 -62.5t-34.5 -51.5t-48.5 -35t-54 -13q-20 0 -39 8t-33 22.5t-22.5 35t-8.5 44.5q0 33 16 62.5t40.5 52t53.5 35.5t55 13q43 0 65.5 -31.5t22.5 -79.5zM351 168q0 -31 -14.5 -59t-37.5 -49t-53 -33t-60 -12q-22 0 -42.5 7.5t-36 21t-25 33t-9.5 42.5
q0 31 17.5 59t44.5 49t59 33.5t60 12.5q48 0 72.5 -30t24.5 -75z" />
    <glyph glyph-name="semicolon" unicode=";" horiz-adv-x="440" 
d="M336 530q0 -33 -13 -62.5t-34.5 -51.5t-48.5 -35t-54 -13q-20 0 -39 8t-33 22.5t-22.5 34.5t-8.5 45q0 32 16 61.5t40.5 52t53.5 36t55 13.5q43 0 65.5 -31.5t22.5 -79.5zM340 207q0 -12 -4.5 -37.5t-12.5 -58t-17 -68.5t-19 -67.5t-18.5 -56t-14.5 -34.5
q-13 -21 -32.5 -35t-45.5 -14q-18 0 -34.5 7.5t-29 20t-20 29.5t-7.5 35q0 15 4.5 25.5t9.5 23.5q6 14 11 45.5t9.5 67.5t7.5 70t6 53q6 42 33 65t69 23q21 0 40 -6.5t33.5 -18.5t23 -29.5t8.5 -39.5z" />
    <glyph glyph-name="less" unicode="&#x3c;" horiz-adv-x="536" 
d="M533 55q0 -19 -7 -37t-20 -31.5t-30 -22t-37 -8.5q-26 0 -52 14t-52 36t-51.5 49.5t-48.5 55t-44 52.5t-39 41q-14 13 -31.5 20.5t-34 15.5t-31 19t-21.5 31q-3 8 -4 16t-1 16q0 20 6.5 37.5t17.5 34.5q9 14 19.5 27.5t20.5 27.5q13 18 32.5 46t42 59.5t47 64t48.5 61
t46 50t40 30.5q24 13 48 13q19 0 36.5 -8t30 -21.5t20 -31.5t7.5 -37q0 -29 -13 -46t-35 -33q-28 -20 -52.5 -46.5t-46.5 -56.5t-41 -61t-36 -61q43 -69 93 -129.5t120 -104.5q24 -15 38.5 -33.5t14.5 -48.5z" />
    <glyph glyph-name="equal" unicode="=" horiz-adv-x="494" 
d="M424 471q0 -42 -26.5 -68.5t-68.5 -26.5q-45 0 -89.5 -3t-89.5 -15l-16 -4t-16 -2q-20 0 -37 8t-29 21.5t-19 31.5t-7 37q0 32 17.5 54.5t46.5 33.5q22 9 53 14.5t64 8.5t65.5 4t56.5 1q42 0 68.5 -26.5t26.5 -68.5zM466 232q0 -39 -28.5 -65t-73.5 -26q-48 0 -95.5 -3
t-95.5 -14q-8 -2 -16.5 -4t-17.5 -2q-21 0 -39.5 8t-31.5 21t-20.5 30t-7.5 35q0 31 18.5 52.5t50.5 32.5q24 8 57 13t68.5 8t69.5 4t60 1q45 0 73.5 -25.5t28.5 -65.5z" />
    <glyph glyph-name="greater" unicode="&#x3e;" horiz-adv-x="520" 
d="M498 399q0 -44 -21 -71.5t-52 -53.5q-27 -23 -53 -47.5t-49 -51.5t-42 -56.5t-31 -63.5q-12 -33 -33.5 -52t-58.5 -19q-20 0 -38 7t-32 19.5t-22 29.5t-8 38q0 39 25 82.5t60 86.5t71.5 82.5t60.5 69.5q-44 61 -100.5 108t-115.5 92q-20 15 -31.5 33t-11.5 44
q0 19 7.5 37.5t20.5 33t31 23t38 8.5q21 0 46 -13.5t52.5 -35t55 -48.5t53.5 -53.5t48 -49.5t38 -37q15 -14 30.5 -27.5t28.5 -30.5q14 -18 23.5 -39.5t9.5 -44.5z" />
    <glyph glyph-name="question" unicode="?" horiz-adv-x="674" 
d="M647 682q0 -32 -11.5 -63.5t-30 -61.5t-41 -56.5t-43.5 -48.5q63 -20 63 -87q0 -40 -26 -68.5t-67 -28.5q-17 0 -34 2t-34 2q-60 0 -117.5 -11.5t-115.5 -25.5q-7 -2 -13.5 -3t-13.5 -1q-39 0 -62 28t-23 65q0 39 19.5 62t54.5 37q18 7 47.5 22t63.5 35t68.5 43.5t63 48
t46 48.5t17.5 45q0 3 -2 9q-12 3 -23 3q-37 0 -74 -16.5t-71.5 -40.5t-66 -52t-57.5 -51q-13 -11 -27 -18.5t-32 -7.5q-20 0 -36 9.5t-27.5 24.5t-17.5 33.5t-6 36.5q0 23 8 41t22 35q31 37 68 71.5t80 60.5t90 42t97 16q39 0 85.5 -10t86 -32t66 -55.5t26.5 -81.5zM431 86
q0 -30 -10.5 -49t-28 -31t-40 -19.5t-46.5 -13.5q-20 -5 -43.5 -15t-43.5 -10q-21 0 -37 10t-26.5 26t-16 35.5t-5.5 37.5q0 29 9.5 50t26.5 36t39 24.5t48 15.5q19 5 39.5 9.5t39.5 4.5q22 0 39.5 -10t30 -25.5t19 -35.5t6.5 -40z" />
    <glyph glyph-name="at" unicode="@" horiz-adv-x="793" 
d="M757 118q0 -20 -9 -35t-23.5 -27t-31.5 -21t-32 -17q-66 -34 -145.5 -50.5t-154.5 -16.5q-72 0 -132 20.5t-103.5 60t-67.5 97.5t-24 132q0 62 18.5 127t52 126t80 115t101.5 94t117.5 63.5t127.5 23.5q54 0 96 -23t71 -60.5t44 -85.5t15 -97q0 -78 -20 -145t-69 -128
q-22 -27 -55.5 -52.5t-72 -44.5t-79 -30.5t-75.5 -11.5t-65 8.5t-52 26t-34 45t-12 65.5q0 48 16.5 95t44 90t62.5 80.5t72 64.5q16 12 34 22.5t38 10.5q29 0 49.5 -11t33.5 -29t20 -41.5t10 -48.5q1 8 1 17v17q0 16 -4 35.5t-12.5 37t-22.5 29t-34 11.5q-44 0 -86.5 -18
t-81 -48.5t-70.5 -70.5t-55.5 -84t-37 -89.5t-13.5 -86.5t13 -70.5t36 -48.5t55 -28t70 -9q52 0 104 11.5t96 29.5q37 16 66 32.5t54 16.5q32 0 54 -22t22 -54zM470 451q-15 -16 -31.5 -36.5t-30 -43.5t-22.5 -47t-10 -47q4 -2 14 -2q7 0 17.5 3t21.5 7t21.5 8.5t16.5 7.5
q0 35 0.5 75t2.5 75z" />
    <glyph glyph-name="A" unicode="A" 
d="M678 104q0 -19 -8 -36t-21 -29.5t-30 -19.5t-36 -7q-27 0 -48 15t-37.5 37t-30 47t-25.5 45q-54 -5 -114.5 -14t-113.5 -20q-3 -17 -3.5 -29.5t-1 -24t-1 -24t-3.5 -29.5q-7 -39 -30.5 -66t-66.5 -27q-46 0 -68 29.5t-22 72.5q0 56 8.5 120t23.5 131.5t35.5 136
t44.5 133.5t50.5 124.5t53.5 107.5q13 23 33 40.5t49 17.5q17 0 30.5 -6.5t24 -17t18 -24.5t12.5 -28q10 -27 18.5 -55t18.5 -55q12 -34 26 -71.5t29 -76t30.5 -75.5t30.5 -69q45 -4 73 -27t28 -71q0 -34 -18 -59q13 -21 27 -46t14 -50zM346 340q-5 12 -11 28t-12 33
t-11.5 33.5l-9.5 28.5q-4 -13 -9 -30.5t-11 -36.5t-11 -36.5t-9 -30.5z" />
    <glyph glyph-name="B" unicode="B" horiz-adv-x="777" 
d="M774 298q0 -34 -14 -64.5t-36 -56.5t-49 -48t-53 -38q-36 -23 -91 -49t-115 -48t-118 -37t-100 -15q-31 0 -54 8t-43 33q-11 14 -18.5 32.5t-12.5 39t-7.5 40.5t-3.5 38q-3 38 -3 75t-3 75q-8 99 -10.5 196t-2.5 197q0 26 22 47t56.5 37.5t77 29t83.5 20.5t76 12t55 4
q37 0 75 -9t68 -28.5t49 -50.5t19 -74q0 -52 -24.5 -97t-58.5 -82q38 -6 79.5 -18t76.5 -34t57.5 -55t22.5 -80zM419 636h-9q-46 0 -90.5 -10.5t-89.5 -22.5q0 -29 0.5 -57t1.5 -57q21 13 48 29.5t53.5 36t49 40t36.5 41.5zM569 289q-19 8 -44.5 12t-52.5 6t-53.5 2.5
t-47.5 0.5q-17 0 -34.5 -0.5t-34.5 -1.5l-60 -33q2 -33 2 -65.5t4 -65.5q33 9 77.5 25t89.5 35.5t86 41.5t68 43z" />
    <glyph glyph-name="C" unicode="C" horiz-adv-x="573" 
d="M703 172q0 -32 -16 -51.5t-43 -33.5q-36 -18 -81 -32.5t-92.5 -25.5t-94.5 -17t-87 -6q-72 0 -124 21.5t-86.5 60.5t-51 94.5t-16.5 123.5q0 34 8.5 85.5t24.5 109t40 114.5t54.5 103t67.5 74.5t80 28.5q52 0 97 -19t77 -52.5t50.5 -78.5t18.5 -97q0 -41 -27 -67t-68 -26
q-31 0 -48.5 10t-27 25.5t-14 33.5t-8.5 34.5t-10.5 29t-20.5 15.5q-17 -25 -35 -67.5t-33.5 -89.5t-25.5 -91.5t-10 -74.5q0 -28 2 -49t10.5 -34.5t26 -20t49.5 -6.5q72 0 144 20q16 4 41 13t51 18t49.5 16t35.5 7q20 0 37 -8t29.5 -21.5t19.5 -31.5t7 -37z" />
    <glyph glyph-name="D" unicode="D" horiz-adv-x="705" 
d="M688 582q0 -20 -4 -39t-10 -38q-24 -77 -56.5 -143t-74.5 -124.5t-94 -111.5t-114 -103q-14 -11 -33 -26t-40 -28.5t-42 -23t-38 -9.5q-18 0 -32 7.5t-24.5 19t-18.5 26t-13 29.5q-14 40 -23.5 100t-14.5 125t-7 127t-2 106q0 78 3 155q-8 14 -13 28.5t-5 30.5
q0 34 18 56t44.5 35.5t58 19t58.5 5.5q37 0 86.5 -2.5t102.5 -10t104.5 -22.5t92.5 -40t66 -61.5t25 -87.5zM490 537q0 29 -21 44.5t-50 22.5t-60 8t-51 1q-18 0 -35.5 -0.5t-35.5 -0.5q-1 -34 -1.5 -68t-0.5 -68q0 -70 3 -140t11 -140q19 16 44.5 40.5t52 53.5t52.5 61
t46.5 64.5t33 63.5t12.5 58z" />
    <glyph glyph-name="E" unicode="E" horiz-adv-x="671" 
d="M651 133q0 -30 -16.5 -49t-42.5 -31q-42 -20 -87 -34t-90 -29q-47 -16 -90.5 -35t-88.5 -39q-12 -5 -24.5 -9t-26.5 -4q-43 0 -65.5 28t-29.5 66q-22 111 -32.5 224t-10.5 226q0 17 1 45t3 60.5t7 66.5t12 63.5t18 52.5t26 33q24 16 63 25.5t81.5 14.5t84 6.5t71.5 1.5
q29 0 57 -3.5t50 -14.5t35.5 -32.5t13.5 -57.5t-15 -53.5t-37.5 -24t-49.5 -6t-52 0.5q-42 0 -84 -1.5t-82 -12.5q-5 -27 -7.5 -54t-3.5 -55q79 17 159.5 28t161.5 11q41 0 65 -27t24 -67q0 -42 -23.5 -66.5t-63.5 -31.5q-23 -4 -45 -5.5t-45 -3.5q-59 -7 -116 -17t-114 -26
q3 -39 7.5 -77.5t9.5 -76.5q27 11 65 25.5t78.5 27.5t78.5 22t67 9q20 0 38.5 -7t33 -19.5t23 -29.5t8.5 -38z" />
    <glyph glyph-name="F" unicode="F" horiz-adv-x="681" 
d="M679 709q0 -20 -5.5 -38t-17 -32.5t-27.5 -23t-37 -8.5q-10 0 -19 0.5t-19 0.5q-77 0 -153 -10t-153 -15v-31q0 -28 1 -56l2 -56q68 20 137.5 27.5t139.5 7.5q38 0 61 -23t23 -61q0 -40 -23.5 -65.5t-60.5 -35.5q-63 -17 -126 -31.5t-125 -37.5v-36t1 -38.5t4 -38
t9 -33.5q4 -11 6.5 -20t2.5 -20q0 -20 -6.5 -40t-19 -36t-30 -26t-39.5 -10q-26 0 -44.5 14t-32 35t-21.5 45t-12 45q-11 61 -13.5 122.5t-5.5 123.5q-6 141 -3 283q-20 17 -29 42.5t-9 51.5q0 37 17 64t55 36q48 11 102.5 17t110.5 9t111.5 3.5t105.5 0.5q29 0 54.5 -3.5
t45 -14.5t31 -32t11.5 -56z" />
    <glyph glyph-name="G" unicode="G" horiz-adv-x="740" 
d="M734 387q0 -16 -9.5 -49t-22.5 -69.5t-26.5 -69t-22.5 -47.5q-21 -36 -52.5 -76t-70 -73t-82.5 -54.5t-89 -21.5q-57 0 -104 20t-85 53.5t-65.5 78.5t-46.5 95t-28 102.5t-9 101.5q0 46 6 100.5t20 108.5t37 104t56.5 88.5t78.5 61.5t104 23q45 0 89 -18t78 -49t55 -72.5
t21 -87.5q0 -40 -22 -63.5t-60 -23.5q-29 0 -45.5 5.5t-27 15.5t-18 24.5t-18.5 32.5q-10 17 -26.5 31t-37.5 14q-22 0 -37.5 -17.5t-26.5 -45t-18 -61.5t-11 -67t-5.5 -61t-1.5 -43q0 -29 9 -73.5t27.5 -86t46 -71.5t65.5 -30q5 0 9 2.5t8 4.5q54 33 86 82t52 107
q-23 -2 -42.5 -5t-38.5 -7t-38.5 -7.5t-41.5 -6.5q-4 -1 -12 -1q-41 0 -67.5 28.5t-26.5 68.5q0 41 22.5 63t60.5 30q66 14 125 21t126 7q30 0 57.5 -5t49 -18t34 -36t12.5 -58z" />
    <glyph glyph-name="H" unicode="H" horiz-adv-x="656" 
d="M635 324q0 -22 -9 -42.5t-27 -34.5q-3 -120 -3 -239q0 -41 -26 -67.5t-67 -26.5q-43 0 -63 20.5t-27 51t-5.5 65t1.5 63.5v57.5t1 57.5q-45 -3 -88.5 -8t-88.5 -11v-36q0 -34 2 -66.5t9 -65.5q3 -14 3 -27q0 -20 -8 -36.5t-21 -28.5t-30.5 -19t-36.5 -7q-34 0 -55.5 18.5
t-32.5 49.5q-10 30 -14.5 80t-5.5 105.5t-0.5 108t0.5 87.5q0 86 3 173.5t20 172.5q8 36 31 58t61 22q39 0 67 -26t28 -66q0 -10 -1 -15q-9 -73 -14 -146t-6 -147q44 5 87.5 9.5t88.5 7.5q-6 85 -17.5 169t-11.5 170q0 42 25 70t69 28q40 0 63 -23t29 -61q5 -26 6.5 -52
t3.5 -52q6 -66 11 -131.5t9 -131.5q20 -13 30 -34t10 -44z" />
    <glyph glyph-name="I" unicode="I" horiz-adv-x="743" 
d="M710 135q0 -28 -14.5 -49t-38.5 -34q-50 -27 -110 -44.5t-123 -27t-126.5 -13.5t-119.5 -4q-42 0 -68.5 26.5t-26.5 68.5q0 37 15.5 57t39.5 29t53 10.5t56 1.5q-12 75 -15 150.5t-3 151.5q0 32 1.5 62.5t3.5 61.5q-32 -7 -68 -17t-69 -10q-17 0 -33.5 5.5t-29.5 15.5
t-21 24.5t-8 33.5q0 33 32.5 58.5t83 44.5t112.5 31.5t121 20t108 11t74 3.5q26 0 50 -3.5t42.5 -13.5t29.5 -29t11 -50q0 -30 -10 -48.5t-27 -28.5t-39.5 -13.5t-47.5 -3.5q-30 0 -59.5 -3t-59.5 -5q-4 -33 -5.5 -66t-1.5 -66q0 -75 2 -148.5t8 -147.5q38 8 73.5 19.5
t70.5 25.5q11 5 21.5 8t22.5 3q19 0 36 -8t30 -21.5t20 -31.5t7 -37z" />
    <glyph glyph-name="J" unicode="J" horiz-adv-x="676" 
d="M675 713q0 -42 -25 -71.5t-69 -29.5q-24 0 -48 -0.5t-47 -1.5q6 -81 11.5 -162t5.5 -162q0 -62 -6.5 -122.5t-30 -108t-68.5 -77t-123 -29.5q-34 0 -66 15t-61 38t-54 50.5t-43 53.5q-15 21 -29 45t-14 51q0 20 8.5 37t22 29t31.5 19t37 7q24 0 38.5 -7.5t24.5 -19.5
t18.5 -27t20.5 -31q3 -4 12.5 -15.5t20 -23.5t20.5 -21.5t13 -9.5q15 0 23 7.5t11.5 19t4.5 24t1 23.5q0 96 -5 190.5t-13 189.5q-32 -6 -67 -15t-68 -9q-37 0 -62.5 25.5t-25.5 62.5q0 35 20.5 56t52.5 31q47 15 102 28t112 22.5t113.5 15.5t105.5 6q44 0 69.5 -30.5
t25.5 -72.5z" />
    <glyph glyph-name="K" unicode="K" horiz-adv-x="699" 
d="M766 259q0 -40 -26.5 -64t-65.5 -24q-8 0 -15 1.5t-15 3.5q-56 14 -112 17t-113 3q-39 0 -77.5 -0.5t-77.5 -5.5q3 -13 9.5 -31.5t12.5 -38.5t10.5 -38t4.5 -29q0 -20 -8 -36.5t-21.5 -29t-31.5 -19.5t-37 -7q-30 0 -56 16t-39 43q-21 44 -31.5 91.5t-15.5 96.5t-5.5 98
t-0.5 97q0 21 -1 57t0.5 78t6.5 85t17 78.5t32 57.5t51 22q46 0 71 -28t25 -73t-6 -90t-6 -90v-52q49 59 95 118.5t88 123.5q18 28 35.5 56t41.5 51q14 13 30.5 21.5t36.5 8.5q19 0 36.5 -8t31 -21.5t21.5 -31t8 -36.5q0 -20 -8 -35t-20 -30q-23 -28 -41 -58t-40 -59
q-31 -41 -61.5 -81.5t-61.5 -81.5q27 -1 62 -3.5t71.5 -7t70.5 -11t59 -15.5q31 -11 48.5 -33t17.5 -56z" />
    <glyph glyph-name="L" unicode="L" horiz-adv-x="593" 
d="M580 171q0 -30 -16 -47t-42 -27q-37 -14 -75 -24t-76 -23q-27 -9 -60.5 -22.5t-68 -26.5t-68 -22t-60.5 -9q-30 0 -44.5 18.5t-20 44t-5.5 53.5v48q0 45 -1.5 89t-1.5 89v340q0 27 2.5 58.5t12.5 58.5t30.5 45.5t56.5 18.5q40 0 68.5 -26t28.5 -67q0 -63 -9.5 -125
t-9.5 -125q0 -72 4 -142.5t7 -142.5q21 7 53.5 17.5t67 19.5t67.5 15.5t54 6.5q20 0 39 -6.5t34 -18.5t24 -29t9 -39z" />
    <glyph glyph-name="M" unicode="M" horiz-adv-x="818" 
d="M789 73q0 -19 -6 -37t-17.5 -32t-27.5 -22.5t-37 -8.5q-27 0 -48 14.5t-35 36.5q-14 21 -25.5 61.5t-20.5 86t-15 88.5t-9 70q-12 -19 -30.5 -45t-40 -49.5t-46 -40t-49.5 -16.5q-22 0 -44 11t-41.5 27.5t-36.5 35.5t-29 35l1 -105q0 -35 2.5 -69t7.5 -68q1 -5 1.5 -10
t0.5 -10q0 -20 -8 -37t-21 -29t-31 -19t-37 -7q-42 0 -63.5 25t-30.5 60.5t-10 75t-1 68.5q0 106 5 210t21 209q-11 26 -17.5 56.5t-6.5 59.5q0 38 23.5 65t63.5 27q38 0 58.5 -19.5t32.5 -52.5q12 -32 30.5 -75t41 -86.5t47 -82.5t47.5 -63q31 30 56 75.5t45 95.5t37.5 100
t34.5 91q13 31 35 52.5t58 21.5q24 0 41 -9t28 -24.5t16.5 -35.5t5.5 -41q0 -65 -7 -128t-7 -128q0 -48 5.5 -95t13.5 -93.5t18 -93t18 -93.5q3 -17 3 -33z" />
    <glyph glyph-name="N" unicode="N" horiz-adv-x="663" 
d="M627 64q0 -39 -21.5 -69t-63.5 -30q-29 0 -52.5 14.5t-42.5 34.5q-52 55 -101 112t-89 122q1 -32 1.5 -63t0.5 -63q0 -25 -2.5 -48.5t-11.5 -42t-27 -29.5t-49 -11q-45 0 -72.5 27t-27.5 72q0 23 1.5 45.5t1.5 45.5q0 75 -4.5 149.5t-11.5 149.5q-2 15 -3.5 34.5t-2.5 40
t-2 40t-1 34.5q0 20 7 39t20 33.5t31 23.5t39 9q29 0 49.5 -15.5t34.5 -40.5q23 -41 43.5 -82.5t42.5 -82.5t46 -80.5t54 -75.5q-6 72 -9.5 143t-3.5 143q0 29 3.5 63t15 63t34 48.5t60.5 19.5q42 0 66 -26t24 -67q0 -9 -1 -14q-9 -74 -9 -148q0 -88 4.5 -173.5t12.5 -172.5
q5 -43 10.5 -85.5t5.5 -86.5z" />
    <glyph glyph-name="O" unicode="O" horiz-adv-x="636" 
d="M623 373q0 -97 -38.5 -172.5t-114.5 -133.5q-25 -19 -55.5 -39t-63.5 -36.5t-67 -27t-66 -10.5q-53 0 -92.5 26.5t-65 67.5t-38 90t-12.5 95q0 64 13.5 129.5t38 128t60 119t80.5 102.5q10 11 24.5 24t30.5 24.5t33 19.5t33 8q28 0 61.5 -20t65.5 -48.5t59 -60t42 -53.5
q34 -49 53 -111t19 -122zM438 402q0 21 -11.5 45.5t-28.5 48t-36 44.5t-34 35q-26 -30 -51 -68.5t-44.5 -81t-31.5 -86.5t-12 -84q0 -11 0.5 -27.5t4.5 -32.5t12.5 -27t24.5 -11q13 0 29.5 5t33 13t31.5 17t25 17q44 33 66 86t22 107z" />
    <glyph glyph-name="P" unicode="P" horiz-adv-x="636" 
d="M631 644q0 -58 -19.5 -106t-52 -88.5t-73.5 -74.5t-84 -65q-42 -29 -82 -59.5t-82 -59.5q3 -33 8.5 -64t16.5 -63q3 -9 5 -17t2 -18q0 -20 -8.5 -37.5t-22 -31t-32 -21.5t-37.5 -8q-24 0 -41 10t-29 25.5t-20 35.5t-12 40q-20 86 -26 174t-6 176q0 64 3.5 128.5
t8.5 128.5q-22 25 -22 61q0 43 21 67.5t53 36.5t69.5 15t70.5 3q31 0 72.5 -1.5t85 -8t85.5 -18.5t75 -33t53 -52t20 -75zM428 606q-47 18 -96 23t-99 5q-5 -47 -10.5 -93t-5.5 -94v-30q22 16 54.5 38t64 47t57 51.5t35.5 52.5z" />
    <glyph glyph-name="Q" unicode="Q" horiz-adv-x="702" 
d="M682 373q0 -62 -20 -119.5t-58 -105.5q9 -16 20.5 -38t22 -46t18 -47t7.5 -41q0 -22 -8.5 -39.5t-22.5 -29.5t-32.5 -18.5t-39.5 -6.5q-32 0 -56 14.5t-38 43.5q-4 8 -4.5 15t-2.5 15q-5 13 -12.5 26t-14.5 25q-46 -26 -97 -46.5t-105 -20.5q-55 0 -97.5 25t-71 65
t-43.5 89.5t-15 99.5q0 66 15 132.5t43 128.5t66.5 118t86.5 101q12 11 27.5 24t33 24.5t35.5 19t35 7.5q33 0 69 -19t69.5 -47t62.5 -59.5t48 -55.5q36 -48 57.5 -111t21.5 -123zM483 402q0 21 -13.5 46t-33 49t-40.5 45t-36 34q-29 -29 -56.5 -67t-49.5 -81t-35.5 -87.5
t-13.5 -85.5q0 -12 1 -29t5.5 -32t14 -26t26.5 -11q22 0 45.5 8.5t43.5 18.5q-13 15 -28 34.5t-28.5 41.5t-22.5 44.5t-9 42.5q0 42 26 70t65 28q26 0 44 -10.5t32 -26.5t26.5 -35t27.5 -35q9 31 9 64z" />
    <glyph glyph-name="R" unicode="R" horiz-adv-x="667" 
d="M649 175q0 -20 -8 -36.5t-21.5 -27.5t-31.5 -17t-37 -6t-55.5 7.5t-77.5 17t-79.5 19.5t-62.5 15q3 -35 6 -70.5t3 -70.5q0 -42 -29 -64.5t-68 -22.5q-43 0 -70.5 23t-33.5 65q-3 20 -3 41.5t-2 41.5q-8 124 -12 251t-4 252v44.5t3 44.5q3 26 25.5 46t55.5 34.5t73.5 25
t79.5 16.5t73 9t55 3q31 0 67.5 -8t68 -25.5t52 -44.5t20.5 -65q0 -63 -21.5 -112.5t-56.5 -91t-79.5 -76.5t-90.5 -68q46 -11 91 -24t90 -30q33 -12 56.5 -35t23.5 -61zM433 639q-42 -1 -85 -5.5t-83 -18.5q0 -18 -0.5 -41.5t-0.5 -41.5v-66q21 15 46.5 35t49.5 42.5t44 47
t29 48.5z" />
    <glyph glyph-name="S" unicode="S" 
d="M677 238q0 -47 -25 -98.5t-65 -94.5t-89.5 -71t-97.5 -28q-29 0 -66 8.5t-76 24.5t-76.5 38t-67 48.5t-47.5 57.5t-18 64q0 17 2 33t8.5 28t19 19t33.5 7q22 0 43 -13q8 -5 15 -11.5t15 -12.5q16 -14 40 -29.5t50.5 -29t53 -22t48.5 -8.5q19 0 39.5 12.5t37 31t27 40.5
t10.5 41q0 10 -5.5 13t-13.5 6q-12 5 -27.5 8t-32 5.5t-32.5 3.5t-29 3q-53 5 -106 12t-103 27q-33 13 -53.5 32t-32 43t-15.5 53t-4 61q0 28 12 64t32.5 73t48 72t58 62.5t62.5 44.5t63 17q44 0 91 -16t86 -45t64 -69.5t25 -89.5q0 -18 -5.5 -36.5t-16 -33t-26.5 -23.5
t-36 -9q-30 0 -50 19t-37 42t-36 42t-49 19q-15 0 -32 -12.5t-31 -30t-23.5 -37t-9.5 -33.5q0 -11 9 -18.5t21.5 -12.5t25.5 -7.5t21 -4.5q32 -7 63.5 -9.5t63.5 -7.5q63 -9 109.5 -26t76.5 -47t45 -76t15 -113z" />
    <glyph glyph-name="T" unicode="T" horiz-adv-x="665" 
d="M678 739q0 -22 -7 -43t-19.5 -37.5t-31 -26.5t-42.5 -10q-20 0 -39 1t-39 1q-17 0 -32.5 -0.5t-32.5 -1.5v-30q0 -143 8.5 -284t24.5 -284q0 -3 0.5 -5.5t0.5 -5.5q0 -23 -9.5 -41.5t-25 -32t-36 -21t-41.5 -7.5q-38 0 -62 20.5t-31 58.5q-14 77 -14.5 160t-0.5 161
q0 75 2 150t6 150q-32 -2 -62.5 -5t-61.5 -11q-8 -2 -16.5 -4t-16.5 -2q-38 0 -64 26t-26 64q0 32 18 52.5t47 31.5q51 19 109 34t118 25t120 15t114 5q29 0 54.5 -3t45 -13.5t31 -31t11.5 -55.5z" />
    <glyph glyph-name="U" unicode="U" horiz-adv-x="647" 
d="M613 395q0 -74 -15.5 -136.5t-49.5 -127.5q-20 -38 -47 -71t-60 -58t-72.5 -39.5t-83.5 -14.5q-47 0 -84 27.5t-65 72t-47 100.5t-31.5 112.5t-18 107.5t-5.5 87q0 30 2 70.5t7 82t14 80t23 64.5t34 41t50 15q19 0 37 -7t31.5 -20t22 -30t8.5 -37q0 -11 -2.5 -20.5
t-6.5 -19.5q-10 -28 -15.5 -60t-8.5 -65.5t-4 -66.5t-1 -63q0 -14 0.5 -38.5t2.5 -54t6.5 -60t13 -55.5t22 -41t33.5 -16q13 0 24.5 6.5t21.5 16.5t17.5 21.5t13.5 21.5q44 78 44 169q0 38 -2.5 70t-8 62.5t-15.5 61t-25 65.5q-5 12 -8.5 22.5t-3.5 23.5q0 19 8 36t21.5 30
t31.5 20t37 7q30 0 53.5 -23t40.5 -59t28.5 -80.5t18.5 -88t10 -81.5t3 -60z" />
    <glyph glyph-name="V" unicode="V" horiz-adv-x="564" 
d="M541 689v-10t-1 -10q-22 -131 -49 -260t-41 -260q-3 -29 -4.5 -57t-4.5 -57q-2 -19 -5.5 -37t-12 -32.5t-23 -23t-37.5 -8.5q-26 0 -48.5 13t-39.5 33q-27 31 -55.5 82.5t-56 113.5t-53 130.5t-47 134.5t-38 124.5t-25.5 101.5q-3 10 -3 22q0 21 8.5 38t22.5 29t32 19
t38 7q39 0 56 -20.5t28 -53.5q11 -35 19.5 -69.5t19.5 -69.5q17 -56 36 -111t39 -110q14 90 29.5 179.5t41.5 177.5q5 17 11.5 31t16 24t23.5 15.5t34 5.5q41 0 65 -26t24 -66z" />
    <glyph glyph-name="W" unicode="W" horiz-adv-x="740" 
d="M740 741q0 -25 -12.5 -50t-20.5 -48q-20 -54 -33.5 -117t-22.5 -128.5t-13 -130t-4 -121.5q0 -27 2.5 -54.5t2.5 -54.5q0 -20 -6 -38t-18 -32t-28.5 -22.5t-37.5 -8.5q-32 0 -54 18.5t-37 44.5q-14 26 -28 60t-27 70.5t-25 71.5t-24 62q-4 -21 -8 -50.5t-7.5 -60.5
t-7 -60.5t-7.5 -50.5q-3 -18 -9 -34.5t-16.5 -29.5t-25.5 -21t-35 -8q-26 0 -47.5 14t-36.5 34q-42 55 -68 128t-40.5 152.5t-20 158.5t-5.5 147q0 25 3 50.5t13 46t29 33t51 12.5q38 0 57.5 -14t27.5 -36.5t8.5 -50.5t0.5 -56q0 -14 0.5 -35t1.5 -44t2 -44.5t3 -34.5
q5 21 10.5 49.5t11.5 58.5t12.5 58t14.5 48q12 31 34.5 54t58.5 23q22 0 38.5 -8.5t27.5 -22.5t17.5 -32.5t8.5 -37.5q2 -17 4 -41t4 -50t5 -50.5t6 -40.5q6 33 14.5 83.5t19.5 104t25 102t31 76.5q14 23 33 37.5t48 14.5q19 0 37 -7t31.5 -20t22 -30t8.5 -37z" />
    <glyph glyph-name="X" unicode="X" horiz-adv-x="616" 
d="M613 55q0 -19 -7 -37t-20 -31.5t-30 -22t-37 -8.5q-32 0 -70.5 26t-76.5 61.5t-70.5 73t-50.5 61.5q-10 -25 -16.5 -50t-13.5 -51q-9 -37 -32 -59.5t-63 -22.5q-45 0 -68.5 32t-23.5 74q0 27 10 63t25 73t31.5 72t29.5 60q-14 28 -31.5 66t-32.5 78.5t-25 80t-10 70.5
q0 41 28.5 67t68.5 26q41 0 63 -22t30 -60l12 -52t15 -52q15 22 42 56t59 66.5t65.5 56t62.5 23.5q19 0 36.5 -8t30 -21.5t20 -31.5t7.5 -37q0 -29 -13 -46t-35 -33q-57 -42 -99 -103t-77 -122q43 -70 92.5 -129.5t120.5 -104.5q24 -15 38.5 -33.5t14.5 -48.5z" />
    <glyph glyph-name="Y" unicode="Y" horiz-adv-x="622" 
d="M601 736q0 -13 -7 -33.5t-16 -42.5t-18.5 -43t-15.5 -34q-58 -142 -95.5 -287t-59.5 -296q-5 -34 -22.5 -56.5t-55.5 -22.5q-27 0 -47.5 11.5t-34.5 30t-21 42.5t-7 48q0 57 16 110.5t33 107.5q-22 13 -47 38t-49.5 57t-46.5 68.5t-39.5 73t-27.5 70t-10 58.5
q0 17 5.5 39.5t16 42t26.5 33t37 13.5q26 0 40 -16.5t23 -38.5q10 -27 24 -59t31 -62.5t37.5 -57.5t44.5 -43q15 45 30.5 88.5t31.5 87.5q8 23 21 51.5t31 53.5t41.5 42t52.5 17q40 0 59 -27t19 -64z" />
    <glyph glyph-name="Z" unicode="Z" horiz-adv-x="708" 
d="M701 208q0 -26 -10.5 -45t-27.5 -33t-38 -23.5t-43 -14.5q-47 -12 -96 -23t-97.5 -25.5t-95 -33t-87.5 -44.5q-15 -10 -29 -15.5t-33 -5.5q-20 0 -38.5 7.5t-33 21t-23 31t-8.5 38.5q0 17 5.5 30.5t14.5 27.5q16 23 32 46.5t30 47.5q42 72 77 146t77 145q17 29 35 58.5
t37 58.5q-18 -2 -41 -5.5t-46 -9t-43.5 -13.5t-35.5 -20q-14 -11 -25.5 -18.5t-31.5 -7.5q-19 0 -35 8t-28 21.5t-18.5 31t-6.5 35.5q0 37 23.5 63.5t61 44.5t84 29t92.5 18t86.5 12t66.5 10q31 7 60.5 17t61.5 10q35 0 60 -23t25 -59q0 -22 -9 -40.5t-23 -35.5
q-22 -27 -44 -52.5t-43 -53.5q-63 -85 -115 -174.5t-99 -183.5q31 8 70.5 22t80 27.5t78.5 23t68 9.5q34 0 56 -24t22 -57z" />
    <glyph glyph-name="bracketleft" unicode="[" horiz-adv-x="526" 
d="M509 99q0 -28 -20 -50t-51.5 -39t-71 -29t-78 -19.5t-72.5 -11t-55 -3.5q-40 0 -63 28t-23 66q0 40 25 71q-18 85 -24 166.5t-6 167.5q0 45 1 88.5t6 88.5q-7 14 -11 29.5t-4 31.5q0 42 22.5 66.5t56 37t71.5 16t69 3.5q26 0 57.5 -2.5t59.5 -12.5t46.5 -30t18.5 -55
q0 -41 -27 -70t-69 -29q-26 0 -50 3t-50 4q-5 -39 -6 -78t-1 -78q0 -45 0.5 -82t3 -72t8 -71t15.5 -81q12 4 29 11t35 14t34.5 12.5t27.5 5.5q19 0 36.5 -8t30.5 -21.5t21 -31t8 -36.5z" />
    <glyph glyph-name="backslash" unicode="\" horiz-adv-x="681" 
d="M651 43q0 -41 -27.5 -61.5t-65.5 -20.5q-27 0 -47 13.5t-34 35.5q-12 18 -20.5 37t-17.5 39q-57 121 -128.5 231t-159.5 210q-23 26 -48 50.5t-49 50.5q-14 15 -22.5 31.5t-8.5 37.5q0 20 8 38t22 32t32 22t38 8q21 0 44 -14t44.5 -33.5t40 -40.5t31.5 -36
q96 -106 171.5 -219t137.5 -242l19.5 -39t19 -43t14.5 -44t6 -43z" />
    <glyph glyph-name="bracketright" unicode="]" horiz-adv-x="531" 
d="M505 40q0 -29 -13 -46t-41 -25q-58 -17 -122.5 -19t-124.5 -2q-46 0 -78.5 22t-32.5 73q0 36 15.5 56t39.5 29.5t53 11t56 1.5q-17 88 -22.5 175.5t-5.5 176.5q0 32 1.5 63t3.5 63q-18 -2 -33 -7t-28.5 -10.5t-25.5 -9.5t-24 -4q-20 0 -38 8.5t-31.5 22.5t-21.5 32.5
t-8 38.5q0 27 21.5 47.5t55 35.5t75 24.5t82 15t75 7.5t54.5 2q38 0 60.5 -22.5t22.5 -60.5q0 -26 -11 -55t-32 -46q-5 -34 -6.5 -67t-1.5 -67q0 -89 5 -177t24 -175q13 -7 23.5 -20t18 -29t11.5 -32.5t4 -30.5z" />
    <glyph glyph-name="asciicircum" unicode="^" horiz-adv-x="581" 
d="M542 370q0 -18 -6.5 -35.5t-17.5 -31t-27 -21.5t-35 -8q-27 0 -57 17.5t-58.5 42t-53.5 52t-40 47.5q-13 -22 -21.5 -44.5t-14.5 -47.5q-9 -37 -32 -59.5t-63 -22.5q-45 0 -68.5 32t-23.5 74q0 29 10.5 66t27 73.5t36.5 70t38 56.5q20 26 47 43t60 17q32 0 61 -16.5
t47 -42.5q19 -28 34 -50.5t30.5 -42.5t34 -40t45.5 -42q21 -17 34 -37.5t13 -49.5z" />
    <glyph glyph-name="underscore" unicode="_" horiz-adv-x="703" 
d="M679 106q0 -42 -26.5 -68.5t-68.5 -26.5q-41 0 -99 -2.5t-119 -8.5t-116.5 -16t-91.5 -25q-11 -5 -20.5 -8.5t-21.5 -3.5q-19 0 -34 8.5t-25.5 22t-16 30.5t-5.5 34q0 32 15 55t42 39q25 15 62.5 25.5t81 17.5t91 11.5t93 7t86 3t70.5 0.5q45 0 74 -24t29 -71z" />
    <glyph glyph-name="grave" unicode="`" horiz-adv-x="406" 
d="M385 645q0 -38 -26 -54.5t-60 -16.5q-21 0 -51.5 8t-61 20.5t-58.5 27t-44 28.5q-17 14 -26.5 30.5t-9.5 38.5q0 18 7 34t19 28.5t28 20t34 7.5q14 0 27 -4.5t25 -12.5q34 -22 65.5 -40.5t69.5 -32.5q29 -11 45.5 -30.5t16.5 -51.5z" />
    <glyph glyph-name="a" unicode="a" horiz-adv-x="733" 
d="M711 97q0 -18 -6 -34t-17.5 -28t-27 -19t-33.5 -7q-32 0 -56.5 23.5t-43.5 56t-33.5 67.5t-26.5 58q-67 -7 -135 -28t-131 -44q-6 -23 -12 -53t-17 -57t-30 -46t-51 -19q-19 0 -35.5 7.5t-29 20t-19.5 29.5t-7 36q0 27 10 70.5t26.5 94.5t37.5 106t42 106t40 94t32 70
q6 13 16 35.5t22 47.5t26.5 51t30.5 47t33 34t34 13q14 0 27 -6t24.5 -15.5t21 -21t15.5 -23.5q15 -29 26 -60.5t24 -62.5q24 -60 49 -118.5t51 -117.5q23 -2 43 -6.5t35 -15t24 -28t9 -43.5q0 -40 -24 -68q4 -15 10 -34t12 -39.5t10 -39.5t4 -33zM387 387q-14 30 -26 60.5
t-26 61.5q-17 -35 -31.5 -70t-28.5 -70q57 11 112 18z" />
    <glyph glyph-name="b" unicode="b" horiz-adv-x="806" 
d="M792 396q0 -43 -24 -84t-63 -79.5t-88.5 -73t-99.5 -63.5t-97 -51.5t-81 -37.5q-14 -6 -35.5 -15.5t-44 -18.5t-43.5 -15t-35 -6q-28 0 -47.5 15.5t-33 40t-21.5 55.5t-12 62.5t-5.5 59.5t-1.5 48q0 96 1.5 190.5t10.5 190.5q-16 14 -24.5 34.5t-8.5 41.5q0 32 17.5 51
t46.5 29q30 10 64 18t68.5 14t69 9t66.5 3q38 0 82 -2.5t81.5 -16t62 -42.5t24.5 -81q0 -28 -12 -54.5t-28 -49.5q36 -2 73.5 -13.5t68 -32.5t50 -52.5t19.5 -73.5zM430 629q-8 1 -16.5 1.5t-16.5 0.5q-71 0 -140 -15q-3 -29 -5 -59t-3 -59q21 11 47 25.5t51.5 31.5t48 35.5
t34.5 38.5zM592 386q-14 5 -29.5 6t-30.5 1q-33 0 -63.5 -6t-60.5 -14.5t-60 -19t-61 -19.5q-2 -1 -9 -2.5t-15 -3.5t-14.5 -4t-7.5 -3q3 -37 2.5 -72t4.5 -75q39 17 88 39.5t97.5 49.5t91 58t67.5 65z" />
    <glyph glyph-name="c" unicode="c" horiz-adv-x="619" 
d="M739 240q0 -28 -11 -56t-33 -45q-37 -30 -83 -55t-96 -43.5t-101 -28.5t-99 -10q-66 0 -119 19t-90 55t-57 88t-20 119q0 43 8.5 100t26 117.5t44 119t62 104.5t80.5 74t99 28q56 0 95.5 -26t64.5 -66.5t36.5 -90t11.5 -97.5q0 -43 -25.5 -71t-69.5 -28q-42 0 -61 18.5
t-27.5 46t-12.5 58.5t-15 57q-31 -31 -54.5 -73.5t-40 -90t-25 -96t-8.5 -91.5q0 -45 19.5 -64.5t64.5 -19.5q86 0 160 26t147 70q14 8 25.5 13t27.5 5q35 0 55.5 -14t20.5 -52z" />
    <glyph glyph-name="d" unicode="d" horiz-adv-x="758" 
d="M737 547q0 -54 -22 -107.5t-58 -105t-83 -99.5t-97 -90t-100 -77.5t-91 -61.5q-25 -16 -53 -30.5t-59 -14.5q-28 0 -46 16.5t-29 39.5q-13 26 -22 63.5t-15.5 81t-10 90.5t-6 91.5t-3 84.5t-0.5 70v102q0 75 11 117t38 63t72 26t113 5q43 0 93.5 -4t102 -14.5t99.5 -29
t84.5 -48t59 -71t22.5 -97.5zM549 535q0 20 -17 33.5t-44 22.5t-59.5 13.5t-63.5 6.5t-57 2.5t-40 0.5h-39q-2 -37 -3 -73t-1 -73q0 -61 2.5 -124.5t18.5 -122.5q22 11 43.5 22.5t42.5 24.5q15 10 37.5 28t46.5 41.5t48 50.5t42.5 53.5t30.5 50.5t12 43z" />
    <glyph glyph-name="e" unicode="e" horiz-adv-x="670" 
d="M670 207q0 -34 -16.5 -58.5t-45.5 -41.5q-17 -9 -51 -26t-77 -37t-90 -41t-89.5 -37.5t-75.5 -27.5t-48 -11q-31 0 -52 17.5t-34.5 45t-20.5 62.5t-10.5 69.5t-4 65.5t-0.5 52q0 85 2.5 169t4.5 169q-20 15 -30 39t-10 48q0 73 68 96q36 12 91 22t115 17t116.5 11t95.5 4
q19 0 36.5 -3.5t30.5 -12.5t20.5 -24t7.5 -37q0 -39 -24.5 -63.5t-61.5 -32.5q-20 -4 -40.5 -6.5t-40.5 -6.5q-49 -9 -97.5 -21t-96.5 -25q-5 -25 -6 -50t-1 -51q26 7 62.5 16.5t75 17t75 13t62.5 5.5q38 0 62 -23t24 -62q0 -36 -19.5 -59t-52.5 -34q-37 -13 -75 -23.5
t-75.5 -21.5t-74 -23.5t-72.5 -30.5v-36q0 -17 1.5 -33.5t7.5 -32.5q13 5 43.5 17t69 27t80.5 30.5t77.5 29t61.5 22t32 8.5q34 0 52 -25t18 -56z" />
    <glyph glyph-name="f" unicode="f" horiz-adv-x="760" 
d="M738 728q0 -39 -25 -65.5t-65 -26.5q-99 0 -200 -10t-196 -37q1 -33 4.5 -65.5t6.5 -64.5q72 13 143.5 22.5t144.5 9.5q41 0 68.5 -26t27.5 -68q0 -41 -23.5 -62.5t-61.5 -29.5q-35 -7 -71 -12t-71.5 -11.5t-70.5 -15t-69 -21.5q6 -47 13 -92.5t16 -92.5q2 -6 2 -12v-12
q0 -43 -28.5 -70t-70.5 -27q-32 0 -52 15t-32.5 38.5t-18 54t-8.5 61.5t-3.5 60.5t-3.5 50.5q-29 16 -44 47t-15 63q0 26 9.5 49t33.5 36q-5 69 -8 137.5t-3 137.5q0 35 22.5 58.5t59 38.5t81 22.5t88.5 11.5t82 5.5t62 3.5q30 2 60 3t60 1q28 0 55.5 -3.5t50 -14.5
t36.5 -32t14 -55z" />
    <glyph glyph-name="g" unicode="g" horiz-adv-x="813" 
d="M792 404q0 -32 -12.5 -75.5t-32 -87.5t-42.5 -83t-44 -63q-36 -41 -70 -73t-72 -54t-83 -33t-103 -11q-78 0 -134 36.5t-92 93.5t-53.5 126.5t-17.5 136.5q0 41 6.5 92.5t19.5 106t34 107.5t50 97t66.5 75t84.5 41q15 3 30 4t30 1q37 0 78.5 -17t76.5 -45t57.5 -65.5
t22.5 -77.5q0 -42 -23.5 -65t-65.5 -23q-39 0 -57.5 17t-31.5 37.5t-27 37.5t-44 17q-22 0 -39 -20t-29.5 -52t-21 -70.5t-14 -75.5t-7.5 -68.5t-2 -47.5q0 -30 6.5 -65.5t21.5 -66.5t40 -52t62 -21q47 0 79 15.5t55.5 42t41.5 60t37 69.5q-24 -3 -53.5 -10l-59 -14
t-55.5 -12.5t-43 -5.5q-38 0 -62 26t-24 64q0 41 22.5 64.5t60.5 34.5q24 7 49 11.5t50 9.5q34 7 62 13t54 10.5t54 6.5t64 2q49 0 74.5 -26.5t25.5 -74.5z" />
    <glyph glyph-name="h" unicode="h" horiz-adv-x="765" 
d="M730 376q0 -36 -21 -57t-50 -38q1 -29 2.5 -56.5t4.5 -56.5q4 -40 11 -79.5t7 -79.5t-21.5 -65t-63.5 -25t-71 25.5t-38 65.5q-14 59 -16 120t-4 121l-186 -41q0 -23 0.5 -45.5t0.5 -45.5q0 -25 -5 -48.5t-17 -42t-31.5 -30t-48.5 -11.5q-26 0 -43 9t-27 24.5t-13.5 35.5
t-3.5 43q0 33 -3 65.5t-3 65.5q-14 15 -20.5 34.5t-6.5 39.5t7 39t21 33q0 69 -0.5 138t-0.5 138q0 20 3.5 39t12.5 33.5t24.5 23t39.5 8.5q44 0 66.5 -26.5t31.5 -64.5t9 -79.5v-71.5q0 -25 -0.5 -50t-0.5 -50l186 21q0 76 3.5 153.5t14.5 152.5q6 41 34 68t71 27
q34 0 56.5 -21t22.5 -56v-8.5t-1 -8.5q-5 -34 -7.5 -67t-2.5 -67q0 -38 1.5 -77t2.5 -77q33 -1 53 -23.5t20 -54.5z" />
    <glyph glyph-name="i" unicode="i" horiz-adv-x="345" 
d="M293 85q0 -22 -8.5 -43.5t-23.5 -38.5t-35.5 -27.5t-43.5 -10.5q-24 0 -41 11.5t-28.5 29t-18 39t-9.5 41.5q-9 64 -11.5 128.5t-5.5 129.5q-4 72 -5 143.5t-1 143.5q0 25 3.5 50.5t14 46t29.5 33t51 12.5q42 0 68.5 -27t26.5 -69q0 -38 -1 -76t-1 -76q0 -43 1.5 -85.5
t3.5 -85.5q4 -63 13 -124.5t20 -123.5q1 -5 1.5 -10.5t0.5 -10.5z" />
    <glyph glyph-name="j" unicode="j" horiz-adv-x="777" 
d="M792 708q0 -42 -26.5 -68.5t-68.5 -26.5q-29 0 -56.5 -1.5t-56.5 -3.5q21 -91 35.5 -183t25.5 -186q2 -15 3 -29.5t1 -29.5q0 -110 -60.5 -161.5t-165.5 -51.5q-18 0 -48 9.5t-65.5 24.5t-74 34t-73 38.5t-62.5 37t-42 29.5q-17 15 -27.5 32.5t-10.5 40.5q0 19 5.5 36.5
t16.5 31t27 22t36 8.5q17 0 30 -5.5t27 -13.5q12 -8 33.5 -20.5t47 -27.5t53 -30.5t53 -28t47 -20.5t33.5 -8h21t11 13q0 104 -22 208t-46 205q-45 -8 -88 -19t-87 -24q-8 -2 -16.5 -4t-16.5 -2q-20 0 -37 8.5t-29.5 22t-19.5 31.5t-7 37q0 32 17 53.5t46 33.5
q20 8 41.5 13.5t42.5 10.5q227 59 458 59q42 0 68.5 -26.5t26.5 -68.5z" />
    <glyph glyph-name="k" unicode="k" horiz-adv-x="731" 
d="M791 199q0 -37 -22.5 -58.5t-58.5 -21.5q-9 0 -14 1l-428 49q3 -38 10 -75.5t7 -75.5q0 -39 -23.5 -62t-62.5 -23q-45 0 -73 26.5t-35 69.5q-5 32 -6.5 64t-3.5 64q-5 78 -8.5 154.5t-3.5 154.5q0 67 2 134t8 134q4 38 25.5 63.5t62.5 25.5q39 0 58.5 -18t27 -45.5
t7.5 -59v-58.5q0 -30 -0.5 -60.5t-0.5 -60.5l224 196q27 24 62 24q19 0 36.5 -8t31 -21t21.5 -30.5t8 -36.5q0 -21 -7.5 -40t-23.5 -33l-221 -205l310 -67q18 -4 34 -13t29 -22t20.5 -30t7.5 -36z" />
    <glyph glyph-name="l" unicode="l" horiz-adv-x="656" 
d="M650 179q0 -36 -20 -57.5t-53 -30.5q-49 -14 -98 -26t-97 -28q-54 -17 -104.5 -42t-103.5 -48q-10 -5 -20.5 -8t-21.5 -3q-21 0 -35.5 8t-24 21t-14.5 30t-6 35q-3 39 -4 78.5t-1 79.5q0 100 1 198.5t6 198.5q2 35 3 69t7 68q6 35 27.5 59.5t59.5 24.5q39 0 63.5 -27.5
t24.5 -65.5q0 -3 -0.5 -6.5t-0.5 -6.5q-9 -93 -9 -186q0 -78 3 -156.5t5 -156.5q33 11 76 22.5t88 21t88.5 15.5t78.5 6q36 0 59 -26t23 -61z" />
    <glyph glyph-name="m" unicode="m" horiz-adv-x="810" 
d="M770 53q0 -20 -7.5 -38t-20.5 -32t-30.5 -22.5t-37.5 -8.5q-30 0 -48 16.5t-29 41.5q-16 34 -28.5 86t-22 108t-16.5 110.5t-11 93.5q-23 -51 -43 -103t-44 -103q-11 -22 -27.5 -42.5t-44.5 -20.5q-20 0 -40.5 15.5t-38.5 36.5t-33 44t-24 38q-5 -52 -7.5 -103.5
t-2.5 -104.5q0 -39 -23.5 -69.5t-65.5 -30.5t-66 30t-24 70q0 73 2.5 155t10 164.5t20.5 162.5t33 151q4 16 11.5 31.5t18 28t24.5 20t33 7.5q20 0 34.5 -8.5t25 -22.5t17 -31t10.5 -33q14 -63 28 -124.5t40 -121.5q23 49 45.5 98t45.5 98q16 33 31 65.5t35 63.5
q15 23 36 40t51 17q24 0 41 -10.5t28.5 -27t16.5 -37.5t5 -42q0 -153 21 -311.5t64 -305.5q3 -10 5 -19.5t2 -19.5z" />
    <glyph glyph-name="n" unicode="n" horiz-adv-x="761" 
d="M708 189q0 -24 -3 -65t-13.5 -80.5t-30.5 -68.5t-54 -29q-30 0 -64 20t-69 51.5t-69.5 71.5t-64.5 79.5t-54 75t-39 58.5q5 -57 9 -112.5t10 -112.5q1 -5 1 -15q0 -40 -26 -68.5t-67 -28.5q-44 0 -65.5 27t-29.5 65q-12 55 -18 111.5t-8 113.5t-3 114.5t-2 113.5
q-1 32 -1.5 64t-0.5 64q0 19 5.5 39.5t16.5 36.5t27.5 26.5t39.5 10.5q28 0 47 -15.5t35 -35.5q26 -34 48.5 -70.5t44.5 -73t44 -73.5t47 -72q28 -39 56 -79t61 -75v11q0 111 -13.5 220t-30.5 218q-1 5 -1.5 10.5t-0.5 10.5q0 17 5.5 33t16 28t25.5 19.5t33 7.5
q48 0 72 -24.5t36 -67.5q18 -65 27.5 -131t14 -133.5t5.5 -135t1 -134.5z" />
    <glyph glyph-name="o" unicode="o" horiz-adv-x="736" 
d="M700 312q0 -68 -36 -132.5t-92.5 -115.5t-125.5 -82t-134 -31q-146 0 -213 77.5t-67 218.5q0 57 13 114t34 112t48.5 107.5t57.5 100.5q11 17 24 37t29.5 37t35.5 28.5t42 11.5q14 0 26 -4q73 -25 138.5 -73.5t114 -112t77 -139t28.5 -154.5zM500 313q0 37 -13 74
t-34.5 70.5t-50 61.5t-58.5 48q-45 -72 -77 -152.5t-32 -167.5q0 -26 1 -45.5t7.5 -33t22.5 -20.5t46 -7q22 0 54 18.5t62 45t51 56t21 52.5z" />
    <glyph glyph-name="p" unicode="p" horiz-adv-x="645" 
d="M630 565q0 -45 -17.5 -86.5t-47 -78.5t-68 -69.5t-80.5 -59.5t-84 -47.5t-79 -34.5q3 -29 7 -59t14 -57q5 -14 10 -23.5t5 -26.5q0 -20 -8 -37t-21.5 -29.5t-31.5 -20t-37 -7.5q-26 0 -45 12t-33 32q-15 21 -26.5 72.5t-19.5 119t-13 143.5t-8 146.5t-4 129t-1 90.5
q0 62 25.5 96t91.5 34q37 0 86.5 -3.5t101.5 -13.5t103 -27t91 -43.5t64.5 -64t24.5 -87.5zM440 558q-18 16 -44.5 27t-55 17t-57 8.5t-52.5 3.5v-23q0 -50 2.5 -99.5t6.5 -99.5q21 10 54 27.5t64.5 39.5t55.5 47.5t26 51.5z" />
    <glyph glyph-name="q" unicode="q" horiz-adv-x="697" 
d="M685 292q0 -24 -7.5 -50.5t-19 -53.5t-25 -52t-26.5 -44q10 -21 21 -50t11 -52q0 -19 -7 -36t-19.5 -30t-29.5 -20.5t-36 -7.5q-35 0 -54 20t-32 49q-40 -14 -83 -14q-33 0 -67 3t-67 11t-64 22t-58 35q-24 19 -45 45t-36.5 55.5t-24.5 61t-9 63.5q0 55 13 112.5
t34.5 114t49 109t56.5 98.5q11 17 24 37t29 37t35.5 28.5t42.5 11.5q15 0 26 -4q73 -24 140 -76t117.5 -120t80.5 -146.5t30 -156.5zM495 292q0 38 -15 80.5t-39.5 82t-55.5 73t-63 53.5q-24 -36 -46.5 -76t-40 -83t-28 -87t-10.5 -88q0 -20 14 -42t29 -34q11 -9 27.5 -14.5
t34 -9t35 -5t31.5 -1.5q-21 34 -37.5 60.5t-43.5 55.5q-17 19 -28 38.5t-11 45.5q0 19 7 36.5t19.5 31t29.5 22t36 8.5q20 0 34 -9t27 -23q14 -16 25.5 -31t22.5 -29.5t21.5 -30t23.5 -32.5q0 2 0.5 4t0.5 4z" />
    <glyph glyph-name="r" unicode="r" horiz-adv-x="678" 
d="M760 170q0 -21 -8 -35.5t-21 -23t-30 -12.5t-35 -4q-45 0 -88.5 9.5t-88.5 18.5q-57 12 -114 22t-115 15q2 -22 3 -43.5t1 -43.5q0 -21 -8.5 -42t-22.5 -37.5t-33.5 -26.5t-41.5 -10q-30 0 -44 18.5t-22 44.5q-11 39 -16.5 79t-10.5 81q-14 112 -20.5 223.5t-6.5 223.5
q0 46 5 77t20.5 50t45 26.5t79.5 7.5q21 0 41.5 1.5t41.5 1.5q31 0 68.5 -2.5t76.5 -10t75.5 -20t65 -33.5t46 -51t17.5 -71q0 -44 -16 -81.5t-41.5 -69t-58 -58t-65.5 -49.5q24 -7 57.5 -13t69 -14t70.5 -19t62.5 -28t44.5 -41.5t17 -59.5zM423 585q-29 12 -60.5 14.5
t-63.5 2.5h-36t-36 -2q-3 -23 -3 -45q0 -65 3 -129q21 12 50 30.5t57.5 40t52.5 44.5t36 44z" />
    <glyph glyph-name="s" unicode="s" horiz-adv-x="724" 
d="M709 294q0 -74 -35 -136.5t-91 -109t-125.5 -72.5t-138.5 -26q-27 0 -66.5 13.5t-78.5 34.5t-71.5 46.5t-44.5 50.5q-7 14 -11 28.5t-4 29.5q0 29 17.5 46.5t46.5 17.5q23 0 46 -10t49.5 -22.5t56.5 -22.5t66 -10q27 0 48 5.5t39 15t34.5 23.5t34.5 32q7 7 17.5 17
t10.5 21q0 3 -4 2.5t-6 -0.5q-11 0 -21 1.5t-21 1.5q-43 0 -85.5 -3.5t-85.5 -3.5q-40 0 -89 4.5t-92.5 20t-73 46.5t-29.5 85q0 27 10 60t26 65.5t34 62.5t35 51q23 30 56.5 61t72 56.5t79.5 41.5t80 16q28 0 57 -16.5t51.5 -41.5t37 -55t14.5 -58q0 -18 -5.5 -36.5
t-16.5 -33.5t-26.5 -25t-35.5 -10q-21 0 -33.5 9t-23.5 20.5t-24.5 20.5t-36.5 9q-18 0 -40.5 -16.5t-42 -39.5t-32.5 -48t-13 -43q0 -8 11 -9.5t16 -1.5q13 0 26 2t26 2q32 0 64.5 1.5t64.5 1.5q43 0 91.5 -6t89.5 -24.5t68 -52.5t27 -89z" />
    <glyph glyph-name="t" unicode="t" horiz-adv-x="760" 
d="M735 676q0 -46 -26.5 -75.5t-73.5 -29.5q-44 0 -87.5 3t-87.5 2l-45 -1v-74.5t0.5 -87.5t2.5 -94t6 -92.5t10 -84t16 -68.5q3 -9 5.5 -18.5t2.5 -19.5q0 -23 -10.5 -43.5t-27.5 -35.5t-38.5 -24t-43.5 -9q-53 0 -78 50q-8 16 -14 42t-10 57t-6.5 65t-4 66.5t-2 60.5
t-0.5 47q0 63 2.5 125.5t7.5 125.5q-33 -5 -66 -10.5t-67 -5.5q-18 0 -37.5 5.5t-35.5 16t-26.5 26.5t-10.5 37q0 32 37 56t95.5 40.5t129 27t137 16.5t121.5 8t81 2q28 0 54 -4t46 -15.5t32 -32.5t12 -54z" />
    <glyph glyph-name="u" unicode="u" horiz-adv-x="684" 
d="M628 512q0 -67 -4.5 -134t-17.5 -133q-9 -45 -28.5 -95.5t-49.5 -93t-72 -70t-96 -27.5q-57 0 -102.5 21t-80 57t-59 83t-40.5 98t-23 103.5t-7 99.5q0 57 2.5 115t19.5 113q11 38 35 58t65 20q20 0 39.5 -6.5t34.5 -18.5t24.5 -29.5t9.5 -39.5v-8.5t-1 -8.5
q-9 -58 -18.5 -114.5t-9.5 -115.5q0 -19 1.5 -56t8.5 -73.5t22 -64t43 -27.5q30 0 51 15t34.5 39t20.5 54.5t10 61.5t3.5 60t0.5 50q0 62 -3.5 122.5t-14.5 121.5q-3 15 -3 29q0 20 6.5 40.5t19 37.5t30 27.5t39.5 10.5q24 0 41.5 -19t29.5 -49t19.5 -67.5t12 -73t6 -66
t1.5 -47.5z" />
    <glyph glyph-name="v" unicode="v" horiz-adv-x="606" 
d="M583 755q0 -8 -2 -16.5t-4 -16.5q-45 -168 -73.5 -339t-28.5 -345q0 -18 -5 -37t-14.5 -34t-25 -24.5t-36.5 -9.5q-23 0 -42.5 12.5t-36.5 31t-31 39t-25 36.5q-91 134 -157.5 284t-111.5 305l-4 18t-2 18q0 37 24.5 64t62.5 27q32 0 50 -17.5t30 -44.5q16 -36 29 -73.5
t29 -73.5q26 -57 50.5 -114.5t53.5 -113.5q11 75 29 147.5t36 146.5q9 36 17 72.5t22 71.5q11 29 31 49t54 20q35 0 58 -24t23 -59z" />
    <glyph glyph-name="w" unicode="w" horiz-adv-x="867" 
d="M841 723q0 -8 -1.5 -17t-3.5 -17q-23 -106 -47.5 -211t-44.5 -212q-6 -30 -10.5 -60t-9.5 -60q-5 -31 -12 -62t-18 -60q-11 -30 -32 -54t-57 -24q-32 0 -52.5 19t-34.5 44q-27 47 -51 95t-45 98q-4 -26 -9.5 -71.5t-18.5 -90t-36 -77t-60 -32.5q-28 0 -53 24.5
t-47.5 62.5t-41.5 85t-34 93t-26 85t-17 61q-23 85 -43.5 175t-20.5 179q0 41 28 67t68 26q42 0 64 -23t30 -61q5 -25 7.5 -50t7.5 -50q9 -51 18.5 -100.5t21.5 -99.5q9 62 19.5 123.5t29.5 121.5q11 33 32 58.5t59 25.5t59.5 -25t32.5 -57q9 -26 14.5 -52t11.5 -52
q12 -51 24.5 -102t29.5 -101q3 19 9 53.5t14 76t17.5 85.5t19 84t19 71t17.5 45q30 53 91 53q39 0 60.5 -26.5t21.5 -63.5z" />
    <glyph glyph-name="x" unicode="x" horiz-adv-x="659" 
d="M636 121q0 -18 -6 -35.5t-17 -31t-26.5 -21.5t-34.5 -8q-32 0 -68.5 20t-72 49t-66.5 60t-51 54q-5 -13 -9 -26t-7 -26q-6 -26 -11.5 -54.5t-16 -53.5t-30.5 -41t-55 -16q-41 0 -70.5 27t-29.5 69q0 28 10.5 66.5t25.5 79t32 78.5t30 64q-12 19 -35 58t-46 82.5t-40 82.5
t-17 59t8.5 37.5t22.5 30t32 20t38 7.5q31 0 51.5 -15.5t34.5 -41.5q17 -30 31 -61t30 -61q32 54 66.5 107.5t74.5 103.5q15 19 33 30.5t44 11.5q19 0 36 -7t30 -19t21 -28.5t8 -35.5q0 -18 -6 -34t-16 -31q-44 -69 -90.5 -134t-86.5 -136q32 -41 66.5 -78t73.5 -70
q18 -16 37 -30t36 -30q17 -15 26.5 -32t9.5 -40z" />
    <glyph glyph-name="y" unicode="y" horiz-adv-x="659" 
d="M637 760q0 -14 -6 -34t-15 -40.5t-18.5 -39.5t-16.5 -32q-63 -126 -110 -257t-83 -267q-9 -33 -16 -67t-18 -67q-10 -28 -27.5 -44.5t-49.5 -16.5q-24 0 -43.5 11t-33.5 29t-22 40t-8 44q0 21 10.5 64t24.5 91.5t28.5 93t22.5 67.5q-54 47 -105.5 101t-94.5 111
q-12 16 -19 31.5t-7 35.5q0 17 6 35t17.5 32.5t27 23.5t34.5 9q21 0 37 -9.5t30 -23.5q38 -38 76 -74.5t81 -68.5q29 69 58.5 137.5t71.5 131.5q14 22 33 35t46 13q20 0 36.5 -7.5t28 -20.5t18 -30.5t6.5 -36.5z" />
    <glyph glyph-name="z" unicode="z" horiz-adv-x="752" 
d="M805 194q0 -19 -8 -33t-21 -24t-29.5 -16.5t-32.5 -9.5q-38 -8 -76.5 -14t-76.5 -17q-97 -26 -189 -60.5t-185 -72.5q-13 -5 -26 -9t-27 -4q-23 0 -42 8.5t-33.5 23.5t-22.5 35t-8 42q0 16 4 30.5t11 28.5q20 43 46.5 83t52.5 80q48 74 99 146l102 144l-42 -6t-42 -7
q-12 -2 -36.5 -8.5t-50 -13.5t-46.5 -12t-28 -5q-32 0 -53 21t-21 53t17 56t44 41.5t61 29t69 19.5t67.5 13t55.5 8q50 7 98.5 16.5t96.5 24.5q12 4 23.5 6.5t24.5 2.5q35 0 62 -22t27 -59q0 -20 -8.5 -37t-19.5 -33q-42 -56 -85.5 -110t-85.5 -108.5t-81 -112t-72 -118.5
q35 14 83.5 30.5t99.5 30.5t100 23.5t86 9.5q20 0 41 -6t38 -18t28 -29.5t11 -40.5z" />
    <glyph glyph-name="braceleft" unicode="{" horiz-adv-x="506" 
d="M412 645q0 -38 -25.5 -54.5t-60.5 -16.5q-21 0 -51 8t-61 20.5t-59 27t-44 28.5t-26 30.5t-10 38.5q0 18 7 34t19 28.5t28 20t34 7.5q14 0 27.5 -4.5t24.5 -12.5q34 -22 65.5 -40.5t69.5 -32.5q29 -11 45.5 -30.5t16.5 -51.5zM451 371q0 -42 -26.5 -68.5t-68.5 -26.5
q-45 0 -89.5 -3t-89.5 -15l-16 -4t-16 -2q-20 0 -37 8t-29 21.5t-19 31.5t-7 37q0 32 17.5 54.5t46.5 33.5q22 9 53 14.5t64.5 8.5t65.5 4t56 1q42 0 68.5 -26.5t26.5 -68.5zM445 125q0 -34 -17.5 -55t-48.5 -31q-9 -3 -26.5 -8.5t-39.5 -11.5t-46 -13t-45.5 -12t-38 -8.5
t-23.5 -3.5q-35 0 -61.5 18t-26.5 56q0 23 11 40.5t29 31.5q15 11 49 26.5t72 29.5t74 24t54 10q19 0 34.5 -8t26.5 -21t17 -29.5t6 -34.5z" />
    <glyph glyph-name="bar" unicode="|" horiz-adv-x="345" 
d="M306 774q0 -30 -12.5 -56.5t-32.5 -46.5t-45.5 -31.5t-51.5 -11.5q-19 0 -36.5 7t-31 20t-21.5 31.5t-8 40.5q0 29 15 55.5t38 47t50.5 32.5t52.5 12q41 0 62 -28t21 -72zM297 62q0 -17 -9 -33.5t-24 -29.5t-35.5 -21t-44.5 -8q-25 0 -42.5 8.5t-29 22t-18 30t-9.5 31.5
q-9 50 -11.5 99t-5.5 99q-4 55 -5 109.5t-1 110.5q0 19 3.5 38.5t14 35t30.5 25t52 9.5q42 0 69 -20.5t27 -52.5q0 -29 -1 -58.5t-1 -58.5q0 -66 6 -130q3 -48 12.5 -95t20.5 -95q1 -5 1.5 -8.5t0.5 -7.5z" />
    <glyph glyph-name="braceright" unicode="}" horiz-adv-x="528" 
d="M452 712q0 -34 -17.5 -54.5t-48.5 -31.5q-13 -5 -45 -14t-67.5 -19t-66 -17t-40.5 -7q-35 0 -61.5 18t-26.5 56q0 23 11 40.5t29 31.5q15 11 49 26.5t72 29.5t74 24t54 10q19 0 34.5 -8t26.5 -20.5t17 -29.5t6 -35zM451 386q0 -41 -26.5 -68t-68.5 -27q-45 0 -89.5 -3
t-89.5 -15q-8 -2 -15.5 -4t-16.5 -2q-20 0 -37 8t-29 21.5t-19 31.5t-7 37q0 32 17.5 54.5t46.5 33.5q22 9 53 14.5t64.5 8.5t65.5 4t56 1q42 0 68.5 -26.5t26.5 -68.5zM431 70q0 -38 -25.5 -54.5t-60.5 -16.5q-21 0 -51.5 8t-61 20.5t-58.5 27t-44 28.5q-16 13 -26 30
t-10 39q0 18 7 34t19 28.5t28 20t34 7.5q14 0 27 -4.5t25 -12.5q34 -22 65.5 -40.5t69.5 -32.5q29 -11 45.5 -30.5t16.5 -51.5z" />
    <glyph glyph-name="asciitilde" unicode="~" horiz-adv-x="596" 
d="M566 425q0 -30 -12 -57.5t-32 -49t-47.5 -34t-57.5 -12.5q-29 0 -57.5 11.5t-52.5 25.5t-41 25.5t-22 11.5q-8 0 -15 -5.5t-13 -13t-9.5 -16t-3.5 -15.5q0 -3 0.5 -5.5t0.5 -5.5q0 -9 -7.5 -17.5t-18 -15t-21.5 -10t-19 -3.5q-18 0 -36.5 7.5t-33 20t-24 29.5t-9.5 36
q0 14 4 30.5t9 29.5q22 63 67 101.5t114 38.5q36 0 60.5 -10t41.5 -22.5t28.5 -22.5t23.5 -10t20 10t16.5 21.5t20.5 21.5t31 10q20 0 37.5 -9t30 -24t20 -34t7.5 -38z" />
    <glyph glyph-name="uni00A0" unicode="&#xa0;" horiz-adv-x="405" 
 />
    <glyph glyph-name="exclamdown" unicode="&#xa1;" horiz-adv-x="365" 
d="M333 699q3 -29 -4 -51t-22 -39t-36 -29t-45 -21q-18 -7 -38 -14t-39 -9q-22 -2 -40.5 6t-32.5 22t-23 33.5t-11 39.5q-3 30 5 50t24 34t37.5 23.5t44.5 18.5q20 8 42 20.5t42 14.5q21 2 37.5 -6t29 -22.5t20 -33.5t9.5 -37zM304 357q3 -29 3 -51t-1 -42t-3 -42t-2 -52
q0 -64 -2.5 -130t-12.5 -129q-11 -69 -80 -78q-38 -4 -70.5 16.5t-37.5 60.5q-5 37 1.5 75t8.5 75q2 31 4 54.5t3 45.5t0 45.5t-4 54.5q-2 23 -3 45t-4 45q-2 22 4.5 42.5t19.5 37t31.5 27t40.5 13.5q26 3 44.5 -6t31 -25t19 -38t9.5 -44z" />
    <glyph glyph-name="cent" unicode="&#xa2;" horiz-adv-x="619" 
d="M601 271q0 -25 -16 -46t-41.5 -38.5t-58 -31.5t-65.5 -23l-3 -24q-2 -24 -0.5 -40.5t5.5 -39.5q4 -28 -19.5 -50.5t-60.5 -29.5q-26 -5 -44 -1t-30 13t-18.5 22.5t-9.5 29.5q-5 25 -5 50t2 51q-39 4 -76.5 16t-67 33t-47.5 53.5t-18 77.5q0 38 11 75t26 71
q29 64 74 122.5t107 93.5q-3 59 11 123q5 23 24 40.5t52 24.5q37 7 66.5 -6t34.5 -40q3 -19 -1 -40.5t-6 -41.5q-1 -10 -1 -17.5v-15.5q61 -14 99 -59.5t38 -114.5q0 -20 -5 -38t-15 -32t-25.5 -22.5t-37.5 -8.5h-21t-20 3q-20 6 -30 23t-17 35t-13.5 32t-19.5 14
q-4 -1 -7 -2.5t-6 -3.5q-25 -14 -49.5 -34t-44.5 -44.5t-32.5 -52.5t-12.5 -59q0 -16 8 -25t20 -13t26 -5t26 -1q55 0 108.5 12t106.5 26q11 3 22 5.5t22 2.5q23 0 39 -12.5t16 -36.5z" />
    <glyph glyph-name="sterling" unicode="&#xa3;" horiz-adv-x="635" 
d="M642 138q0 -35 -25 -57t-57 -29q-34 -8 -68 -13.5t-68 -14.5q-63 -17 -123 -40t-120 -48q-11 -5 -23 -8.5t-25 -3.5q-21 0 -38.5 9.5t-30.5 25.5t-20 35t-7 39q0 19 12.5 46t29.5 55.5t35 54t30 41.5q-12 -3 -26 -3q-20 0 -37 8t-29 21.5t-19 31.5t-7 37q0 29 13 48
t33 31t45 18t48 10q-26 39 -45.5 83t-19.5 92q0 39 13.5 77.5t38 68.5t58.5 49t76 19q45 0 87 -16.5t74.5 -45.5t52 -69t19.5 -86q0 -19 -4 -36t-13 -30t-23.5 -20.5t-35.5 -7.5t-35 5.5t-23 16t-15.5 25t-13.5 31.5q-3 7 -8.5 16.5t-12.5 17.5t-15.5 13.5t-17.5 5.5
q-6 0 -11.5 -4.5t-10 -11t-7.5 -14t-3 -12.5q0 -15 10 -34.5t23.5 -40t28 -38.5t23.5 -29l62 6t62 3q42 0 68.5 -26.5t26.5 -68.5q0 -36 -21.5 -54t-52.5 -25.5t-64.5 -9t-57.5 -4.5q-20 -26 -38.5 -51.5t-35.5 -53.5q55 21 113 35.5t118 14.5q18 0 37 -5.5t34.5 -16
t25.5 -26.5t10 -37z" />
    <glyph glyph-name="yen" unicode="&#xa5;" horiz-adv-x="659" 
d="M637 760q0 -14 -6 -34t-15 -40.5t-18.5 -39.5t-16.5 -32q-17 -34 -33 -68.5t-31 -69.5h2q42 0 68.5 -26.5t26.5 -68.5t-26.5 -68.5t-68.5 -26.5q-34 0 -74 -3q-5 -14 -9 -27.5t-8 -27.5q26 -11 41 -33.5t15 -53.5q0 -42 -26.5 -68.5t-68.5 -26.5h-12q-5 -23 -10 -45.5
t-13 -44.5q-10 -28 -27.5 -44.5t-49.5 -16.5q-24 0 -43.5 11t-33.5 29t-22 40t-8 44v3q-37 4 -60.5 32.5t-23.5 65.5q0 32 17.5 54.5t46.5 33.5t71 17q2 8 4 14.5t4 13.5q-11 -3 -20.5 -5.5t-18.5 -4.5l-16 -4t-16 -2q-20 0 -37 8t-29 21.5t-19 31.5t-7 37q0 33 17.5 54.5
t46.5 33.5q5 2 11 4t14 4q-26 28 -51 57.5t-48 58.5q-12 16 -19 31.5t-7 35.5q0 17 6 35t17.5 32.5t27 23.5t34.5 9q21 0 37 -9.5t30 -23.5q38 -38 76 -74.5t81 -68.5q29 69 58.5 137.5t71.5 131.5q14 22 33 35t46 13q20 0 36.5 -7.5t28 -20.5t18 -30.5t6.5 -36.5z" />
    <glyph glyph-name="section" unicode="&#xa7;" horiz-adv-x="641" 
d="M601 174q0 -20 -10.5 -45.5t-28.5 -52t-41.5 -52t-50.5 -45t-55 -31.5t-55 -12q-39 0 -80.5 11.5t-75.5 32t-56 49.5t-22 64q0 13 5 26t14 23.5t23 17t32 6.5q27 0 44 -13.5t32 -30t32 -30t43 -13.5q13 0 28 9t27.5 21.5t20.5 26.5t8 24q0 8 -8 13t-19 8.5t-22.5 5.5
t-18.5 4q-27 5 -55 6.5t-56 5.5q-55 7 -95.5 19t-67 33.5t-39.5 54t-13 80.5q0 28 14 57.5t39 56.5q-35 20 -46.5 51t-11.5 69q0 20 10.5 45.5t28.5 52.5t42 52t51 45t55 32t55 12q39 0 80.5 -11.5t75 -32.5t55.5 -50t22 -64q0 -13 -5 -26t-14 -23.5t-22.5 -17t-31.5 -6.5
q-27 0 -44 13.5t-32 30t-32 30t-43 13.5q-14 0 -28.5 -8.5t-27 -21t-20.5 -26.5t-8 -24q0 -8 8 -13.5t18.5 -9t22 -5.5t18.5 -3q28 -5 55.5 -7t56.5 -5q55 -7 95.5 -19t67 -33.5t39.5 -54.5t13 -81q0 -27 -14.5 -56.5t-38.5 -56.5q35 -20 46 -51.5t11 -69.5zM430 415
q-29 16 -64 28t-63 12q-14 0 -29 -6.5t-28.5 -17t-23.5 -23.5t-15 -25q30 -15 65 -27t62 -12q15 0 30 6.5t28 16.5t23 23t15 25z" />
    <glyph glyph-name="dieresis" unicode="&#xa8;" horiz-adv-x="554" 
d="M529 680q0 -29 -10 -54t-25.5 -44t-35.5 -30t-41 -11q-30 0 -53 26t-23 68q0 28 12 53.5t30 45t39.5 31t40.5 11.5q32 0 49 -27t17 -69zM278 672q0 -30 -10 -56t-26 -46t-36 -31.5t-41 -11.5q-31 0 -54.5 27t-23.5 72q0 29 12 55.5t31 46.5t40.5 32t41.5 12q32 0 49 -28
t17 -72z" />
    <glyph glyph-name="copyright" unicode="&#xa9;" horiz-adv-x="737" 
d="M718 337q0 -45 -7 -82.5t-23 -69.5t-41 -60t-62 -55q-31 -23 -68 -42t-76.5 -33t-80.5 -21.5t-80 -7.5q-68 0 -117 22.5t-81 61.5t-47.5 92.5t-15.5 115.5q0 58 13 118t36.5 118t56 110.5t71.5 94.5q15 17 33.5 34t39 30.5t44 22t49.5 8.5q40 0 80 -19.5t76 -48.5
t65.5 -62.5t50.5 -62.5q16 -23 31 -56.5t27 -70.5t19 -73t7 -64zM576 294q0 21 -3 41.5t-7 40.5q-5 24 -15.5 50.5t-25 53t-31 50.5t-32.5 44q-17 22 -37.5 36t-46.5 14q-15 0 -29.5 -5.5t-28.5 -13.5q-37 -23 -67 -62.5t-51.5 -87t-33.5 -97.5t-12 -93q0 -28 6 -56t21 -49
q12 -17 38 -27t51 -10q39 0 91 10.5t99.5 31.5t80.5 53t33 76zM560 300q0 -16 -6.5 -27t-16.5 -20q-19 -18 -43 -34.5t-51 -29.5t-55.5 -21t-55.5 -8q-36 0 -62.5 12t-43.5 32.5t-25 48.5t-8 60q0 20 5 48t15 58.5t24.5 60.5t34 54t43 39t50.5 15q26 0 47 -14t35.5 -34.5
t22.5 -45t8 -45.5q0 -27 -15 -49t-48 -22q-21 0 -33.5 8t-19.5 21q-6 12 -9 26l-1 4q-17 -31 -25.5 -71t-8.5 -72q0 -5 1 -7.5t6 -2.5q29 0 53.5 11.5t46.5 26.5q11 8 20.5 15t18.5 13t18 10.5t18 4.5q26 0 43 -21t17 -44z" />
    <glyph glyph-name="ordfeminine" unicode="&#xaa;" horiz-adv-x="495" 
d="M452 454q0 -20 -2 -43t-10 -43t-23.5 -33.5t-42.5 -13.5q-17 0 -32.5 7t-27.5 18q-23 -9 -47.5 -16.5t-50.5 -7.5q-38 0 -69.5 9t-54.5 28t-36 48.5t-13 69.5q0 49 17 97t45 92.5t63.5 82.5t73.5 66q17 13 36 24t42 11q47 0 72.5 -23t37.5 -57t14 -74t2 -74q0 -42 3 -84
t3 -84zM271 600q-21 -25 -36 -53.5t-18 -61.5h3q12 0 23 3t22 8q0 26 2 52z" />
    <glyph glyph-name="guillemotleft" unicode="&#xab;" horiz-adv-x="916" 
d="M883 142q0 -29 -27 -51.5t-67 -22.5q-39 0 -78.5 22t-77 52.5t-71 62t-60.5 49.5q-14 9 -31.5 15t-34 12t-31 14.5t-21.5 23.5q-3 5 -4 11.5t-1 12.5q0 14 6.5 27.5t17.5 26.5q9 11 19.5 20.5t20.5 20.5q20 21 52.5 56t68.5 71t72 66t63 40q25 10 48 10q19 0 36.5 -6
t30 -16.5t20 -23.5t7.5 -28q0 -21 -13 -34t-35 -25q-57 -31 -99 -77.5t-77 -91.5q43 -52 93 -97.5t120 -77.5q24 -11 38.5 -25t14.5 -37zM533 132q0 -29 -27 -51.5t-67 -22.5q-39 0 -78.5 22t-77 52.5t-71 62t-60.5 49.5q-14 9 -31.5 15t-34 12t-31 14.5t-21.5 23.5
q-3 5 -4 11.5t-1 12.5q0 14 6.5 27.5t17.5 26.5q9 11 19.5 20.5t20.5 20.5q20 21 52.5 56t68.5 71t72 66t63 40q25 10 48 10q19 0 36.5 -6t30 -16.5t20 -23.5t7.5 -28q0 -21 -13 -34t-35 -25q-57 -31 -99 -77.5t-77 -91.5q43 -52 93 -97.5t120 -77.5q24 -11 38.5 -25
t14.5 -37z" />
    <glyph glyph-name="logicalnot" unicode="&#xac;" horiz-adv-x="937" 
d="M896 511q0 -27 -9 -60.5t-22 -68t-26.5 -68t-22.5 -60.5q-12 -38 -22.5 -76t-24.5 -75q-10 -26 -26.5 -42t-47.5 -16q-22 0 -39 9t-29 24t-18.5 34t-6.5 39q0 21 6.5 54t15.5 67.5t19 67t18 53.5q-72 3 -142.5 7t-142.5 4q-63 0 -125 -9.5t-125 -9.5q-41 0 -67 28.5
t-26 68.5q0 36 18.5 56.5t45.5 30.5t58.5 12.5t58.5 2.5h340q45 0 89 -1.5t89 -1.5h48t54 -5.5t44 -20t18 -44.5z" />
    <glyph glyph-name="registered" unicode="&#xae;" horiz-adv-x="737" 
d="M718 337q0 -45 -7 -82t-23 -69.5t-41 -60.5t-62 -55q-31 -23 -68.5 -41.5t-78 -31.5t-81.5 -20.5t-80 -7.5q-69 0 -118 22.5t-80.5 62.5t-46.5 93.5t-15 116.5q0 55 12 112.5t34 111.5t53 103.5t68 90.5q17 18 36 35.5t41 31.5t46.5 22.5t52.5 8.5q41 0 80.5 -16.5
t75.5 -43t66 -58t52 -61.5q16 -23 31 -56.5t27 -70.5t19 -73t7 -64zM575 318q-4 44 -19.5 96.5t-42 97.5t-63.5 75.5t-83 30.5q-25 0 -44.5 -11.5t-36.5 -28.5h1q28 0 66.5 -4t74 -16.5t60 -35.5t24.5 -62q0 -38 -13.5 -66.5t-39.5 -50.5q12 -2 27 -5.5t31 -6.5t31.5 -6
t26.5 -7zM386 449q-19 3 -38 4t-38 1q-1 -14 0 -27.5t6 -26.5q19 10 36 22.5t34 26.5zM513 194q-20 1 -40 3t-40 5q-23 4 -45 8t-45 7q1 -6 1 -12.5v-12.5q0 -28 -20 -41.5t-47 -13.5q-26 0 -40.5 15.5t-19.5 37.5q-14 60 -19.5 117t-6.5 119q-14 -37 -22.5 -76t-8.5 -78
q0 -29 6.5 -62t21.5 -56q12 -18 38 -26t52 -8q58 0 121.5 20t113.5 54z" />
    <glyph glyph-name="macron" unicode="&#xaf;" horiz-adv-x="1000" 
 />
    <glyph glyph-name="degree" unicode="&#xb0;" horiz-adv-x="774" 
d="M646 649q0 -62 -25.5 -113.5t-67.5 -89t-97 -58t-114 -20.5q-44 0 -85.5 12t-73 36t-50.5 60t-19 85q0 65 26.5 118.5t71 91.5t102 59t119.5 21q47 0 86 -13.5t67.5 -39t44 -63.5t15.5 -86zM451 649q0 12 -2.5 20.5t-16.5 8.5q-23 0 -45 -9.5t-39 -25.5t-28 -37.5
t-11 -44.5q0 -14 11 -16t22 -2q21 0 40.5 8.5t35 23t24.5 34t9 40.5z" />
    <glyph glyph-name="plusminus" unicode="&#xb1;" horiz-adv-x="536" 
d="M527 470q0 -37 -24.5 -61t-61.5 -24q-23 0 -45 -2.5t-45 -4.5q3 -11 7.5 -24t9 -26.5t8 -26t3.5 -22.5q0 -17 -6.5 -33.5t-18 -30t-26.5 -21.5t-33 -8q-29 0 -48.5 18t-32 44t-20.5 54.5t-12 50.5q-16 -4 -32.5 -8t-33.5 -4q-18 0 -33 7.5t-26.5 19.5t-17.5 28t-6 33
q0 26 11 43t28.5 27t39 15.5t42.5 8.5q-3 34 -4 68t-1 68q0 38 24 62t61 24q25 0 41.5 -8.5t26.5 -23t14 -33.5t4 -41q0 -16 -1 -31t-1 -30q0 -8 0.5 -16t1.5 -16q30 4 60 7t61 3q37 0 61.5 -24t24.5 -62zM519 68q0 -31 -20.5 -51t-51.5 -20q-30 0 -73.5 -1.5t-89.5 -6
t-87.5 -12t-68.5 -19.5q-8 -4 -15.5 -6.5t-16.5 -2.5q-29 0 -44.5 22.5t-15.5 48.5q0 23 11 41t31 30q28 16 75.5 25.5t100 14.5t103 6.5t84.5 1.5q33 0 55.5 -18t22.5 -53z" />
    <glyph glyph-name="acute" unicode="&#xb4;" horiz-adv-x="477" 
d="M418 712q0 -34 -17.5 -54.5t-48.5 -31.5q-13 -5 -45 -14t-67 -19t-66 -17t-41 -7q-35 0 -61.5 18t-26.5 56q0 23 11 40.5t29 31.5q15 11 49 26.5t72 29.5t74 24t54 10q19 0 34.5 -8t26.5 -20.5t17 -29.5t6 -35z" />
    <glyph glyph-name="mu" unicode="&#xb5;" horiz-adv-x="684" 
d="M628 576q0 -50 -4.5 -99.5t-17.5 -98.5q-9 -34 -28.5 -71t-49.5 -68.5t-72 -52t-96 -20.5q-28 0 -52.5 4t-46.5 11q5 -32 10 -62.5t10 -62.5q1 -5 1.5 -10.5t0.5 -10.5q0 -22 -8.5 -43.5t-23.5 -38.5t-35.5 -27.5t-43.5 -10.5q-24 0 -41 11.5t-28.5 29t-18 39t-9.5 41.5
q-9 64 -11.5 128.5t-5.5 129.5q-2 38 -3 76.5t-2 76.5q-2 17 -3.5 32t-1.5 30q0 26 1 52t4 52q2 18 6 35.5t12 31.5q23 55 99 55q20 0 39.5 -4.5t34.5 -13.5t24.5 -22t9.5 -29q0 -9 -1 -13q-9 -43 -18.5 -85t-9.5 -85q0 -14 1.5 -41.5t8.5 -54.5t22 -47.5t43 -20.5
q46 0 70.5 23.5t35.5 56.5t12.5 68.5t1.5 58.5q0 46 -3.5 91t-14.5 90q-3 10 -3 22q0 15 6.5 30t19 27t30 20t39.5 8q24 0 41.5 -14t29.5 -36.5t19.5 -50t12 -54t6 -49t1.5 -34.5z" />
    <glyph glyph-name="paragraph" unicode="&#xb6;" horiz-adv-x="893" 
d="M843 95q0 -22 -8.5 -43.5t-23.5 -38.5t-35.5 -27.5t-43.5 -10.5q-24 0 -41 11.5t-28.5 29t-18 39t-9.5 41.5q-5 36 -7.5 72t-4.5 73q-11 -5 -22.5 -9.5t-22.5 -9.5q5 -37 11 -73t12 -73q1 -5 1.5 -10.5t0.5 -10.5q0 -22 -8.5 -43.5t-23.5 -38.5t-35.5 -27.5t-43.5 -10.5
q-24 0 -41 11.5t-28.5 29t-18 39t-9.5 41.5q-4 30 -6.5 60t-4.5 60q-17 -2 -34 -3t-34 -1q-66 0 -119 15t-90 43t-57 69t-20 94q0 34 8.5 79t26 92.5t44 93t62 82t80.5 58.5t99 22q46 0 80.5 -13.5t59.5 -36.5q23 5 50 8t53.5 5t51 2.5t44.5 0.5q13 0 25 -3q41 -2 66 -28.5
t25 -67.5q0 -38 -1 -76t-1 -76q0 -43 1.5 -85.5t3.5 -85.5q4 -63 13 -124.5t20 -123.5q1 -5 1.5 -10.5t0.5 -10.5zM616 400q-2 48 -3 96.5t-1 97.5l-24 -2t-24 -3q0 -23 -0.5 -47t-0.5 -47q0 -29 0.5 -59t1.5 -59q11 5 22.5 10t22.5 10zM377 326q-3 63 -4 126.5t-1 127.5
q-7 20 -10.5 42.5t-14.5 41.5q-31 -25 -54.5 -58.5t-40 -70.5t-25 -75.5t-8.5 -72.5q0 -35 19.5 -50.5t64.5 -15.5q20 0 38 1.5t36 3.5z" />
    <glyph glyph-name="periodcentered" unicode="&#xb7;" horiz-adv-x="446" 
d="M351 408q0 -31 -14.5 -59t-38 -49t-53 -33t-59.5 -12q-23 0 -43 7.5t-36 21t-25 33t-9 42.5q0 31 17.5 59t44.5 49t58.5 33.5t60.5 12.5q48 0 72.5 -30t24.5 -75z" />
    <glyph glyph-name="cedilla" unicode="&#xb8;" horiz-adv-x="676" 
d="M535 29q0 -52 -27 -91t-69 -67q-25 -17 -55.5 -22t-59.5 -5q-28 0 -62.5 5.5t-65 19.5t-51.5 37t-21 59q0 35 20 57.5t56 22.5q16 0 31.5 -4.5t30 -10t29 -10t29.5 -4.5q13 0 23 8.5t10 22.5q0 18 -15.5 41.5t-36.5 46.5t-43 43t-35 31l211 58q17 -25 35 -53.5
t32.5 -59.5t24 -62.5t9.5 -62.5z" />
    <glyph glyph-name="ordmasculine" unicode="&#xba;" horiz-adv-x="774" 
d="M646 649q0 -62 -25.5 -113.5t-67.5 -89t-97 -58t-114 -20.5q-44 0 -85.5 12t-73 36t-50.5 60t-19 85q0 65 26.5 118.5t71 91.5t102 59t119.5 21q47 0 86 -13.5t67.5 -39t44 -63.5t15.5 -86zM451 649q0 12 -2.5 20.5t-16.5 8.5q-23 0 -45 -9.5t-39 -25.5t-28 -37.5
t-11 -44.5q0 -14 11 -16t22 -2q21 0 40.5 8.5t35 23t24.5 34t9 40.5z" />
    <glyph glyph-name="guillemotright" unicode="&#xbb;" horiz-adv-x="900" 
d="M858 405q0 -33 -21 -53.5t-52 -40.5q-27 -17 -53 -35.5t-49 -38.5t-42 -42.5t-31 -47.5t-33.5 -39.5t-58.5 -14.5q-40 0 -70 20t-30 51q0 29 25 62t60 65t71.5 61.5t60.5 52.5q-44 45 -100.5 80.5t-115.5 69.5q-20 11 -31.5 24t-11.5 33q0 15 7.5 28.5t20.5 24.5t31 17.5
t38 6.5q31 0 71.5 -22t82 -51t78.5 -59t61 -46q15 -11 30.5 -21t28.5 -22q14 -14 23.5 -30t9.5 -33zM498 395q0 -33 -21 -53.5t-52 -40.5q-27 -17 -53 -35.5t-49 -38.5t-42 -42.5t-31 -47.5t-33.5 -39.5t-58.5 -14.5q-40 0 -70 20t-30 51q0 29 25 62t60 65t71.5 61.5
t60.5 52.5q-44 45 -100.5 80.5t-115.5 69.5q-20 11 -31.5 24t-11.5 33q0 15 7.5 28.5t20.5 24.5t31 17.5t38 6.5q31 0 71.5 -22t82 -51t78.5 -59t61 -46q15 -11 30.5 -21t28.5 -22q14 -14 23.5 -30t9.5 -33z" />
    <glyph glyph-name="questiondown" unicode="&#xbf;" horiz-adv-x="674" 
d="M546 663q0 -29 -9.5 -50t-26.5 -36t-39.5 -24.5t-47.5 -15.5q-19 -5 -39.5 -9.5t-39.5 -4.5q-22 0 -39.5 9.5t-30 25.5t-19 36t-6.5 40q0 30 10.5 49t28 31t40 19.5t46.5 13.5q20 5 43.5 15t43.5 10q21 0 37 -10t26.5 -26t16 -35.5t5.5 -37.5zM662 125q0 -23 -8 -41
t-22 -35q-31 -37 -68 -71.5t-80 -60.5t-90 -42t-97 -16q-39 0 -85.5 10t-86 32t-66 55.5t-26.5 81.5q0 32 11.5 63.5t30 61.5t41 56.5t43.5 48.5q-32 10 -47.5 32.5t-15.5 54.5q0 40 26 68.5t67 28.5q17 0 34 -2t34 -2q60 0 117.5 11.5t115.5 25.5q7 2 13.5 3t13.5 1
q39 0 62 -28t23 -65q0 -39 -19.5 -62t-54.5 -37q-18 -7 -47.5 -22t-63.5 -35t-68.5 -43.5t-63 -48t-46 -48.5t-17.5 -45q0 -3 2 -9q12 -3 23 -3q37 0 74 16.5t71.5 40.5t66 52t57.5 51q13 11 27 18.5t32 7.5q20 0 36 -9.5t27.5 -24.5t17.5 -33.5t6 -36.5z" />
    <glyph glyph-name="Agrave" unicode="&#xc0;" 
d="M395 855q0 -38 -26 -54.5t-60 -16.5q-21 0 -51.5 8t-61 20.5t-58.5 27t-44 28.5q-17 14 -26.5 30.5t-9.5 38.5q0 18 7 34t19 28.5t28 20t34 7.5q14 0 27 -4.5t25 -12.5q34 -22 65.5 -40.5t69.5 -32.5q29 -11 45.5 -30.5t16.5 -51.5zM678 94q0 -17 -8 -32.5t-21 -26.5
t-30 -17.5t-36 -6.5q-27 0 -48 13.5t-37.5 33.5t-30 42t-25.5 40q-54 -4 -114.5 -12.5t-113.5 -17.5q-3 -15 -3.5 -26.5t-1 -22t-1 -21.5t-3.5 -26q-7 -36 -30.5 -60t-66.5 -24q-46 0 -68 27t-22 65q0 75 18.5 165.5t48.5 182.5t69 178t80 151q13 21 33 36.5t49 15.5
q35 0 54.5 -21t30.5 -47q10 -25 18.5 -49.5t18.5 -49.5q12 -30 26 -64t29 -68.5t30.5 -68t30.5 -62.5q45 -3 73 -24t28 -64q0 -31 -18 -53q13 -19 27 -41t14 -45zM346 306q-11 22 -23.5 55t-20.5 56q-4 -12 -9 -28t-11 -32.5t-11 -32.5t-9 -28z" />
    <glyph glyph-name="Aacute" unicode="&#xc1;" 
d="M578 922q0 -34 -17.5 -54.5t-48.5 -31.5q-13 -5 -45 -14t-67 -19t-66 -17t-41 -7q-35 0 -61.5 18t-26.5 56q0 23 11 40.5t29 31.5q15 11 49 26.5t72 29.5t74 24t54 10q19 0 34.5 -8t26.5 -20.5t17 -29.5t6 -35zM678 94q0 -17 -8 -32.5t-21 -26.5t-30 -17.5t-36 -6.5
q-27 0 -48 13.5t-37.5 33.5t-30 42t-25.5 40q-54 -4 -114.5 -12.5t-113.5 -17.5q-3 -15 -3.5 -26.5t-1 -22t-1 -21.5t-3.5 -26q-7 -36 -30.5 -60t-66.5 -24q-46 0 -68 27t-22 65q0 75 18.5 165.5t48.5 182.5t69 178t80 151q13 21 33 36.5t49 15.5q35 0 54.5 -21t30.5 -47
q10 -25 18.5 -49.5t18.5 -49.5q12 -30 26 -64t29 -68.5t30.5 -68t30.5 -62.5q45 -3 73 -24t28 -64q0 -31 -18 -53q13 -19 27 -41t14 -45zM346 306q-11 22 -23.5 55t-20.5 56q-4 -12 -9 -28t-11 -32.5t-11 -32.5t-9 -28z" />
    <glyph glyph-name="Acircumflex" unicode="&#xc2;" 
d="M539 808q0 -24 -20.5 -44t-54.5 -20q-23 0 -49.5 11.5t-51.5 28t-46.5 35t-34.5 31.5q-11 -14 -18.5 -29t-12.5 -32q-8 -24 -28 -39.5t-55 -15.5q-40 0 -60 21.5t-20 49.5q0 19 9.5 43.5t24 49.5t31.5 47t33 37q17 17 40.5 28.5t52.5 11.5t53.5 -10.5t40.5 -28.5t29 -33
t26.5 -28.5t30 -27t39.5 -28.5q19 -11 30 -24.5t11 -33.5zM678 94q0 -17 -8 -32.5t-21 -26.5t-30 -17.5t-36 -6.5q-27 0 -48 13.5t-37.5 33.5t-30 42t-25.5 40q-54 -4 -114.5 -12.5t-113.5 -17.5q-3 -15 -3.5 -26.5t-1 -22t-1 -21.5t-3.5 -26q-7 -36 -30.5 -60t-66.5 -24
q-46 0 -68 27t-22 65q0 75 18.5 165.5t48.5 182.5t69 178t80 151q13 21 33 36.5t49 15.5q35 0 54.5 -21t30.5 -47q10 -25 18.5 -49.5t18.5 -49.5q12 -30 26 -64t29 -68.5t30.5 -68t30.5 -62.5q45 -3 73 -24t28 -64q0 -31 -18 -53q13 -19 27 -41t14 -45zM346 306
q-11 22 -23.5 55t-20.5 56q-4 -12 -9 -28t-11 -32.5t-11 -32.5t-9 -28z" />
    <glyph glyph-name="Atilde" unicode="&#xc3;" 
d="M678 94q0 -17 -8 -32.5t-21 -26.5t-30 -17.5t-36 -6.5q-27 0 -48 13.5t-37.5 33.5t-30 42t-25.5 40q-54 -4 -114.5 -12.5t-113.5 -17.5q-3 -15 -3.5 -26.5t-1 -22t-1 -21.5t-3.5 -26q-7 -36 -30.5 -60t-66.5 -24q-46 0 -68 27t-22 65q0 75 18.5 165.5t48.5 182.5t69 178
t80 151q9 14 21.5 26.5t28.5 19.5q-23 14 -40 25t-22 11q-14 0 -25.5 -16t-11.5 -29q0 -2 0.5 -4.5t0.5 -4.5q0 -9 -6.5 -16.5t-16 -13t-20 -9t-17.5 -3.5q-16 0 -32.5 7t-29.5 18.5t-21.5 26.5t-8.5 32q0 12 3.5 27.5t7.5 26.5q20 56 61 91t102 35q33 0 54.5 -9t37 -20.5
t26 -20.5t21.5 -9q10 0 17.5 9t15.5 19.5t18.5 19.5t27.5 9q18 0 33.5 -8.5t27 -22t18 -30t6.5 -33.5q0 -26 -10 -50.5t-27.5 -43.5t-40.5 -31t-49 -13q5 -8 9 -16l8 -16q10 -25 18.5 -49.5t18.5 -49.5q12 -30 26 -64t29 -68.5t30.5 -68t30.5 -62.5q45 -3 73 -24t28 -64
q0 -31 -18 -53q13 -19 27 -41t14 -45zM346 306q-11 22 -23.5 55t-20.5 56q-4 -12 -9 -28t-11 -32.5t-11 -32.5t-9 -28z" />
    <glyph glyph-name="Adieresis" unicode="&#xc4;" 
d="M529 890q0 -29 -10 -54t-25.5 -44t-35.5 -30t-41 -11q-30 0 -53 26t-23 68q0 28 12 53.5t30 45t39.5 31t40.5 11.5q32 0 49 -27t17 -69zM278 882q0 -30 -10 -56t-26 -46t-36 -31.5t-41 -11.5q-31 0 -54.5 27t-23.5 72q0 29 12 55.5t31 46.5t40.5 32t41.5 12q32 0 49 -28
t17 -72zM678 94q0 -17 -8 -32.5t-21 -26.5t-30 -17.5t-36 -6.5q-27 0 -48 13.5t-37.5 33.5t-30 42t-25.5 40q-54 -4 -114.5 -12.5t-113.5 -17.5q-3 -15 -3.5 -26.5t-1 -22t-1 -21.5t-3.5 -26q-7 -36 -30.5 -60t-66.5 -24q-46 0 -68 27t-22 65q0 75 18.5 165.5t48.5 182.5
t69 178t80 151q13 21 33 36.5t49 15.5q35 0 54.5 -21t30.5 -47q10 -25 18.5 -49.5t18.5 -49.5q12 -30 26 -64t29 -68.5t30.5 -68t30.5 -62.5q45 -3 73 -24t28 -64q0 -31 -18 -53q13 -19 27 -41t14 -45zM346 306q-11 22 -23.5 55t-20.5 56q-4 -12 -9 -28t-11 -32.5t-11 -32.5
t-9 -28z" />
    <glyph glyph-name="Aring" unicode="&#xc5;" 
d="M678 94q0 -17 -8 -32.5t-21 -26.5t-30 -17.5t-36 -6.5q-27 0 -48 13.5t-37.5 33.5t-30 42t-25.5 40q-54 -4 -114.5 -12.5t-113.5 -17.5q-3 -15 -3.5 -26.5t-1 -22t-1 -21.5t-3.5 -26q-7 -36 -30.5 -60t-66.5 -24q-46 0 -68 27t-22 65q0 63 13 137t35.5 151t52 152.5
t62.5 141.5q-26 6 -51 16t-44 26t-30.5 37t-11.5 50q0 56 33 95.5t81.5 64t104 36t100.5 11.5q35 0 72.5 -7t69 -23.5t51.5 -45t20 -70.5q0 -33 -12.5 -59.5t-33.5 -48t-48.5 -38t-57.5 -27.5q4 -9 7 -18.5t7 -18.5q12 -30 26 -64t29 -68.5t30.5 -68t30.5 -62.5
q45 -3 73 -24t28 -64q0 -31 -18 -53q13 -19 27 -41t14 -45zM389 791q0 7 -9 7h-14q-10 0 -32 -3.5t-45 -10t-40.5 -17t-17.5 -25.5q0 -5 6 -5q8 0 15.5 2t15.5 2h9q16 10 39 10h13q23 5 41.5 15.5t18.5 24.5zM346 306q-11 22 -23.5 55t-20.5 56q-4 -12 -9 -28t-11 -32.5
t-11 -32.5t-9 -28z" />
    <glyph glyph-name="AE" unicode="&#xc6;" horiz-adv-x="1071" 
d="M1051 133q0 -30 -16.5 -49t-42.5 -31q-42 -20 -87 -34t-90 -29q-47 -16 -90.5 -35t-88.5 -39q-12 -5 -24.5 -9t-26.5 -4q-43 0 -65.5 28t-29.5 66q-5 23 -8.5 45t-7.5 45q-4 12 -6.5 26t-5.5 29q-57 -5 -121 -6.5t-121 -12.5q-10 -17 -16.5 -31t-12.5 -26.5t-12.5 -26.5
t-16.5 -31q-20 -35 -51.5 -60.5t-73.5 -25.5q-33 0 -50 18t-17 50q0 13 2.5 26t7.5 25q23 59 57.5 125t76.5 134t89.5 135.5t96.5 131.5t97 121t92 103q19 20 39 32t49 12q20 0 34 -8.5t23 -21.5q48 7 97 9t83 2q29 0 57 -3.5t50 -14.5t35.5 -32.5t13.5 -57.5t-15 -53.5
t-37.5 -24t-49.5 -6t-52 0.5q-42 0 -84 -1.5t-82 -12.5q-5 -27 -7.5 -54t-3.5 -55q79 17 159.5 28t161.5 11q41 0 65 -27t24 -67q0 -42 -23.5 -66.5t-63.5 -31.5q-23 -4 -45 -5.5t-45 -3.5q-59 -7 -116 -17t-114 -26q3 -39 7.5 -77.5t9.5 -76.5q27 11 65 25.5t78.5 27.5
t78.5 22t67 9q20 0 38.5 -7t33 -19.5t23 -29.5t8.5 -38zM437 327q-1 12 -1.5 29.5t-0.5 37t0.5 37t0.5 29.5l-85 -128z" />
    <glyph glyph-name="Ccedilla" unicode="&#xc7;" horiz-adv-x="573" 
d="M703 205q0 -29 -16 -47t-43 -30q-29 -13 -63 -23.5t-71 -19.5q11 -26 18 -53t7 -53q0 -52 -27 -91t-69 -67q-25 -17 -55.5 -22t-59.5 -5q-28 0 -62.5 5.5t-65 19.5t-51.5 37t-21 59q0 35 20 57.5t56 22.5q16 0 31.5 -4.5t30 -10t29 -10t29.5 -4.5q13 0 23 8.5t10 22.5
q0 13 -7.5 28t-19.5 31q-10 0 -19 -0.5t-18 -0.5q-72 0 -124 19t-86.5 54.5t-51 85t-16.5 111.5q0 31 8.5 77t24.5 98t40 103.5t54.5 92.5t67.5 67t80 26q52 0 97 -17.5t77 -47.5t50.5 -70.5t18.5 -86.5q0 -37 -27 -60.5t-68 -23.5q-31 0 -48.5 9t-27 23t-14 30t-8.5 31
t-10.5 26t-20.5 14q-17 -22 -35 -60t-33.5 -80.5t-25.5 -83t-10 -67.5q0 -25 2 -43.5t10.5 -31t26 -18.5t49.5 -6q37 0 73 5t71 13q16 4 41 12t51 16.5t49.5 14.5t35.5 6q20 0 37 -7.5t29.5 -19.5t19.5 -28t7 -33z" />
    <glyph glyph-name="Egrave" unicode="&#xc8;" horiz-adv-x="671" 
d="M415 845q0 -38 -26 -54.5t-60 -16.5q-21 0 -51.5 8t-61 20.5t-58.5 27t-44 28.5q-17 14 -26.5 30.5t-9.5 38.5q0 18 7 34t19 28.5t28 20t34 7.5q14 0 27 -4.5t25 -12.5q34 -22 65.5 -40.5t69.5 -32.5q29 -11 45.5 -30.5t16.5 -51.5zM651 120q0 -27 -16.5 -44t-42.5 -28
q-42 -18 -87 -30.5t-90 -26.5q-47 -14 -90.5 -31t-88.5 -36q-12 -5 -24.5 -8t-26.5 -3q-43 0 -65 25t-30 59q-22 100 -32.5 201.5t-10.5 203.5q0 16 1 41t3 54t7 59.5t12 57.5t18 47.5t26 29.5q24 15 63 23.5t81.5 13t84 5.5t71.5 1q29 0 57 -3t50 -13t35.5 -29t13.5 -52
q0 -32 -15 -47.5t-37.5 -21.5t-49.5 -5.5t-52 0.5q-42 0 -84 -1.5t-82 -11.5q-5 -24 -7.5 -48.5t-3.5 -49.5q79 15 159.5 25t161.5 10q41 0 65 -24.5t24 -60.5q0 -37 -23.5 -59.5t-63.5 -28.5q-23 -3 -45 -4.5t-45 -3.5q-59 -6 -116 -15.5t-114 -23.5q3 -35 7.5 -69t9.5 -69
q27 10 65 23t78.5 24.5t78.5 19.5t67 8q20 0 38.5 -6t33 -17t23 -26.5t8.5 -34.5z" />
    <glyph glyph-name="Eacute" unicode="&#xc9;" horiz-adv-x="671" 
d="M558 912q0 -34 -17.5 -54.5t-48.5 -31.5q-13 -5 -45 -14t-67 -19t-66 -17t-41 -7q-35 0 -61.5 18t-26.5 56q0 23 11 40.5t29 31.5q15 11 49 26.5t72 29.5t74 24t54 10q19 0 34.5 -8t26.5 -20.5t17 -29.5t6 -35zM651 120q0 -27 -16.5 -44t-42.5 -28q-42 -18 -87 -30.5
t-90 -26.5q-47 -14 -90.5 -31t-88.5 -36q-12 -5 -24.5 -8t-26.5 -3q-43 0 -65 25t-30 59q-22 100 -32.5 201.5t-10.5 203.5q0 16 1 41t3 54t7 59.5t12 57.5t18 47.5t26 29.5q24 15 63 23.5t81.5 13t84 5.5t71.5 1q29 0 57 -3t50 -13t35.5 -29t13.5 -52q0 -32 -15 -47.5
t-37.5 -21.5t-49.5 -5.5t-52 0.5q-42 0 -84 -1.5t-82 -11.5q-5 -24 -7.5 -48.5t-3.5 -49.5q79 15 159.5 25t161.5 10q41 0 65 -24.5t24 -60.5q0 -37 -23.5 -59.5t-63.5 -28.5q-23 -3 -45 -4.5t-45 -3.5q-59 -6 -116 -15.5t-114 -23.5q3 -35 7.5 -69t9.5 -69q27 10 65 23
t78.5 24.5t78.5 19.5t67 8q20 0 38.5 -6t33 -17t23 -26.5t8.5 -34.5z" />
    <glyph glyph-name="Ecircumflex" unicode="&#xca;" horiz-adv-x="671" 
d="M559 838q0 -24 -20.5 -44t-54.5 -20q-23 0 -49.5 11.5t-51.5 28t-46.5 35t-34.5 31.5q-11 -14 -18.5 -29t-12.5 -32q-8 -24 -28 -39.5t-55 -15.5q-40 0 -60 21.5t-20 49.5q0 19 9.5 43.5t24 49.5t31.5 47t33 37q17 17 40.5 28.5t52.5 11.5t53.5 -10.5t40.5 -28.5t29 -33
t26.5 -28.5t30 -27t39.5 -28.5q19 -11 30 -24.5t11 -33.5zM651 120q0 -27 -16.5 -44t-42.5 -28q-42 -18 -87 -30.5t-90 -26.5q-47 -14 -90.5 -31t-88.5 -36q-12 -5 -24.5 -8t-26.5 -3q-43 0 -65 25t-30 59q-22 100 -32.5 201.5t-10.5 203.5q0 16 1 41t3 54t7 59.5t12 57.5
t18 47.5t26 29.5q24 15 63 23.5t81.5 13t84 5.5t71.5 1q29 0 57 -3t50 -13t35.5 -29t13.5 -52q0 -32 -15 -47.5t-37.5 -21.5t-49.5 -5.5t-52 0.5q-42 0 -84 -1.5t-82 -11.5q-5 -24 -7.5 -48.5t-3.5 -49.5q79 15 159.5 25t161.5 10q41 0 65 -24.5t24 -60.5q0 -37 -23.5 -59.5
t-63.5 -28.5q-23 -3 -45 -4.5t-45 -3.5q-59 -6 -116 -15.5t-114 -23.5q3 -35 7.5 -69t9.5 -69q27 10 65 23t78.5 24.5t78.5 19.5t67 8q20 0 38.5 -6t33 -17t23 -26.5t8.5 -34.5z" />
    <glyph glyph-name="Edieresis" unicode="&#xcb;" horiz-adv-x="671" 
d="M549 920q0 -29 -10 -54t-25.5 -44t-35.5 -30t-41 -11q-30 0 -53 26t-23 68q0 28 12 53.5t30 45t39.5 31t40.5 11.5q32 0 49 -27t17 -69zM298 912q0 -30 -10 -56t-26 -46t-36 -31.5t-41 -11.5q-31 0 -54.5 27t-23.5 72q0 29 12 55.5t31 46.5t40.5 32t41.5 12q32 0 49 -28
t17 -72zM651 120q0 -27 -16.5 -44t-42.5 -28q-42 -18 -87 -30.5t-90 -26.5q-47 -14 -90.5 -31t-88.5 -36q-12 -5 -24.5 -8t-26.5 -3q-43 0 -65 25t-30 59q-22 100 -32.5 201.5t-10.5 203.5q0 16 1 41t3 54t7 59.5t12 57.5t18 47.5t26 29.5q24 15 63 23.5t81.5 13t84 5.5
t71.5 1q29 0 57 -3t50 -13t35.5 -29t13.5 -52q0 -32 -15 -47.5t-37.5 -21.5t-49.5 -5.5t-52 0.5q-42 0 -84 -1.5t-82 -11.5q-5 -24 -7.5 -48.5t-3.5 -49.5q79 15 159.5 25t161.5 10q41 0 65 -24.5t24 -60.5q0 -37 -23.5 -59.5t-63.5 -28.5q-23 -3 -45 -4.5t-45 -3.5
q-59 -6 -116 -15.5t-114 -23.5q3 -35 7.5 -69t9.5 -69q27 10 65 23t78.5 24.5t78.5 19.5t67 8q20 0 38.5 -6t33 -17t23 -26.5t8.5 -34.5z" />
    <glyph glyph-name="Igrave" unicode="&#xcc;" horiz-adv-x="743" 
d="M395 815q0 -38 -26 -54.5t-60 -16.5q-21 0 -51.5 8t-61 20.5t-58.5 27t-44 28.5q-17 14 -26.5 30.5t-9.5 38.5q0 18 7 34t19 28.5t28 20t34 7.5q14 0 27 -4.5t25 -12.5q34 -22 65.5 -40.5t69.5 -32.5q29 -11 45.5 -30.5t16.5 -51.5zM710 122q0 -26 -14.5 -45t-38.5 -30
q-50 -24 -110 -39.5t-123 -24.5t-126.5 -12.5t-119.5 -3.5q-42 0 -68.5 24t-26.5 61q0 33 15.5 51t39.5 26t53 9.5t56 1.5q-12 68 -15 135.5t-3 136.5q0 29 1.5 56.5t3.5 55.5q-32 -7 -68 -15.5t-69 -8.5q-17 0 -33.5 5t-29.5 14t-21 22t-8 30q0 30 32.5 52.5t83 39.5
t112.5 28.5t121 18.5t108 10t74 3q26 0 50 -3t42.5 -12.5t29.5 -26.5t11 -45q0 -27 -10 -43.5t-27 -25.5t-39.5 -12t-47.5 -3q-30 0 -59.5 -3t-59.5 -4q-4 -30 -5.5 -60t-1.5 -59q0 -67 2 -133.5t8 -133.5q38 8 73.5 17.5t70.5 23.5q11 4 21.5 7t22.5 3q19 0 36 -7.5
t30 -19.5t20 -28t7 -33z" />
    <glyph glyph-name="Iacute" unicode="&#xcd;" horiz-adv-x="743" 
d="M608 892q0 -34 -17.5 -54.5t-48.5 -31.5q-13 -5 -45 -14t-67 -19t-66 -17t-41 -7q-35 0 -61.5 18t-26.5 56q0 23 11 40.5t29 31.5q15 11 49 26.5t72 29.5t74 24t54 10q19 0 34.5 -8t26.5 -20.5t17 -29.5t6 -35zM710 122q0 -26 -14.5 -45t-38.5 -30q-50 -24 -110 -39.5
t-123 -24.5t-126.5 -12.5t-119.5 -3.5q-42 0 -68.5 24t-26.5 61q0 33 15.5 51t39.5 26t53 9.5t56 1.5q-12 68 -15 135.5t-3 136.5q0 29 1.5 56.5t3.5 55.5q-32 -7 -68 -15.5t-69 -8.5q-17 0 -33.5 5t-29.5 14t-21 22t-8 30q0 30 32.5 52.5t83 39.5t112.5 28.5t121 18.5
t108 10t74 3q26 0 50 -3t42.5 -12.5t29.5 -26.5t11 -45q0 -27 -10 -43.5t-27 -25.5t-39.5 -12t-47.5 -3q-30 0 -59.5 -3t-59.5 -4q-4 -30 -5.5 -60t-1.5 -59q0 -67 2 -133.5t8 -133.5q38 8 73.5 17.5t70.5 23.5q11 4 21.5 7t22.5 3q19 0 36 -7.5t30 -19.5t20 -28t7 -33z" />
    <glyph glyph-name="Icircumflex" unicode="&#xce;" horiz-adv-x="743" 
d="M549 818q0 -24 -20.5 -44t-54.5 -20q-23 0 -49.5 11.5t-51.5 28t-46.5 35t-34.5 31.5q-11 -14 -18.5 -29t-12.5 -32q-8 -24 -28 -39.5t-55 -15.5q-40 0 -60 21.5t-20 49.5q0 19 9.5 43.5t24 49.5t31.5 47t33 37q17 17 40.5 28.5t52.5 11.5t53.5 -10.5t40.5 -28.5t29 -33
t26.5 -28.5t30 -27t39.5 -28.5q19 -11 30 -24.5t11 -33.5zM710 122q0 -26 -14.5 -45t-38.5 -30q-50 -24 -110 -39.5t-123 -24.5t-126.5 -12.5t-119.5 -3.5q-42 0 -68.5 24t-26.5 61q0 33 15.5 51t39.5 26t53 9.5t56 1.5q-12 68 -15 135.5t-3 136.5q0 29 1.5 56.5t3.5 55.5
q-32 -7 -68 -15.5t-69 -8.5q-17 0 -33.5 5t-29.5 14t-21 22t-8 30q0 30 32.5 52.5t83 39.5t112.5 28.5t121 18.5t108 10t74 3q26 0 50 -3t42.5 -12.5t29.5 -26.5t11 -45q0 -27 -10 -43.5t-27 -25.5t-39.5 -12t-47.5 -3q-30 0 -59.5 -3t-59.5 -4q-4 -30 -5.5 -60t-1.5 -59
q0 -67 2 -133.5t8 -133.5q38 8 73.5 17.5t70.5 23.5q11 4 21.5 7t22.5 3q19 0 36 -7.5t30 -19.5t20 -28t7 -33z" />
    <glyph glyph-name="Idieresis" unicode="&#xcf;" horiz-adv-x="743" 
d="M549 890q0 -29 -10 -54t-25.5 -44t-35.5 -30t-41 -11q-30 0 -53 26t-23 68q0 28 12 53.5t30 45t39.5 31t40.5 11.5q32 0 49 -27t17 -69zM298 882q0 -30 -10 -56t-26 -46t-36 -31.5t-41 -11.5q-31 0 -54.5 27t-23.5 72q0 29 12 55.5t31 46.5t40.5 32t41.5 12q32 0 49 -28
t17 -72zM710 122q0 -26 -14.5 -45t-38.5 -30q-50 -24 -110 -39.5t-123 -24.5t-126.5 -12.5t-119.5 -3.5q-42 0 -68.5 24t-26.5 61q0 33 15.5 51t39.5 26t53 9.5t56 1.5q-12 68 -15 135.5t-3 136.5q0 29 1.5 56.5t3.5 55.5q-32 -7 -68 -15.5t-69 -8.5q-17 0 -33.5 5t-29.5 14
t-21 22t-8 30q0 30 32.5 52.5t83 39.5t112.5 28.5t121 18.5t108 10t74 3q26 0 50 -3t42.5 -12.5t29.5 -26.5t11 -45q0 -27 -10 -43.5t-27 -25.5t-39.5 -12t-47.5 -3q-30 0 -59.5 -3t-59.5 -4q-4 -30 -5.5 -60t-1.5 -59q0 -67 2 -133.5t8 -133.5q38 8 73.5 17.5t70.5 23.5
q11 4 21.5 7t22.5 3q19 0 36 -7.5t30 -19.5t20 -28t7 -33z" />
    <glyph glyph-name="Ntilde" unicode="&#xd1;" horiz-adv-x="663" 
d="M627 58q0 -35 -21.5 -62.5t-63.5 -27.5q-29 0 -52.5 13t-42.5 32q-52 49 -101 100.5t-89 109.5q1 -29 1.5 -56.5t0.5 -56.5q0 -23 -2.5 -44t-11.5 -37.5t-27 -26.5t-49 -10q-45 0 -72.5 24.5t-27.5 64.5q0 20 1.5 41t1.5 41q0 68 -4.5 134.5t-11.5 134.5q-2 13 -3.5 31
t-2.5 36.5t-2 36t-1 30.5q0 18 7 35.5t20 30.5t31 21t39 8q29 0 49.5 -14.5t34.5 -36.5q23 -36 43.5 -73.5t42.5 -74.5t46 -72.5t54 -68.5q-6 65 -9.5 129t-3.5 129q0 19 1.5 40t6.5 42t14.5 39.5t24.5 31.5q-18 -7 -41 -7q-26 0 -51.5 10.5t-47 22.5t-37 22.5t-19.5 10.5
q-14 0 -25.5 -16t-11.5 -29q0 -2 0.5 -4.5t0.5 -4.5q0 -9 -6.5 -16.5t-16 -13t-20 -9t-17.5 -3.5q-16 0 -32.5 7t-29.5 18.5t-21.5 26.5t-8.5 32q0 12 3.5 27.5t7.5 26.5q20 56 61 91t102 35q33 0 54.5 -9t37 -20.5t26 -20.5t21.5 -9q10 0 17.5 9t15.5 19.5t18.5 19.5
t27.5 9q18 0 33.5 -8.5t27 -22t18 -30t6.5 -33.5q0 -35 -16.5 -64.5t-43.5 -49.5q13 4 33 4q42 0 66 -23.5t24 -59.5q0 -9 -1 -13q-9 -66 -9 -133q0 -78 4.5 -156t12.5 -156q5 -38 10.5 -76.5t5.5 -77.5z" />
    <glyph glyph-name="Ograve" unicode="&#xd2;" horiz-adv-x="636" 
d="M415 815q0 -38 -26 -54.5t-60 -16.5q-21 0 -51.5 8t-61 20.5t-58.5 27t-44 28.5q-17 14 -26.5 30.5t-9.5 38.5q0 18 7 34t19 28.5t28 20t34 7.5q14 0 27 -4.5t25 -12.5q34 -22 65.5 -40.5t69.5 -32.5q29 -11 45.5 -30.5t16.5 -51.5zM623 336q0 -170 -153 -276
q-25 -17 -55.5 -35t-63.5 -32.5t-67 -24t-66 -9.5q-53 0 -92.5 23.5t-65 60.5t-38 81.5t-12.5 85.5q0 57 13.5 116t38 115t60 107.5t80.5 92.5q10 10 24.5 21.5t30.5 22t33 17.5t33 7q28 0 61.5 -18t65.5 -43.5t59 -54t42 -48.5q34 -44 53 -99.5t19 -109.5zM438 362
q0 19 -11.5 41t-28.5 43.5t-36 40t-34 31.5q-26 -27 -51 -62t-44.5 -73t-31.5 -77.5t-12 -75.5q0 -10 0.5 -25t4.5 -29.5t12.5 -24.5t24.5 -10q13 0 29.5 4.5t33 11.5t31.5 15.5t25 15.5q44 30 66 77.5t22 96.5z" />
    <glyph glyph-name="Oacute" unicode="&#xd3;" horiz-adv-x="636" 
d="M568 892q0 -34 -17.5 -54.5t-48.5 -31.5q-13 -5 -45 -14t-67 -19t-66 -17t-41 -7q-35 0 -61.5 18t-26.5 56q0 23 11 40.5t29 31.5q15 11 49 26.5t72 29.5t74 24t54 10q19 0 34.5 -8t26.5 -20.5t17 -29.5t6 -35zM623 336q0 -170 -153 -276q-25 -17 -55.5 -35t-63.5 -32.5
t-67 -24t-66 -9.5q-53 0 -92.5 23.5t-65 60.5t-38 81.5t-12.5 85.5q0 57 13.5 116t38 115t60 107.5t80.5 92.5q10 10 24.5 21.5t30.5 22t33 17.5t33 7q28 0 61.5 -18t65.5 -43.5t59 -54t42 -48.5q34 -44 53 -99.5t19 -109.5zM438 362q0 19 -11.5 41t-28.5 43.5t-36 40
t-34 31.5q-26 -27 -51 -62t-44.5 -73t-31.5 -77.5t-12 -75.5q0 -10 0.5 -25t4.5 -29.5t12.5 -24.5t24.5 -10q13 0 29.5 4.5t33 11.5t31.5 15.5t25 15.5q44 30 66 77.5t22 96.5z" />
    <glyph glyph-name="Ocircumflex" unicode="&#xd4;" horiz-adv-x="636" 
d="M549 788q0 -24 -20.5 -44t-54.5 -20q-23 0 -49.5 11.5t-51.5 28t-46.5 35t-34.5 31.5q-11 -14 -18.5 -29t-12.5 -32q-8 -24 -28 -39.5t-55 -15.5q-40 0 -60 21.5t-20 49.5q0 19 9.5 43.5t24 49.5t31.5 47t33 37q17 17 40.5 28.5t52.5 11.5t53.5 -10.5t40.5 -28.5t29 -33
t26.5 -28.5t30 -27t39.5 -28.5q19 -11 30 -24.5t11 -33.5zM623 336q0 -170 -153 -276q-25 -17 -55.5 -35t-63.5 -32.5t-67 -24t-66 -9.5q-53 0 -92.5 23.5t-65 60.5t-38 81.5t-12.5 85.5q0 57 13.5 116t38 115t60 107.5t80.5 92.5q10 10 24.5 21.5t30.5 22t33 17.5t33 7
q28 0 61.5 -18t65.5 -43.5t59 -54t42 -48.5q34 -44 53 -99.5t19 -109.5zM438 362q0 19 -11.5 41t-28.5 43.5t-36 40t-34 31.5q-26 -27 -51 -62t-44.5 -73t-31.5 -77.5t-12 -75.5q0 -10 0.5 -25t4.5 -29.5t12.5 -24.5t24.5 -10q13 0 29.5 4.5t33 11.5t31.5 15.5t25 15.5
q44 30 66 77.5t22 96.5z" />
    <glyph glyph-name="Otilde" unicode="&#xd5;" horiz-adv-x="636" 
d="M541 863q0 -27 -10.5 -52t-29 -44t-43 -30.5t-51.5 -11.5q-26 0 -51.5 10.5t-47 22.5t-37 22.5t-19.5 10.5q-14 0 -25.5 -16t-11.5 -29q0 -2 0.5 -4.5t0.5 -4.5q0 -9 -6.5 -16.5t-16 -13t-20 -9t-17.5 -3.5q-16 0 -32.5 7t-29.5 18.5t-21.5 26.5t-8.5 32q0 12 3.5 27.5
t7.5 26.5q20 56 61 91t102 35q33 0 54.5 -9t37 -20.5t26 -20.5t21.5 -9q10 0 17.5 9t15.5 19.5t18.5 19.5t27.5 9q18 0 33.5 -8.5t27 -22t18 -30t6.5 -33.5zM623 336q0 -170 -153 -276q-25 -17 -55.5 -35t-63.5 -32.5t-67 -24t-66 -9.5q-53 0 -92.5 23.5t-65 60.5t-38 81.5
t-12.5 85.5q0 57 13.5 116t38 115t60 107.5t80.5 92.5q10 10 24.5 21.5t30.5 22t33 17.5t33 7q28 0 61.5 -18t65.5 -43.5t59 -54t42 -48.5q34 -44 53 -99.5t19 -109.5zM438 362q0 19 -11.5 41t-28.5 43.5t-36 40t-34 31.5q-26 -27 -51 -62t-44.5 -73t-31.5 -77.5t-12 -75.5
q0 -10 0.5 -25t4.5 -29.5t12.5 -24.5t24.5 -10q13 0 29.5 4.5t33 11.5t31.5 15.5t25 15.5q44 30 66 77.5t22 96.5z" />
    <glyph glyph-name="Odieresis" unicode="&#xd6;" horiz-adv-x="636" 
d="M539 860q0 -29 -10 -54t-25.5 -44t-35.5 -30t-41 -11q-30 0 -53 26t-23 68q0 28 12 53.5t30 45t39.5 31t40.5 11.5q32 0 49 -27t17 -69zM288 852q0 -30 -10 -56t-26 -46t-36 -31.5t-41 -11.5q-31 0 -54.5 27t-23.5 72q0 29 12 55.5t31 46.5t40.5 32t41.5 12q32 0 49 -28
t17 -72zM623 336q0 -170 -153 -276q-25 -17 -55.5 -35t-63.5 -32.5t-67 -24t-66 -9.5q-53 0 -92.5 23.5t-65 60.5t-38 81.5t-12.5 85.5q0 57 13.5 116t38 115t60 107.5t80.5 92.5q10 10 24.5 21.5t30.5 22t33 17.5t33 7q28 0 61.5 -18t65.5 -43.5t59 -54t42 -48.5
q34 -44 53 -99.5t19 -109.5zM438 362q0 19 -11.5 41t-28.5 43.5t-36 40t-34 31.5q-26 -27 -51 -62t-44.5 -73t-31.5 -77.5t-12 -75.5q0 -10 0.5 -25t4.5 -29.5t12.5 -24.5t24.5 -10q13 0 29.5 4.5t33 11.5t31.5 15.5t25 15.5q44 30 66 77.5t22 96.5z" />
    <glyph glyph-name="Oslash" unicode="&#xd8;" horiz-adv-x="636" 
d="M623 373q0 -97 -38.5 -172.5t-114.5 -133.5q-23 -17 -49.5 -35t-56 -34t-60 -27t-60.5 -15l-12 -42q-9 -26 -20.5 -41.5t-28.5 -15.5q-12 0 -22.5 9t-18.5 24.5t-13 36t-5 44.5v10q-29 19 -50.5 48t-35.5 63t-21 70.5t-7 70.5q0 64 13.5 129.5t38 128t60 119t80.5 102.5
q10 11 24.5 24t30.5 24.5t33 19.5t33 8q17 0 35.5 -7.5t38.5 -19.5q5 13 11 25.5t12 25.5q9 18 18.5 29t23.5 11q12 0 22.5 -9.5t18.5 -25t13 -36.5t5 -45q0 -22 -4 -39.5t-10 -34.5v-1q14 -15 25 -29.5t19 -25.5q34 -49 53 -111t19 -122zM438 402q0 12 -4 25.5t-11 27.5
q-51 -129 -99 -264q8 5 14.5 9.5t11.5 8.5q22 16 38.5 38.5t27.5 48t16.5 52.5t5.5 54zM319 564q-25 -30 -48.5 -67.5t-41.5 -78.5t-29 -82.5t-11 -80.5v-20t2 -25q4 11 7.5 21.5t7.5 21.5q27 80 55.5 157.5t57.5 153.5z" />
    <glyph glyph-name="Ugrave" unicode="&#xd9;" horiz-adv-x="647" 
d="M405 805q0 -38 -26 -54.5t-60 -16.5q-21 0 -51.5 8t-61 20.5t-58.5 27t-44 28.5q-17 14 -26.5 30.5t-9.5 38.5q0 18 7 34t19 28.5t28 20t34 7.5q14 0 27 -4.5t25 -12.5q34 -22 65.5 -40.5t69.5 -32.5q29 -11 45.5 -30.5t16.5 -51.5zM613 356q0 -67 -15 -123t-50 -115
q-20 -34 -47 -64t-60 -52.5t-72.5 -35.5t-83.5 -13q-47 0 -84 25t-65 65t-47 90.5t-31.5 101t-18 97t-5.5 78.5q0 27 2 63t7 73.5t14 72t23 58.5q14 23 34 36.5t50 13.5q19 0 37 -6.5t31.5 -18t22 -26.5t8.5 -33q0 -10 -2.5 -19t-6.5 -17q-10 -25 -15.5 -54t-8.5 -59.5
t-4 -60t-1 -56.5q0 -12 0.5 -34.5t2.5 -48.5t6.5 -54t13 -50t22 -36.5t33.5 -14.5q13 0 24.5 5.5t21.5 14.5t17.5 19.5t13.5 19.5q44 70 44 152q0 34 -2.5 63t-8 56.5t-15.5 55t-25 58.5q-5 11 -8.5 20.5t-3.5 21.5q0 18 8 33t21.5 26t31.5 17.5t37 6.5q30 0 53.5 -20.5
t40.5 -53t28.5 -72.5t18.5 -79t10 -73t3 -54z" />
    <glyph glyph-name="Uacute" unicode="&#xda;" horiz-adv-x="647" 
d="M603 904q2 -33 -13.5 -55t-45.5 -36q-13 -5 -44 -17t-65.5 -24.5t-64.5 -22t-40 -10.5q-35 -3 -62.5 12.5t-31.5 53.5q-2 23 7.5 41.5t26.5 33.5q14 13 46.5 31t69.5 35t72 29.5t53 14.5q19 1 35.5 -5.5t28.5 -18.5t19 -28t9 -34zM613 356q0 -67 -15 -123t-50 -115
q-20 -34 -47 -64t-60 -52.5t-72.5 -35.5t-83.5 -13q-47 0 -84 25t-65 65t-47 90.5t-31.5 101t-18 97t-5.5 78.5q0 27 2 63t7 73.5t14 72t23 58.5q14 23 34 36.5t50 13.5q19 0 37 -6.5t31.5 -18t22 -26.5t8.5 -33q0 -10 -2.5 -19t-6.5 -17q-10 -25 -15.5 -54t-8.5 -59.5
t-4 -60t-1 -56.5q0 -12 0.5 -34.5t2.5 -48.5t6.5 -54t13 -50t22 -36.5t33.5 -14.5q13 0 24.5 5.5t21.5 14.5t17.5 19.5t13.5 19.5q44 70 44 152q0 34 -2.5 63t-8 56.5t-15.5 55t-25 58.5q-5 11 -8.5 20.5t-3.5 21.5q0 18 8 33t21.5 26t31.5 17.5t37 6.5q30 0 53.5 -20.5
t40.5 -53t28.5 -72.5t18.5 -79t10 -73t3 -54z" />
    <glyph glyph-name="Ucircumflex" unicode="&#xdb;" horiz-adv-x="647" 
d="M549 818q0 -24 -20.5 -44t-54.5 -20q-23 0 -49.5 11.5t-51.5 28t-46.5 35t-34.5 31.5q-11 -14 -18.5 -29t-12.5 -32q-8 -24 -28 -39.5t-55 -15.5q-40 0 -60 21.5t-20 49.5q0 19 9.5 43.5t24 49.5t31.5 47t33 37q17 17 40.5 28.5t52.5 11.5t53.5 -10.5t40.5 -28.5t29 -33
t26.5 -28.5t30 -27t39.5 -28.5q19 -11 30 -24.5t11 -33.5zM613 356q0 -67 -15 -123t-50 -115q-20 -34 -47 -64t-60 -52.5t-72.5 -35.5t-83.5 -13q-47 0 -84 25t-65 65t-47 90.5t-31.5 101t-18 97t-5.5 78.5q0 27 2 63t7 73.5t14 72t23 58.5q14 23 34 36.5t50 13.5
q19 0 37 -6.5t31.5 -18t22 -26.5t8.5 -33q0 -10 -2.5 -19t-6.5 -17q-10 -25 -15.5 -54t-8.5 -59.5t-4 -60t-1 -56.5q0 -12 0.5 -34.5t2.5 -48.5t6.5 -54t13 -50t22 -36.5t33.5 -14.5q13 0 24.5 5.5t21.5 14.5t17.5 19.5t13.5 19.5q44 70 44 152q0 34 -2.5 63t-8 56.5
t-15.5 55t-25 58.5q-5 11 -8.5 20.5t-3.5 21.5q0 18 8 33t21.5 26t31.5 17.5t37 6.5q30 0 53.5 -20.5t40.5 -53t28.5 -72.5t18.5 -79t10 -73t3 -54z" />
    <glyph glyph-name="Udieresis" unicode="&#xdc;" horiz-adv-x="647" 
d="M539 910q0 -29 -10 -54t-25.5 -44t-35.5 -30t-41 -11q-30 0 -53 26t-23 68q0 28 12 53.5t30 45t39.5 31t40.5 11.5q32 0 49 -27t17 -69zM288 902q0 -30 -10 -56t-26 -46t-36 -31.5t-41 -11.5q-31 0 -54.5 27t-23.5 72q0 29 12 55.5t31 46.5t40.5 32t41.5 12q32 0 49 -28
t17 -72zM613 356q0 -67 -15 -123t-50 -115q-20 -34 -47 -64t-60 -52.5t-72.5 -35.5t-83.5 -13q-47 0 -84 25t-65 65t-47 90.5t-31.5 101t-18 97t-5.5 78.5q0 27 2 63t7 73.5t14 72t23 58.5q14 23 34 36.5t50 13.5q19 0 37 -6.5t31.5 -18t22 -26.5t8.5 -33q0 -10 -2.5 -19
t-6.5 -17q-10 -25 -15.5 -54t-8.5 -59.5t-4 -60t-1 -56.5q0 -12 0.5 -34.5t2.5 -48.5t6.5 -54t13 -50t22 -36.5t33.5 -14.5q13 0 24.5 5.5t21.5 14.5t17.5 19.5t13.5 19.5q44 70 44 152q0 34 -2.5 63t-8 56.5t-15.5 55t-25 58.5q-5 11 -8.5 20.5t-3.5 21.5q0 18 8 33
t21.5 26t31.5 17.5t37 6.5q30 0 53.5 -20.5t40.5 -53t28.5 -72.5t18.5 -79t10 -73t3 -54z" />
    <glyph glyph-name="Yacute" unicode="&#xdd;" horiz-adv-x="622" 
d="M565 918q8 -33 -4 -57.5t-40 -41.5q-12 -7 -40.5 -23.5t-61 -34t-60.5 -32t-38 -16.5q-34 -8 -64 3t-39 48q-5 23 1.5 43t20.5 37q12 14 41.5 37t63.5 45.5t66.5 40.5t50.5 22t35 0t30.5 -14t23.5 -25t14 -32zM601 662q0 -11 -7 -29.5t-16 -38.5t-18.5 -38.5t-15.5 -30.5
q-58 -128 -95.5 -258.5t-59.5 -266.5q-5 -30 -22.5 -50.5t-55.5 -20.5q-27 0 -47.5 10.5t-34.5 27t-21 38t-7 43.5q0 51 16 99.5t33 96.5q-22 11 -47 33.5t-49.5 51.5t-46.5 62t-39.5 65.5t-27.5 62.5t-10 53q0 16 5.5 36t16 38t26.5 30t37 12q26 0 40 -15t23 -35
q10 -24 24 -52.5t31 -56.5t37.5 -52t44.5 -39q15 40 30.5 79.5t31.5 79.5q8 21 21 46.5t31 48t41.5 37.5t52.5 15q40 0 59 -24.5t19 -57.5z" />
    <glyph glyph-name="germandbls" unicode="&#xdf;" horiz-adv-x="1411" 
d="M1397 218q0 -47 -25 -98.5t-65 -94.5t-89.5 -71t-97.5 -28q-29 0 -66 8.5t-76 24.5t-76.5 38t-67 48.5t-47.5 57.5t-18 64q0 17 2 33t8.5 28t19 19t33.5 7q22 0 43 -13q8 -5 15 -11.5t15 -12.5q16 -14 40 -29.5t50.5 -29t53 -22t48.5 -8.5q19 0 39.5 12.5t37 31t27 40.5
t10.5 41q0 10 -5.5 13t-13.5 6q-12 5 -27.5 8t-32 5.5t-32.5 3.5t-29 3q-53 5 -106 12t-103 27q-33 13 -53.5 32t-32 43t-15.5 53t-4 61q0 28 12 64t32.5 73t48 72t58 62.5t62.5 44.5t63 17q44 0 91 -16t86 -45t64 -69.5t25 -89.5q0 -18 -5.5 -36.5t-16 -33t-26.5 -23.5
t-36 -9q-30 0 -50 19t-37 42t-36 42t-49 19q-15 0 -32 -12.5t-31 -30t-23.5 -37t-9.5 -33.5q0 -11 9 -18.5t21.5 -12.5t25.5 -7.5t21 -4.5q32 -7 63.5 -9.5t63.5 -7.5q63 -9 109.5 -26t76.5 -47t45 -76t15 -113zM709 314q0 -74 -35 -136.5t-91 -109t-125.5 -72.5t-138.5 -26
q-27 0 -66.5 13.5t-78.5 34.5t-71.5 46.5t-44.5 50.5q-7 14 -11 28.5t-4 29.5q0 29 17.5 46.5t46.5 17.5q23 0 46 -10t49.5 -22.5t56.5 -22.5t66 -10q27 0 48 5.5t39 15t34.5 23.5t34.5 32q7 7 17.5 17t10.5 21q0 3 -4 2.5t-6 -0.5q-11 0 -21 1.5t-21 1.5q-43 0 -85.5 -3.5
t-85.5 -3.5q-40 0 -89 4.5t-92.5 20t-73 46.5t-29.5 85q0 27 10 60t26 65.5t34 62.5t35 51q23 30 56.5 61t72 56.5t79.5 41.5t80 16q28 0 57 -16.5t51.5 -41.5t37 -55t14.5 -58q0 -18 -5.5 -36.5t-16.5 -33.5t-26.5 -25t-35.5 -10q-21 0 -33.5 9t-23.5 20.5t-24.5 20.5
t-36.5 9q-18 0 -40.5 -16.5t-42 -39.5t-32.5 -48t-13 -43q0 -8 11 -9.5t16 -1.5q13 0 26 2t26 2q32 0 64.5 1.5t64.5 1.5q43 0 91.5 -6t89.5 -24.5t68 -52.5t27 -89z" />
    <glyph glyph-name="agrave" unicode="&#xe0;" horiz-adv-x="733" 
d="M415 835q0 -38 -26 -54.5t-60 -16.5q-21 0 -51.5 8t-61 20.5t-58.5 27t-44 28.5q-17 14 -26.5 30.5t-9.5 38.5q0 18 7 34t19 28.5t28 20t34 7.5q14 0 27 -4.5t25 -12.5q34 -22 65.5 -40.5t69.5 -32.5q29 -11 45.5 -30.5t16.5 -51.5zM711 87q0 -32 -23.5 -55.5
t-60.5 -23.5q-32 0 -56.5 21t-43.5 50.5t-33.5 61t-26.5 52.5q-67 -6 -135 -25.5t-131 -39.5q-6 -21 -12 -48t-17 -51.5t-30 -41.5t-51 -17q-19 0 -35.5 6.5t-29 18t-19.5 27t-7 32.5q0 25 10 64t26.5 84.5t37.5 95t42 95.5t40 84.5t32 63.5q10 18 26.5 52.5t38 68.5
t46.5 59t51 25q14 0 27 -5.5t24.5 -14t21 -19t15.5 -20.5q15 -27 26 -55t24 -56q24 -54 49 -106.5t51 -105.5q23 -2 43 -6t35 -13.5t24 -25t9 -39.5q0 -17 -6 -32.5t-18 -28.5q4 -13 10 -30.5t12 -35.5t10 -35.5t4 -30.5zM387 348q-14 27 -26 55t-26 55q-17 -31 -31.5 -62.5
t-28.5 -63.5q28 5 55.5 9t56.5 7z" />
    <glyph glyph-name="aacute" unicode="&#xe1;" horiz-adv-x="733" 
d="M608 912q0 -34 -17.5 -54.5t-48.5 -31.5q-13 -5 -45 -14t-67 -19t-66 -17t-41 -7q-35 0 -61.5 18t-26.5 56q0 23 11 40.5t29 31.5q15 11 49 26.5t72 29.5t74 24t54 10q19 0 34.5 -8t26.5 -20.5t17 -29.5t6 -35zM711 87q0 -32 -23.5 -55.5t-60.5 -23.5q-32 0 -56.5 21
t-43.5 50.5t-33.5 61t-26.5 52.5q-67 -6 -135 -25.5t-131 -39.5q-6 -21 -12 -48t-17 -51.5t-30 -41.5t-51 -17q-19 0 -35.5 6.5t-29 18t-19.5 27t-7 32.5q0 25 10 64t26.5 84.5t37.5 95t42 95.5t40 84.5t32 63.5q10 18 26.5 52.5t38 68.5t46.5 59t51 25q14 0 27 -5.5
t24.5 -14t21 -19t15.5 -20.5q15 -27 26 -55t24 -56q24 -54 49 -106.5t51 -105.5q23 -2 43 -6t35 -13.5t24 -25t9 -39.5q0 -17 -6 -32.5t-18 -28.5q4 -13 10 -30.5t12 -35.5t10 -35.5t4 -30.5zM387 348q-14 27 -26 55t-26 55q-17 -31 -31.5 -62.5t-28.5 -63.5q28 5 55.5 9
t56.5 7z" />
    <glyph glyph-name="acircumflex" unicode="&#xe2;" horiz-adv-x="733" 
d="M559 808q0 -24 -20.5 -44t-54.5 -20q-23 0 -49.5 11.5t-51.5 28t-46.5 35t-34.5 31.5q-11 -14 -18.5 -29t-12.5 -32q-8 -24 -28 -39.5t-55 -15.5q-40 0 -60 21.5t-20 49.5q0 19 9.5 43.5t24 49.5t31.5 47t33 37q17 17 40.5 28.5t52.5 11.5t53.5 -10.5t40.5 -28.5t29 -33
t26.5 -28.5t30 -27t39.5 -28.5q19 -11 30 -24.5t11 -33.5zM711 87q0 -32 -23.5 -55.5t-60.5 -23.5q-32 0 -56.5 21t-43.5 50.5t-33.5 61t-26.5 52.5q-67 -6 -135 -25.5t-131 -39.5q-6 -21 -12 -48t-17 -51.5t-30 -41.5t-51 -17q-19 0 -35.5 6.5t-29 18t-19.5 27t-7 32.5
q0 25 10 64t26.5 84.5t37.5 95t42 95.5t40 84.5t32 63.5q10 18 26.5 52.5t38 68.5t46.5 59t51 25q14 0 27 -5.5t24.5 -14t21 -19t15.5 -20.5q15 -27 26 -55t24 -56q24 -54 49 -106.5t51 -105.5q23 -2 43 -6t35 -13.5t24 -25t9 -39.5q0 -17 -6 -32.5t-18 -28.5
q4 -13 10 -30.5t12 -35.5t10 -35.5t4 -30.5zM387 348q-14 27 -26 55t-26 55q-17 -31 -31.5 -62.5t-28.5 -63.5q28 5 55.5 9t56.5 7z" />
    <glyph glyph-name="atilde" unicode="&#xe3;" horiz-adv-x="733" 
d="M711 87q0 -32 -23.5 -55.5t-60.5 -23.5q-32 0 -56.5 21t-43.5 50.5t-33.5 61t-26.5 52.5q-67 -6 -135 -25.5t-131 -39.5q-6 -21 -12 -48t-17 -51.5t-30 -41.5t-51 -17q-19 0 -35.5 6.5t-29 18t-19.5 27t-7 32.5q0 25 10 64t26.5 84.5t37.5 95t42 95.5t40 84.5t32 63.5
q8 15 21.5 42t30 56t36 55t40.5 40q-25 14 -42 25.5t-22 11.5q-14 0 -25.5 -16t-11.5 -29q0 -2 0.5 -4.5t0.5 -4.5q0 -9 -6.5 -16.5t-16 -13t-20 -9t-17.5 -3.5q-16 0 -32.5 7t-29.5 18.5t-21.5 26.5t-8.5 32q0 12 3.5 27.5t7.5 26.5q20 56 61 91t102 35q33 0 54.5 -9
t37 -20.5t26 -20.5t21.5 -9q10 0 17.5 9t15.5 19.5t18.5 19.5t27.5 9q18 0 33.5 -8.5t27 -22t18 -30t6.5 -33.5q0 -25 -9 -48.5t-25 -42t-37.5 -31t-45.5 -15.5q5 -5 8 -9.5t6 -9.5q15 -27 26 -55t24 -56q24 -54 49 -106.5t51 -105.5q23 -2 43 -6t35 -13.5t24 -25t9 -39.5
q0 -17 -6 -32.5t-18 -28.5q4 -13 10 -30.5t12 -35.5t10 -35.5t4 -30.5zM387 348q-14 27 -26 55t-26 55q-17 -31 -31.5 -62.5t-28.5 -63.5q28 5 55.5 9t56.5 7z" />
    <glyph glyph-name="adieresis" unicode="&#xe4;" horiz-adv-x="733" 
d="M569 890q0 -29 -10 -54t-25.5 -44t-35.5 -30t-41 -11q-30 0 -53 26t-23 68q0 28 12 53.5t30 45t39.5 31t40.5 11.5q32 0 49 -27t17 -69zM318 882q0 -30 -10 -56t-26 -46t-36 -31.5t-41 -11.5q-31 0 -54.5 27t-23.5 72q0 29 12 55.5t31 46.5t40.5 32t41.5 12q32 0 49 -28
t17 -72zM711 87q0 -32 -23.5 -55.5t-60.5 -23.5q-32 0 -56.5 21t-43.5 50.5t-33.5 61t-26.5 52.5q-67 -6 -135 -25.5t-131 -39.5q-6 -21 -12 -48t-17 -51.5t-30 -41.5t-51 -17q-19 0 -35.5 6.5t-29 18t-19.5 27t-7 32.5q0 25 10 64t26.5 84.5t37.5 95t42 95.5t40 84.5
t32 63.5q10 18 26.5 52.5t38 68.5t46.5 59t51 25q14 0 27 -5.5t24.5 -14t21 -19t15.5 -20.5q15 -27 26 -55t24 -56q24 -54 49 -106.5t51 -105.5q23 -2 43 -6t35 -13.5t24 -25t9 -39.5q0 -17 -6 -32.5t-18 -28.5q4 -13 10 -30.5t12 -35.5t10 -35.5t4 -30.5zM387 348
q-14 27 -26 55t-26 55q-17 -31 -31.5 -62.5t-28.5 -63.5q28 5 55.5 9t56.5 7z" />
    <glyph glyph-name="aring" unicode="&#xe5;" horiz-adv-x="733" 
d="M711 87q0 -32 -23.5 -55.5t-60.5 -23.5q-32 0 -56.5 21t-43.5 50.5t-33.5 61t-26.5 52.5q-67 -6 -135 -25.5t-131 -39.5q-6 -21 -12 -48t-17 -51.5t-30 -41.5t-51 -17q-19 0 -35.5 6.5t-29 18t-19.5 27t-7 32.5q0 25 10 64t26.5 84.5t37.5 95t42 95.5t40 84.5t32 63.5
q5 11 13 26.5t18 34.5q-27 6 -53.5 16t-46.5 25.5t-32.5 37.5t-12.5 52q0 56 33 95.5t81.5 64t104 36t100.5 11.5q35 0 72.5 -7t69 -23.5t51.5 -45t20 -70.5q0 -31 -11 -57t-30 -46.5t-44.5 -36.5t-53.5 -28q5 -13 10 -25t11 -25q24 -54 49 -106.5t51 -105.5q23 -2 43 -6
t35 -13.5t24 -25t9 -39.5q0 -17 -6 -32.5t-18 -28.5q4 -13 10 -30.5t12 -35.5t10 -35.5t4 -30.5zM419 791q0 7 -9 7h-14q-10 0 -32 -3.5t-45 -10t-40.5 -17t-17.5 -25.5q0 -5 6 -5q8 0 15.5 2t15.5 2q9 0 29 3t40.5 9t36 15.5t15.5 22.5zM387 348q-14 27 -26 55t-26 55
q-17 -31 -31.5 -62.5t-28.5 -63.5q28 5 55.5 9t56.5 7z" />
    <glyph glyph-name="ae" unicode="&#xe6;" horiz-adv-x="1100" 
d="M1100 207q0 -34 -16.5 -58.5t-45.5 -41.5q-17 -9 -51 -26t-77 -37t-90 -41t-89.5 -37.5t-75.5 -27.5t-48 -11q-38 0 -61.5 26t-36.5 64.5t-17.5 83t-5.5 82.5q-37 -4 -77.5 -12t-81.5 -17.5t-80.5 -21t-74.5 -22.5q-15 -22 -30.5 -47t-34.5 -46.5t-42 -35.5t-54 -14
q-32 0 -53.5 22.5t-21.5 54.5q0 16 8 34q13 29 43.5 75t71 100.5t87 112.5t90.5 111.5t82.5 98t63.5 70.5q18 19 44.5 48t56.5 57t60 48t55 20q17 0 35.5 -7.5t32.5 -20.5q36 5 74 9.5t74 7.5t68 4.5t56 1.5q19 0 36.5 -3.5t30.5 -12.5t20.5 -24t7.5 -37q0 -39 -24.5 -63.5
t-61.5 -32.5q-20 -4 -40.5 -6.5t-40.5 -6.5q-49 -9 -97.5 -21t-96.5 -25q-5 -31 -6 -59v-42q26 8 62 17t74.5 17t75 13t62.5 5q38 0 62 -23t24 -62q0 -36 -19.5 -59t-52.5 -34q-37 -12 -74 -22.5t-74.5 -21.5t-74 -24t-71.5 -30v-36t-1 -38q2 -17 7 -29q13 5 43.5 17t69 27
t80.5 30.5t77.5 29t61.5 22t32 8.5q34 0 52 -25t18 -56zM490 505q-15 -16 -33 -37t-36.5 -43.5t-36 -44t-31.5 -38.5q28 5 66 9t67 7q0 8 0.5 15.5t0.5 15.5q0 18 0.5 42t1.5 46q0 8 0.5 15t0.5 13zM490 505q0 -6 -0.5 -13t-0.5 -15z" />
    <glyph glyph-name="ccedilla" unicode="&#xe7;" horiz-adv-x="619" 
d="M739 266q0 -25 -11 -50t-33 -41q-38 -28 -85.5 -51t-99.5 -40q11 -26 18 -52.5t7 -52.5q0 -52 -27 -91t-69 -67q-25 -17 -55.5 -22t-59.5 -5q-28 0 -62.5 5.5t-65 19.5t-51.5 37t-21 59q0 35 20 57.5t56 22.5q16 0 31.5 -4.5t30 -10t29 -10t29.5 -4.5q13 0 23 8.5
t10 22.5q0 12 -6.5 26t-17.5 29h-13q-66 0 -119 17t-90 49.5t-57 79.5t-20 107q0 39 8.5 90t26 105.5t44 107t62 93.5t80.5 66.5t99 25.5q56 0 95.5 -23t64.5 -59.5t36.5 -81.5t11.5 -88q0 -38 -25.5 -63.5t-69.5 -25.5q-42 0 -61 16.5t-27.5 41.5t-12.5 53t-15 51
q-31 -28 -54.5 -66.5t-40 -81t-25 -86t-8.5 -82.5q0 -41 19.5 -58t64.5 -17q86 0 160 23.5t147 62.5q14 8 25.5 12t27.5 4q35 0 55.5 -12t20.5 -47z" />
    <glyph glyph-name="egrave" unicode="&#xe8;" horiz-adv-x="670" 
d="M425 815q0 -38 -26 -54.5t-60 -16.5q-21 0 -51.5 8t-61 20.5t-58.5 27t-44 28.5q-17 14 -26.5 30.5t-9.5 38.5q0 18 7 34t19 28.5t28 20t34 7.5q14 0 27 -4.5t25 -12.5q34 -22 65.5 -40.5t69.5 -32.5q29 -11 45.5 -30.5t16.5 -51.5zM670 186q0 -30 -16.5 -52.5
t-45.5 -37.5q-17 -8 -51 -23.5t-77 -33.5t-90 -36.5t-89.5 -34t-75.5 -25t-48 -9.5q-31 0 -52 15.5t-34.5 40.5t-20.5 56.5t-10.5 62.5t-4 59t-0.5 47q0 76 2.5 152t4.5 152q-20 14 -30 35t-10 44q0 32 17 54t51 32q36 10 91 19t115 16t116.5 10.5t95.5 3.5q19 0 36.5 -3.5
t30.5 -11.5t20.5 -21.5t7.5 -33.5q0 -35 -24.5 -57t-61.5 -29q-20 -4 -40.5 -6t-40.5 -6q-49 -8 -97.5 -19t-96.5 -22q-5 -23 -6 -45.5t-1 -45.5q26 7 62.5 15t75 15t75 12t62.5 5q38 0 62 -21t24 -56q0 -32 -19.5 -52.5t-52.5 -30.5q-74 -23 -150 -41t-147 -49v-32
q0 -15 1.5 -30t7.5 -29q13 4 43.5 15t69 24t80.5 27.5t77.5 26.5t61.5 19.5t32 7.5q34 0 52 -22.5t18 -50.5z" />
    <glyph glyph-name="eacute" unicode="&#xe9;" horiz-adv-x="670" 
d="M568 902q0 -34 -17.5 -54.5t-48.5 -31.5q-13 -5 -45 -14t-67 -19t-66 -17t-41 -7q-35 0 -61.5 18t-26.5 56q0 23 11 40.5t29 31.5q15 11 49 26.5t72 29.5t74 24t54 10q19 0 34.5 -8t26.5 -20.5t17 -29.5t6 -35zM670 186q0 -30 -16.5 -52.5t-45.5 -37.5q-17 -8 -51 -23.5
t-77 -33.5t-90 -36.5t-89.5 -34t-75.5 -25t-48 -9.5q-31 0 -52 15.5t-34.5 40.5t-20.5 56.5t-10.5 62.5t-4 59t-0.5 47q0 76 2.5 152t4.5 152q-20 14 -30 35t-10 44q0 32 17 54t51 32q36 10 91 19t115 16t116.5 10.5t95.5 3.5q19 0 36.5 -3.5t30.5 -11.5t20.5 -21.5
t7.5 -33.5q0 -35 -24.5 -57t-61.5 -29q-20 -4 -40.5 -6t-40.5 -6q-49 -8 -97.5 -19t-96.5 -22q-5 -23 -6 -45.5t-1 -45.5q26 7 62.5 15t75 15t75 12t62.5 5q38 0 62 -21t24 -56q0 -32 -19.5 -52.5t-52.5 -30.5q-74 -23 -150 -41t-147 -49v-32q0 -15 1.5 -30t7.5 -29
q13 4 43.5 15t69 24t80.5 27.5t77.5 26.5t61.5 19.5t32 7.5q34 0 52 -22.5t18 -50.5z" />
    <glyph glyph-name="ecircumflex" unicode="&#xea;" horiz-adv-x="670" 
d="M569 818q0 -24 -20.5 -44t-54.5 -20q-23 0 -49.5 11.5t-51.5 28t-46.5 35t-34.5 31.5q-11 -14 -18.5 -29t-12.5 -32q-8 -24 -28 -39.5t-55 -15.5q-40 0 -60 21.5t-20 49.5q0 19 9.5 43.5t24 49.5t31.5 47t33 37q17 17 40.5 28.5t52.5 11.5t53.5 -10.5t40.5 -28.5t29 -33
t26.5 -28.5t30 -27t39.5 -28.5q19 -11 30 -24.5t11 -33.5zM670 186q0 -30 -16.5 -52.5t-45.5 -37.5q-17 -8 -51 -23.5t-77 -33.5t-90 -36.5t-89.5 -34t-75.5 -25t-48 -9.5q-31 0 -52 15.5t-34.5 40.5t-20.5 56.5t-10.5 62.5t-4 59t-0.5 47q0 76 2.5 152t4.5 152
q-20 14 -30 35t-10 44q0 32 17 54t51 32q36 10 91 19t115 16t116.5 10.5t95.5 3.5q19 0 36.5 -3.5t30.5 -11.5t20.5 -21.5t7.5 -33.5q0 -35 -24.5 -57t-61.5 -29q-20 -4 -40.5 -6t-40.5 -6q-49 -8 -97.5 -19t-96.5 -22q-5 -23 -6 -45.5t-1 -45.5q26 7 62.5 15t75 15t75 12
t62.5 5q38 0 62 -21t24 -56q0 -32 -19.5 -52.5t-52.5 -30.5q-74 -23 -150 -41t-147 -49v-32q0 -15 1.5 -30t7.5 -29q13 4 43.5 15t69 24t80.5 27.5t77.5 26.5t61.5 19.5t32 7.5q34 0 52 -22.5t18 -50.5z" />
    <glyph glyph-name="edieresis" unicode="&#xeb;" horiz-adv-x="670" 
d="M579 900q0 -29 -10 -54t-25.5 -44t-35.5 -30t-41 -11q-30 0 -53 26t-23 68q0 28 12 53.5t30 45t39.5 31t40.5 11.5q32 0 49 -27t17 -69zM328 892q0 -30 -10 -56t-26 -46t-36 -31.5t-41 -11.5q-31 0 -54.5 27t-23.5 72q0 29 12 55.5t31 46.5t40.5 32t41.5 12q32 0 49 -28
t17 -72zM670 186q0 -30 -16.5 -52.5t-45.5 -37.5q-17 -8 -51 -23.5t-77 -33.5t-90 -36.5t-89.5 -34t-75.5 -25t-48 -9.5q-31 0 -52 15.5t-34.5 40.5t-20.5 56.5t-10.5 62.5t-4 59t-0.5 47q0 76 2.5 152t4.5 152q-20 14 -30 35t-10 44q0 32 17 54t51 32q36 10 91 19t115 16
t116.5 10.5t95.5 3.5q19 0 36.5 -3.5t30.5 -11.5t20.5 -21.5t7.5 -33.5q0 -35 -24.5 -57t-61.5 -29q-20 -4 -40.5 -6t-40.5 -6q-49 -8 -97.5 -19t-96.5 -22q-5 -23 -6 -45.5t-1 -45.5q26 7 62.5 15t75 15t75 12t62.5 5q38 0 62 -21t24 -56q0 -32 -19.5 -52.5t-52.5 -30.5
q-74 -23 -150 -41t-147 -49v-32q0 -15 1.5 -30t7.5 -29q13 4 43.5 15t69 24t80.5 27.5t77.5 26.5t61.5 19.5t32 7.5q34 0 52 -22.5t18 -50.5z" />
    <glyph glyph-name="igrave" unicode="&#xec;" horiz-adv-x="345" 
d="M232 801q0 -42 -21.5 -60t-50.5 -18q-18 0 -43 9t-50.5 22.5t-48.5 30t-37 31.5q-14 14 -22 33t-8 43q0 19 6 37t16 32t23.5 22t28.5 8q22 0 43 -19q28 -24 54.5 -44t57.5 -36q23 -12 37.5 -34t14.5 -57zM293 77q0 -20 -8.5 -39.5t-23.5 -35t-35.5 -25t-43.5 -9.5
q-24 0 -41 10.5t-28.5 26t-18 35t-9.5 37.5q-9 58 -11.5 116t-5.5 117q-4 65 -5 129t-1 129q0 23 3.5 46t14 41t29.5 29.5t51 11.5q42 0 68.5 -24.5t26.5 -62.5q0 -34 -1 -68t-1 -68q0 -39 1.5 -77.5t3.5 -76.5q4 -57 13 -112.5t20 -111.5q1 -5 1.5 -9t0.5 -9z" />
    <glyph glyph-name="iacute" unicode="&#xed;" horiz-adv-x="345" 
d="M387 881q0 -36 -14 -58t-39 -33q-11 -5 -36.5 -15t-53.5 -20.5t-52.5 -18t-32.5 -7.5q-27 0 -48.5 19t-21.5 60q0 25 9 43.5t23 32.5q12 12 39 28.5t57.5 31.5t59 25.5t43.5 10.5t27.5 -8.5t21 -22t13.5 -31.5t5 -37zM293 77q0 -20 -8.5 -39.5t-23.5 -35t-35.5 -25
t-43.5 -9.5q-24 0 -41 10.5t-28.5 26t-18 35t-9.5 37.5q-9 58 -11.5 116t-5.5 117q-4 65 -5 129t-1 129q0 23 3.5 46t14 41t29.5 29.5t51 11.5q42 0 68.5 -24.5t26.5 -62.5q0 -34 -1 -68t-1 -68q0 -39 1.5 -77.5t3.5 -76.5q4 -57 13 -112.5t20 -111.5q1 -5 1.5 -9t0.5 -9z
" />
    <glyph glyph-name="icircumflex" unicode="&#xee;" horiz-adv-x="345" 
d="M386 767q0 -23 -20.5 -42.5t-53.5 -19.5q-23 0 -49 11.5t-50.5 27.5t-46 33.5t-34.5 30.5q-21 -29 -30 -60q-8 -23 -28 -38t-54 -15q-39 0 -59 20.5t-20 48.5q0 19 9 42.5t23.5 47.5t31.5 46t32 37q17 17 40 28t52 11q28 0 52.5 -11t40.5 -28q16 -18 29 -32.5t26.5 -28
t29.5 -26t39 -27.5q18 -11 29 -24t11 -32zM293 77q0 -20 -8.5 -39.5t-23.5 -35t-35.5 -25t-43.5 -9.5q-24 0 -41 10.5t-28.5 26t-18 35t-9.5 37.5q-9 58 -11.5 116t-5.5 117q-4 65 -5 129t-1 129q0 23 3.5 46t14 41t29.5 29.5t51 11.5q42 0 68.5 -24.5t26.5 -62.5
q0 -34 -1 -68t-1 -68q0 -39 1.5 -77.5t3.5 -76.5q4 -57 13 -112.5t20 -111.5q1 -5 1.5 -9t0.5 -9z" />
    <glyph glyph-name="idieresis" unicode="&#xef;" horiz-adv-x="345" 
d="M350 860q0 -29 -8.5 -54t-22 -44t-30.5 -30t-34 -11q-26 0 -45.5 26t-19.5 68q0 28 10 53.5t25.5 45t34 31t34.5 11.5q27 0 41.5 -27t14.5 -69zM137 852q0 -30 -8.5 -56t-22 -46t-30.5 -31.5t-35 -11.5q-26 0 -46 27t-20 72q0 29 10 55.5t26 46.5t34.5 32t35.5 12
q27 0 41.5 -28t14.5 -72zM293 77q0 -20 -8.5 -39.5t-23.5 -35t-35.5 -25t-43.5 -9.5q-24 0 -41 10.5t-28.5 26t-18 35t-9.5 37.5q-9 58 -11.5 116t-5.5 117q-4 65 -5 129t-1 129q0 23 3.5 46t14 41t29.5 29.5t51 11.5q42 0 68.5 -24.5t26.5 -62.5q0 -34 -1 -68t-1 -68
q0 -39 1.5 -77.5t3.5 -76.5q4 -57 13 -112.5t20 -111.5q1 -5 1.5 -9t0.5 -9z" />
    <glyph glyph-name="ntilde" unicode="&#xf1;" horiz-adv-x="761" 
d="M561 873q0 -27 -10.5 -52t-29 -44t-43 -30.5t-51.5 -11.5q-26 0 -51.5 10.5t-47 22.5t-37 22.5t-19.5 10.5q-14 0 -25.5 -16t-11.5 -29q0 -2 0.5 -4.5t0.5 -4.5q0 -9 -6.5 -16.5t-16 -13t-20 -9t-17.5 -3.5q-16 0 -32.5 7t-29.5 18.5t-21.5 26.5t-8.5 32q0 12 3.5 27.5
t7.5 26.5q20 56 61 91t102 35q33 0 54.5 -9t37 -20.5t26 -20.5t21.5 -9q10 0 17.5 9t15.5 19.5t18.5 19.5t27.5 9q18 0 33.5 -8.5t27 -22t18 -30t6.5 -33.5zM708 170q0 -21 -3 -58t-13.5 -73t-30.5 -62t-54 -26q-30 0 -64 18t-69 46.5t-69.5 64.5t-64.5 71.5t-54 67.5
t-39 53q5 -51 9 -101.5t10 -101.5q1 -3 1 -6.5v-6.5q0 -36 -26 -62t-67 -26q-44 0 -65.5 24t-29.5 59q-12 50 -18 101t-8 102.5t-3 102.5l-2 102q-1 29 -1.5 57.5t-0.5 57.5q0 18 5.5 36t16.5 32.5t27.5 24t39.5 9.5q28 0 47 -14t35 -32q26 -31 48.5 -63.5t44.5 -65.5
t44 -66.5t47 -64.5q28 -35 56 -71t61 -68v10q0 100 -13.5 198t-30.5 196q-1 5 -1.5 9.5t-0.5 9.5q0 31 22 55t58 24q48 0 72 -22t36 -60q18 -58 27.5 -118t14 -120.5t5.5 -121.5t1 -121z" />
    <glyph glyph-name="ograve" unicode="&#xf2;" horiz-adv-x="736" 
d="M385 805q0 -38 -26 -54.5t-60 -16.5q-21 0 -51.5 8t-61 20.5t-58.5 27t-44 28.5q-17 14 -26.5 30.5t-9.5 38.5q0 18 7 34t19 28.5t28 20t34 7.5q14 0 27 -4.5t25 -12.5q34 -22 65.5 -40.5t69.5 -32.5q29 -11 45.5 -30.5t16.5 -51.5zM700 281q0 -61 -36 -119.5t-92.5 -104
t-125.5 -73.5t-134 -28q-146 0 -213 69.5t-67 196.5q0 52 13 103.5t34 101t48.5 96.5t57.5 90q11 15 24 33t29.5 33.5t35.5 26t42 10.5q7 0 13 -1t13 -3q73 -22 138.5 -65.5t114 -101t77 -125.5t28.5 -139zM500 282q0 34 -13 67t-34.5 63t-50 55t-58.5 43
q-45 -65 -77 -137.5t-32 -150.5q0 -23 1 -40.5t7.5 -29.5t22.5 -18.5t46 -6.5q22 0 54 16.5t62 40.5t51 50.5t21 47.5z" />
    <glyph glyph-name="oacute" unicode="&#xf3;" horiz-adv-x="736" 
d="M568 892q0 -34 -17.5 -54.5t-48.5 -31.5q-13 -5 -45 -14t-67 -19t-66 -17t-41 -7q-35 0 -61.5 18t-26.5 56q0 23 11 40.5t29 31.5q15 11 49 26.5t72 29.5t74 24t54 10q19 0 34.5 -8t26.5 -20.5t17 -29.5t6 -35zM700 281q0 -61 -36 -119.5t-92.5 -104t-125.5 -73.5
t-134 -28q-146 0 -213 69.5t-67 196.5q0 52 13 103.5t34 101t48.5 96.5t57.5 90q11 15 24 33t29.5 33.5t35.5 26t42 10.5q7 0 13 -1t13 -3q73 -22 138.5 -65.5t114 -101t77 -125.5t28.5 -139zM500 282q0 34 -13 67t-34.5 63t-50 55t-58.5 43q-45 -65 -77 -137.5t-32 -150.5
q0 -23 1 -40.5t7.5 -29.5t22.5 -18.5t46 -6.5q22 0 54 16.5t62 40.5t51 50.5t21 47.5z" />
    <glyph glyph-name="ocircumflex" unicode="&#xf4;" horiz-adv-x="736" 
d="M539 778q0 -24 -20.5 -44t-54.5 -20q-23 0 -49.5 11.5t-51.5 28t-46.5 35t-34.5 31.5q-11 -14 -18.5 -29t-12.5 -32q-8 -24 -28 -39.5t-55 -15.5q-40 0 -60 21.5t-20 49.5q0 19 9.5 43.5t24 49.5t31.5 47t33 37q17 17 40.5 28.5t52.5 11.5t53.5 -10.5t40.5 -28.5t29 -33
t26.5 -28.5t30 -27t39.5 -28.5q19 -11 30 -24.5t11 -33.5zM700 281q0 -61 -36 -119.5t-92.5 -104t-125.5 -73.5t-134 -28q-146 0 -213 69.5t-67 196.5q0 52 13 103.5t34 101t48.5 96.5t57.5 90q11 15 24 33t29.5 33.5t35.5 26t42 10.5q7 0 13 -1t13 -3q73 -22 138.5 -65.5
t114 -101t77 -125.5t28.5 -139zM500 282q0 34 -13 67t-34.5 63t-50 55t-58.5 43q-45 -65 -77 -137.5t-32 -150.5q0 -23 1 -40.5t7.5 -29.5t22.5 -18.5t46 -6.5q22 0 54 16.5t62 40.5t51 50.5t21 47.5z" />
    <glyph glyph-name="otilde" unicode="&#xf5;" horiz-adv-x="736" 
d="M551 883q0 -27 -10.5 -52t-29 -44t-43 -30.5t-51.5 -11.5q-26 0 -51.5 10.5t-47 22.5t-37 22.5t-19.5 10.5q-14 0 -25.5 -16t-11.5 -29q0 -2 0.5 -4.5t0.5 -4.5q0 -9 -6.5 -16.5t-16 -13t-20 -9t-17.5 -3.5q-16 0 -32.5 7t-29.5 18.5t-21.5 26.5t-8.5 32q0 12 3.5 27.5
t7.5 26.5q20 56 61 91t102 35q33 0 54.5 -9t37 -20.5t26 -20.5t21.5 -9q10 0 17.5 9t15.5 19.5t18.5 19.5t27.5 9q18 0 33.5 -8.5t27 -22t18 -30t6.5 -33.5zM700 281q0 -61 -36 -119.5t-92.5 -104t-125.5 -73.5t-134 -28q-146 0 -213 69.5t-67 196.5q0 52 13 103.5t34 101
t48.5 96.5t57.5 90q11 15 24 33t29.5 33.5t35.5 26t42 10.5q7 0 13 -1t13 -3q73 -22 138.5 -65.5t114 -101t77 -125.5t28.5 -139zM500 282q0 34 -13 67t-34.5 63t-50 55t-58.5 43q-45 -65 -77 -137.5t-32 -150.5q0 -23 1 -40.5t7.5 -29.5t22.5 -18.5t46 -6.5q22 0 54 16.5
t62 40.5t51 50.5t21 47.5z" />
    <glyph glyph-name="odieresis" unicode="&#xf6;" horiz-adv-x="736" 
d="M529 870q0 -29 -10 -54t-25.5 -44t-35.5 -30t-41 -11q-30 0 -53 26t-23 68q0 28 12 53.5t30 45t39.5 31t40.5 11.5q32 0 49 -27t17 -69zM278 862q0 -30 -10 -56t-26 -46t-36 -31.5t-41 -11.5q-31 0 -54.5 27t-23.5 72q0 29 12 55.5t31 46.5t40.5 32t41.5 12q32 0 49 -28
t17 -72zM700 281q0 -61 -36 -119.5t-92.5 -104t-125.5 -73.5t-134 -28q-146 0 -213 69.5t-67 196.5q0 52 13 103.5t34 101t48.5 96.5t57.5 90q11 15 24 33t29.5 33.5t35.5 26t42 10.5q7 0 13 -1t13 -3q73 -22 138.5 -65.5t114 -101t77 -125.5t28.5 -139zM500 282
q0 34 -13 67t-34.5 63t-50 55t-58.5 43q-45 -65 -77 -137.5t-32 -150.5q0 -23 1 -40.5t7.5 -29.5t22.5 -18.5t46 -6.5q22 0 54 16.5t62 40.5t51 50.5t21 47.5z" />
    <glyph glyph-name="divide" unicode="&#xf7;" horiz-adv-x="605" 
d="M447 651q0 -33 -13 -62.5t-34.5 -51.5t-48.5 -35t-54 -13q-20 0 -39 8t-33 22.5t-22.5 34.5t-8.5 45q0 32 16 61.5t40.5 52t53.5 36t55 13.5q43 0 65.5 -31.5t22.5 -79.5zM574 371q0 -42 -26.5 -68.5t-68.5 -26.5q-35 0 -78 -3t-87.5 -9t-87 -14t-76.5 -17l-16 -4t-16 -2
q-20 0 -37 8t-29 21.5t-19 31.5t-7 37q0 33 17.5 54.5t46.5 33.5q15 6 45 12.5t67 12.5t78 11t79 9t70 6t50 2q42 0 68.5 -26.5t26.5 -68.5zM469 111q0 -31 -14.5 -59t-38 -49t-53 -33t-59.5 -12q-23 0 -43 7.5t-36 21t-25 33t-9 42.5q0 31 17.5 59t44.5 49t58.5 33.5
t60.5 12.5q48 0 72.5 -29.5t24.5 -75.5z" />
    <glyph glyph-name="oslash" unicode="&#xf8;" horiz-adv-x="736" 
d="M700 312q0 -68 -36 -132.5t-92.5 -115.5t-125.5 -82t-134 -31h-8q-4 -11 -7 -22l-6 -22q-9 -26 -20 -42t-28 -16q-11 0 -21.5 9t-18.5 25t-13 36.5t-5 44.5v7q-79 29 -116 99.5t-37 176.5q0 57 13 114t34 112t48.5 107.5t57.5 100.5q11 17 24 37t29.5 37t35.5 28.5
t42 11.5q14 0 26 -4q27 -9 53 -21.5t51 -27.5q7 18 14 35t15 34q9 19 19 30t23 11q11 0 21.5 -9.5t18.5 -25t13 -37t5 -45.5q0 -22 -3.5 -40t-10.5 -35l-4 -10q66 -70 104.5 -157t38.5 -181zM500 313q0 29 -8 58.5t-22 56.5q-26 -65 -50 -131t-47 -134q22 13 45 32t41 40
t29.5 41t11.5 37zM371 548q-7 5 -13.5 9.5t-13.5 9.5q-45 -72 -77 -152.5t-32 -167.5v-40.5t5 -30.5q7 18 13.5 36t12.5 36q49 153 105 300z" />
    <glyph glyph-name="ugrave" unicode="&#xf9;" horiz-adv-x="684" 
d="M405 755q0 -38 -26 -54.5t-60 -16.5q-21 0 -51.5 8t-61 20.5t-58.5 27t-44 28.5q-17 14 -26.5 30.5t-9.5 38.5q0 18 7 34t19 28.5t28 20t34 7.5q14 0 27 -4.5t25 -12.5q34 -22 65.5 -40.5t69.5 -32.5q29 -11 45.5 -30.5t16.5 -51.5zM628 461q0 -61 -4.5 -121t-17.5 -119
q-9 -41 -28.5 -86.5t-49.5 -83.5t-72 -63t-96 -25q-57 0 -102.5 19t-80 51t-59 74.5t-40.5 88.5t-23 93.5t-7 89.5q0 51 2.5 103.5t19.5 101.5q11 35 35 52.5t65 17.5q20 0 39.5 -6t34.5 -16.5t24.5 -26.5t9.5 -35v-7.5t-1 -8.5q-9 -51 -18.5 -102.5t-9.5 -104.5
q0 -17 1.5 -50t8.5 -66t22 -57.5t43 -24.5q46 0 70.5 28.5t35.5 69t12.5 83t1.5 71.5q0 55 -3.5 109.5t-14.5 109.5q-3 13 -3 26q0 18 6.5 36.5t19 34t30 25t39.5 9.5q24 0 41.5 -17t29.5 -44.5t19.5 -60.5t12 -65.5t6 -60t1.5 -42.5z" />
    <glyph glyph-name="uacute" unicode="&#xfa;" horiz-adv-x="684" 
d="M565 920q6 -34 -7.5 -57.5t-42.5 -39.5q-12 -7 -41.5 -22t-62.5 -31t-61.5 -28.5t-38.5 -14.5q-35 -6 -64 6.5t-36 50.5q-5 23 2.5 42t23.5 36q8 9 25 22t38 27t45 28t46.5 26t42 20.5t31.5 10.5q19 3 35.5 -1.5t30 -15.5t22.5 -26t12 -33zM628 461q0 -61 -4.5 -121
t-17.5 -119q-9 -41 -28.5 -86.5t-49.5 -83.5t-72 -63t-96 -25q-57 0 -102.5 19t-80 51t-59 74.5t-40.5 88.5t-23 93.5t-7 89.5q0 51 2.5 103.5t19.5 101.5q11 35 35 52.5t65 17.5q20 0 39.5 -6t34.5 -16.5t24.5 -26.5t9.5 -35v-7.5t-1 -8.5q-9 -51 -18.5 -102.5t-9.5 -104.5
q0 -17 1.5 -50t8.5 -66t22 -57.5t43 -24.5q46 0 70.5 28.5t35.5 69t12.5 83t1.5 71.5q0 55 -3.5 109.5t-14.5 109.5q-3 13 -3 26q0 18 6.5 36.5t19 34t30 25t39.5 9.5q24 0 41.5 -17t29.5 -44.5t19.5 -60.5t12 -65.5t6 -60t1.5 -42.5z" />
    <glyph glyph-name="ucircumflex" unicode="&#xfb;" horiz-adv-x="684" 
d="M535 814q0 -22 -19 -40t-50 -18q-21 0 -45.5 10.5t-47.5 26t-43 32t-32 28.5q-19 -27 -28 -56q-8 -23 -26 -36.5t-50 -13.5q-37 0 -55.5 19t-18.5 45q0 18 8.5 40.5t22 45t29 42.5t30.5 34q16 15 37.5 25.5t47.5 10.5t49 -9.5t38 -25.5q15 -17 27 -30.5t24 -26t27 -25
t37 -25.5q17 -11 27.5 -23.5t10.5 -29.5zM628 461q0 -61 -4.5 -121t-17.5 -119q-9 -41 -28.5 -86.5t-49.5 -83.5t-72 -63t-96 -25q-57 0 -102.5 19t-80 51t-59 74.5t-40.5 88.5t-23 93.5t-7 89.5q0 51 2.5 103.5t19.5 101.5q11 35 35 52.5t65 17.5q20 0 39.5 -6t34.5 -16.5
t24.5 -26.5t9.5 -35v-7.5t-1 -8.5q-9 -51 -18.5 -102.5t-9.5 -104.5q0 -17 1.5 -50t8.5 -66t22 -57.5t43 -24.5q46 0 70.5 28.5t35.5 69t12.5 83t1.5 71.5q0 55 -3.5 109.5t-14.5 109.5q-3 13 -3 26q0 18 6.5 36.5t19 34t30 25t39.5 9.5q24 0 41.5 -17t29.5 -44.5
t19.5 -60.5t12 -65.5t6 -60t1.5 -42.5z" />
    <glyph glyph-name="udieresis" unicode="&#xfc;" horiz-adv-x="684" 
d="M539 900q0 -29 -10 -54t-25.5 -44t-35.5 -30t-41 -11q-30 0 -53 26t-23 68q0 28 12 53.5t30 45t39.5 31t40.5 11.5q32 0 49 -27t17 -69zM288 892q0 -30 -10 -56t-26 -46t-36 -31.5t-41 -11.5q-31 0 -54.5 27t-23.5 72q0 29 12 55.5t31 46.5t40.5 32t41.5 12q32 0 49 -28
t17 -72zM628 461q0 -61 -4.5 -121t-17.5 -119q-9 -41 -28.5 -86.5t-49.5 -83.5t-72 -63t-96 -25q-57 0 -102.5 19t-80 51t-59 74.5t-40.5 88.5t-23 93.5t-7 89.5q0 51 2.5 103.5t19.5 101.5q11 35 35 52.5t65 17.5q20 0 39.5 -6t34.5 -16.5t24.5 -26.5t9.5 -35v-7.5t-1 -8.5
q-9 -51 -18.5 -102.5t-9.5 -104.5q0 -17 1.5 -50t8.5 -66t22 -57.5t43 -24.5q46 0 70.5 28.5t35.5 69t12.5 83t1.5 71.5q0 55 -3.5 109.5t-14.5 109.5q-3 13 -3 26q0 18 6.5 36.5t19 34t30 25t39.5 9.5q24 0 41.5 -17t29.5 -44.5t19.5 -60.5t12 -65.5t6 -60t1.5 -42.5z" />
    <glyph glyph-name="yacute" unicode="&#xfd;" horiz-adv-x="659" 
d="M557 937q9 -32 -2.5 -57t-38.5 -43q-12 -8 -40.5 -25t-60 -35.5t-59 -33.5t-37.5 -18q-34 -8 -64 2t-40 47q-6 23 0 42.5t20 37.5q12 15 40.5 38.5t62 47t65 42t49.5 23.5t35 1.5t31 -13.5t24 -24.5t15 -31.5zM637 684q0 -13 -6 -30.5t-15 -36t-18.5 -35.5t-16.5 -29
q-63 -114 -110 -232t-83 -240q-9 -30 -16 -60.5t-18 -60.5q-10 -25 -27.5 -40t-49.5 -15q-24 0 -43.5 10t-33.5 26.5t-22 36t-8 39.5q0 12 5 34t12.5 49t17.5 57t19.5 57.5t18 50.5t13.5 37q-54 42 -105.5 90.5t-94.5 99.5q-12 14 -19 28.5t-7 32.5q0 15 6 31t17.5 29
t27 21.5t34.5 8.5q21 0 37 -8.5t30 -21.5q38 -34 76 -67t81 -62q29 62 58.5 124t71.5 118q14 20 33 31.5t46 11.5q40 0 64.5 -25t24.5 -60z" />
    <glyph glyph-name="ydieresis" unicode="&#xff;" horiz-adv-x="659" 
d="M529 890q0 -29 -10 -54t-25.5 -44t-35.5 -30t-41 -11q-30 0 -53 26t-23 68q0 28 12 53.5t30 45t39.5 31t40.5 11.5q32 0 49 -27t17 -69zM278 882q0 -30 -10 -56t-26 -46t-36 -31.5t-41 -11.5q-31 0 -54.5 27t-23.5 72q0 29 12 55.5t31 46.5t40.5 32t41.5 12q32 0 49 -28
t17 -72zM637 684q0 -13 -6 -30.5t-15 -36t-18.5 -35.5t-16.5 -29q-63 -114 -110 -232t-83 -240q-9 -30 -16 -60.5t-18 -60.5q-10 -25 -27.5 -40t-49.5 -15q-24 0 -43.5 10t-33.5 26.5t-22 36t-8 39.5q0 12 5 34t12.5 49t17.5 57t19.5 57.5t18 50.5t13.5 37
q-54 42 -105.5 90.5t-94.5 99.5q-12 14 -19 28.5t-7 32.5q0 15 6 31t17.5 29t27 21.5t34.5 8.5q21 0 37 -8.5t30 -21.5q38 -34 76 -67t81 -62q29 62 58.5 124t71.5 118q14 20 33 31.5t46 11.5q40 0 64.5 -25t24.5 -60z" />
    <glyph glyph-name="dotlessi" unicode="&#x131;" horiz-adv-x="345" 
d="M293 77q0 -20 -8.5 -39.5t-23.5 -35t-35.5 -25t-43.5 -9.5q-24 0 -41 10.5t-28.5 26t-18 35t-9.5 37.5q-9 58 -11.5 116t-5.5 117q-4 65 -5 129t-1 129q0 23 3.5 46t14 41t29.5 29.5t51 11.5q42 0 68.5 -24.5t26.5 -62.5q0 -34 -1 -68t-1 -68q0 -39 1.5 -77.5t3.5 -76.5
q4 -57 13 -112.5t20 -111.5q1 -5 1.5 -9t0.5 -9z" />
    <glyph glyph-name="OE" unicode="&#x152;" horiz-adv-x="1071" 
d="M1051 133q0 -30 -16.5 -49t-42.5 -31q-42 -20 -87 -34t-90 -29q-47 -16 -90.5 -35t-88.5 -39q-12 -5 -24.5 -9t-26.5 -4q-43 0 -65.5 28t-29.5 66q-4 19 -7 37.5t-6 37.5q-2 -2 -3.5 -2.5t-3.5 -2.5q-25 -19 -55.5 -39t-63.5 -36.5t-67 -27t-66 -10.5q-53 0 -92.5 26.5
t-65 67.5t-38 90t-12.5 95q0 64 13.5 129.5t38 128t60 119t80.5 102.5q10 11 24.5 24t30.5 24.5t33 19.5t33 8q17 0 36 -7.5t38.5 -20t39 -29t37.5 -34.5q7 25 16.5 43.5t23.5 27.5q24 16 63 25.5t81.5 14.5t84 6.5t71.5 1.5q29 0 57 -3.5t50 -14.5t35.5 -32.5t13.5 -57.5
t-15 -53.5t-37.5 -24t-49.5 -6t-52 0.5q-42 0 -84 -1.5t-82 -12.5q-5 -27 -7.5 -54t-3.5 -55q79 17 159.5 28t161.5 11q41 0 65 -27t24 -67q0 -42 -23.5 -66.5t-63.5 -31.5q-23 -4 -45 -5.5t-45 -3.5q-59 -7 -116 -17t-114 -26q3 -39 7.5 -77.5t9.5 -76.5q27 11 65 25.5
t78.5 27.5t78.5 22t67 9q20 0 38.5 -7t33 -19.5t23 -29.5t8.5 -38zM438 402q0 21 -11.5 45.5t-28.5 48t-36 44.5t-34 35q-26 -30 -51 -68.5t-44.5 -81t-31.5 -86.5t-12 -84q0 -11 0.5 -27.5t4.5 -32.5t12.5 -27t24.5 -11q13 0 29.5 5t33 13t31.5 17t25 17q44 33 66 86
t22 107z" />
    <glyph glyph-name="oe" unicode="&#x153;" horiz-adv-x="1130" 
d="M1130 207q0 -34 -16.5 -58.5t-45.5 -41.5q-17 -9 -51 -26t-77 -37t-90 -41t-89.5 -37.5t-75.5 -27.5t-48 -11q-42 0 -66 31t-37 76q-51 -38 -109 -60.5t-113 -22.5q-146 0 -213 77.5t-67 218.5q0 57 13 114t34 112t48.5 107.5t57.5 100.5q11 17 24 37t29.5 37t35.5 28.5
t42 11.5q14 0 26 -4q80 -27 149 -81q8 17 22.5 30t36.5 20q36 12 91 22t115 17t116.5 11t95.5 4q19 0 36.5 -3.5t30.5 -12.5t20.5 -24t7.5 -37q0 -39 -24.5 -63.5t-61.5 -32.5q-20 -4 -40.5 -6.5t-40.5 -6.5q-49 -9 -97.5 -21t-96.5 -25q-5 -25 -6 -50t-1 -51
q26 7 62.5 16.5t75 17t75 13t62.5 5.5q38 0 62 -23t24 -62q0 -36 -19.5 -59t-52.5 -34q-36 -12 -73 -22.5t-73.5 -21t-72.5 -23t-71 -29.5q-2 -6 -3.5 -12.5t-3.5 -13.5v-13q0 -17 1.5 -33.5t7.5 -32.5q13 5 43.5 17t69 27t80.5 30.5t77.5 29t61.5 22t32 8.5q34 0 52 -25
t18 -56zM500 313q0 37 -13 74t-34.5 70.5t-50 61.5t-58.5 48q-45 -72 -77 -152.5t-32 -167.5q0 -26 1 -45.5t7.5 -33t22.5 -20.5t46 -7q22 0 54 18.5t62 45t51 56t21 52.5z" />
    <glyph glyph-name="Ydieresis" unicode="&#x178;" horiz-adv-x="622" 
d="M529 900q0 -29 -10 -54t-25.5 -44t-35.5 -30t-41 -11q-30 0 -53 26t-23 68q0 28 12 53.5t30 45t39.5 31t40.5 11.5q32 0 49 -27t17 -69zM278 892q0 -30 -10 -56t-26 -46t-36 -31.5t-41 -11.5q-31 0 -54.5 27t-23.5 72q0 29 12 55.5t31 46.5t40.5 32t41.5 12q32 0 49 -28
t17 -72zM601 662q0 -11 -7 -29.5t-16 -38.5t-18.5 -38.5t-15.5 -30.5q-58 -128 -95.5 -258.5t-59.5 -266.5q-5 -30 -22.5 -50.5t-55.5 -20.5q-27 0 -47.5 10.5t-34.5 27t-21 38t-7 43.5q0 51 16 99.5t33 96.5q-22 11 -47 33.5t-49.5 51.5t-46.5 62t-39.5 65.5t-27.5 62.5
t-10 53q0 16 5.5 36t16 38t26.5 30t37 12q26 0 40 -15t23 -35q10 -24 24 -52.5t31 -56.5t37.5 -52t44.5 -39q15 40 30.5 79.5t31.5 79.5q8 21 21 46.5t31 48t41.5 37.5t52.5 15q40 0 59 -24.5t19 -57.5z" />
    <glyph glyph-name="florin" unicode="&#x192;" 
d="M699 653q0 -18 -5.5 -36.5t-16 -33t-26.5 -23.5t-36 -9q-30 0 -49.5 19t-37.5 42t-37.5 42t-47.5 19q-17 0 -20.5 -14.5t-3.5 -27.5q0 -76 3 -151q31 3 56.5 4.5t40.5 1.5q42 0 68.5 -26.5t26.5 -68.5t-26.5 -68.5t-68.5 -26.5q-20 0 -42.5 -1t-45.5 -3q2 -45 3 -89.5
t1 -89.5q0 -44 -14.5 -89.5t-41.5 -82t-65.5 -59.5t-87.5 -23q-31 0 -70.5 12.5t-75 34t-59.5 51.5t-24 66q0 17 2 33t9 28t19 19t33 7q25 0 35.5 -7.5t21 -17t28.5 -17t58 -7.5q20 0 31 9t16.5 22.5t6.5 30t1 31.5q0 57 -3 114q-17 -4 -33.5 -7.5t-31.5 -7.5l-16 -4t-16 -2
q-20 0 -37 8t-29 21.5t-19 31.5t-7 37q0 33 17.5 54.5t46.5 33.5q14 6 42.5 12t63.5 12q-2 26 -4 50.5t-2 50.5q0 45 10.5 100t34.5 102.5t63 80t95 32.5q45 0 92 -16t85.5 -45t63.5 -69.5t25 -89.5z" />
    <glyph glyph-name="circumflex" unicode="&#x2c6;" horiz-adv-x="581" 
d="M499 608q0 -24 -20.5 -44t-54.5 -20q-23 0 -49.5 11.5t-51.5 28t-46.5 35t-34.5 31.5q-11 -14 -18.5 -29t-12.5 -32q-8 -24 -28 -39.5t-55 -15.5q-40 0 -60 21.5t-20 49.5q0 19 9.5 43.5t24 49.5t31.5 47t33 37q17 17 40.5 28.5t52.5 11.5t53.5 -10.5t40.5 -28.5t29 -33
t26.5 -28.5t30 -27t39.5 -28.5q19 -11 30 -24.5t11 -33.5z" />
    <glyph glyph-name="caron" unicode="&#x2c7;" horiz-adv-x="1000" 
 />
    <glyph glyph-name="breve" unicode="&#x2d8;" horiz-adv-x="1000" 
 />
    <glyph glyph-name="dotaccent" unicode="&#x2d9;" horiz-adv-x="1000" 
 />
    <glyph glyph-name="ring" unicode="&#x2da;" horiz-adv-x="774" 
d="M576 794q0 -54 -31.5 -92t-77.5 -62t-99 -35t-96 -11q-32 0 -72 6t-74.5 22t-58 42.5t-23.5 68.5q0 56 33 95.5t81.5 64t104 36t100.5 11.5q35 0 72.5 -7t69 -23.5t51.5 -45t20 -70.5zM389 791q0 7 -9 7h-14q-10 0 -32 -3.5t-45 -10t-40.5 -17t-17.5 -25.5q0 -5 6 -5
q8 0 15.5 2t15.5 2q9 0 29 3t40.5 9t36 15.5t15.5 22.5z" />
    <glyph glyph-name="ogonek" unicode="&#x2db;" horiz-adv-x="1000" 
 />
    <glyph glyph-name="tilde" unicode="&#x2dc;" horiz-adv-x="596" 
d="M531 753q0 -27 -10.5 -52t-29 -44t-43 -30.5t-51.5 -11.5q-26 0 -51.5 10.5t-47 22.5t-37 22.5t-19.5 10.5q-14 0 -25.5 -16t-11.5 -29q0 -2 0.5 -4.5t0.5 -4.5q0 -9 -6.5 -16.5t-16 -13t-20 -9t-17.5 -3.5q-16 0 -32.5 7t-29.5 18.5t-21.5 26.5t-8.5 32q0 12 3.5 27.5
t7.5 26.5q20 56 61 91t102 35q33 0 54.5 -9t37 -20.5t26 -20.5t21.5 -9q10 0 17.5 9t15.5 19.5t18.5 19.5t27.5 9q18 0 33.5 -8.5t27 -22t18 -30t6.5 -33.5z" />
    <glyph glyph-name="hungarumlaut" unicode="&#x2dd;" horiz-adv-x="1000" 
 />
    <glyph glyph-name="pi" unicode="&#x3c0;" horiz-adv-x="703" 
d="M674 716q0 -35 -19 -59.5t-50 -32.5q-1 -27 -1.5 -54.5t-0.5 -54.5q0 -43 1.5 -85.5t3.5 -85.5q4 -63 13 -124.5t20 -123.5q1 -5 1.5 -10.5t0.5 -10.5q0 -22 -8.5 -43.5t-23.5 -38.5t-35.5 -27.5t-43.5 -10.5q-24 0 -41 11.5t-28.5 29t-18 39t-9.5 41.5
q-9 64 -11.5 128.5t-5.5 129.5q-6 136 -6 272q-27 -4 -54.5 -8.5t-53.5 -9.5q0 -23 -0.5 -46.5t-0.5 -46.5q0 -43 1.5 -85.5t3.5 -85.5q4 -63 13 -124.5t20 -123.5q1 -5 1.5 -10.5t0.5 -10.5q0 -22 -8.5 -43.5t-23.5 -38.5t-35.5 -27.5t-43.5 -10.5q-24 0 -41 11.5t-28.5 29
t-18 39t-9.5 41.5q-9 64 -11.5 128.5t-5.5 129.5q-3 57 -4 112.5t-2 111.5q-18 2 -33 11.5t-25 24t-15.5 31.5t-5.5 35q0 31 14 53t40 38q16 10 52.5 19.5t84 18.5t101 16.5t103 13.5t89.5 9t62 3q42 0 68.5 -26.5t26.5 -68.5z" />
    <glyph glyph-name="endash" unicode="&#x2013;" horiz-adv-x="605" 
d="M574 371q0 -42 -26.5 -68.5t-68.5 -26.5q-35 0 -78 -3t-87.5 -9t-87 -14t-76.5 -17l-16 -4t-16 -2q-20 0 -37 8t-29 21.5t-19 31.5t-7 37q0 33 17.5 54.5t46.5 33.5q15 6 45 12.5t67 12.5t78 11t79 9t70 6t50 2q42 0 68.5 -26.5t26.5 -68.5z" />
    <glyph glyph-name="emdash" unicode="&#x2014;" horiz-adv-x="703" 
d="M674 396q0 -42 -26.5 -68.5t-68.5 -26.5q-39 0 -95.5 -6t-115.5 -16t-114 -23t-91 -27q-11 -5 -21 -8t-21 -3q-20 0 -36.5 9t-28 23.5t-17.5 32.5t-6 37q0 31 14 53t40 38q16 10 52.5 19.5t84 18.5t101 16.5t103 13.5t89.5 9t62 3q42 0 68.5 -26.5t26.5 -68.5z" />
    <glyph glyph-name="quoteleft" unicode="&#x2018;" horiz-adv-x="342" 
d="M316 539q0 -19 -8 -36.5t-21.5 -31t-31 -21.5t-36.5 -8t-34.5 7.5t-29.5 19.5q-11 9 -26.5 28.5t-33 44.5t-35 53.5t-31.5 55t-22.5 49t-8.5 35.5q0 19 8 36t21.5 30t31.5 20t37 7q29 0 48.5 -14t33.5 -38q26 -45 49.5 -88.5t58.5 -81.5q14 -15 22 -30.5t8 -36.5z" />
    <glyph glyph-name="quoteright" unicode="&#x2019;" horiz-adv-x="358" 
d="M327 738q0 -15 -8 -33.5t-19 -37.5t-23 -37.5t-20 -31.5q-25 -43 -41 -89q-11 -33 -32 -52.5t-58 -19.5q-20 0 -37.5 7t-31 19.5t-21.5 29.5t-8 37q0 22 14 59t33.5 75.5t40.5 73t35 53.5q14 20 32 31.5t44 11.5q19 0 37 -7.5t32 -20.5t22.5 -30.5t8.5 -37.5z" />
    <glyph glyph-name="quotesinglbase" unicode="&#x201a;" horiz-adv-x="358" 
d="M327 238q0 -15 -8 -33.5t-19 -37.5t-23 -37.5t-20 -31.5q-25 -43 -41 -89q-11 -33 -32 -52.5t-58 -19.5q-20 0 -37.5 7t-31 19.5t-21.5 29.5t-8 37q0 22 14 59t33.5 75.5t40.5 73t35 53.5q14 20 32 31.5t44 11.5q19 0 37 -7.5t32 -20.5t22.5 -30.5t8.5 -37.5z" />
    <glyph glyph-name="quotedblleft" unicode="&#x201c;" horiz-adv-x="578" 
d="M542 468q0 -20 -8 -36.5t-21.5 -28.5t-31 -18.5t-36.5 -6.5q-29 0 -50 14t-36 37q-10 15 -23 41t-26.5 57t-26.5 65t-23.5 65.5t-17 58.5t-6.5 45q0 20 8 37t21.5 29t31 19t37.5 7q36 0 57.5 -19.5t32.5 -52.5q11 -36 21 -72.5t24 -71.5q14 -32 30.5 -62t30.5 -62
q5 -11 8.5 -22t3.5 -23zM294 425q0 -20 -8 -37t-21.5 -30.5t-31.5 -21t-37 -7.5q-23 0 -41.5 11.5t-32.5 28.5q-13 16 -31.5 53t-36 79t-29.5 81.5t-12 59.5t8 37t21.5 29t31.5 19t37 7q34 0 56 -18t33 -49q17 -48 32 -95t43 -91q8 -14 13.5 -27t5.5 -29z" />
    <glyph glyph-name="quotedblright" unicode="&#x201d;" horiz-adv-x="575" 
d="M570 695q0 -16 -5.5 -29.5t-13.5 -26.5q-21 -32 -42.5 -63t-39.5 -65q-16 -31 -28.5 -63t-27.5 -63q-12 -26 -31 -41.5t-49 -15.5q-20 0 -38 7.5t-32 21t-22 31.5t-8 38q0 27 19 72.5t45.5 94t54.5 92t46 65.5q14 18 32.5 29t42.5 11q19 0 36.5 -7.5t31 -20.5t21.5 -30.5
t8 -36.5zM322 760q0 -15 -8 -34t-19 -38t-23 -37t-20 -32q-13 -22 -23 -44t-18 -45q-11 -33 -32 -52.5t-58 -19.5q-20 0 -37.5 7t-31 19.5t-21.5 29.5t-8 37q0 23 14 59.5t33.5 75t41 73t35.5 53.5q14 20 32 31.5t44 11.5q19 0 37 -7.5t31.5 -20.5t22 -30.5t8.5 -36.5z" />
    <glyph glyph-name="quotedblbase" unicode="&#x201e;" horiz-adv-x="535" 
d="M570 195q0 -16 -5.5 -29.5t-13.5 -26.5q-21 -32 -42.5 -63t-39.5 -65q-16 -31 -28.5 -63t-27.5 -63q-12 -26 -31 -41.5t-49 -15.5q-20 0 -38 7.5t-32 21t-22 31.5t-8 38q0 27 19 72.5t45.5 94t54.5 92t46 65.5q14 18 32.5 29t42.5 11q19 0 36.5 -7.5t31 -20.5t21.5 -30.5
t8 -36.5zM322 260q0 -15 -8 -34t-19 -38t-23 -37t-20 -32q-13 -22 -23 -44t-18 -45q-11 -33 -32 -52.5t-58 -19.5q-20 0 -37.5 7t-31 19.5t-21.5 29.5t-8 37q0 23 14 59.5t33.5 75t41 73t35.5 53.5q14 20 32 31.5t44 11.5q19 0 37 -7.5t31.5 -20.5t22 -30.5t8.5 -36.5z" />
    <glyph glyph-name="dagger" unicode="&#x2020;" horiz-adv-x="605" 
d="M574 471q0 -42 -26.5 -68.5t-68.5 -26.5q-23 0 -48.5 -1.5t-53.5 -3.5l1 -17q3 -63 12.5 -124.5t20.5 -123.5q1 -5 1.5 -10.5t0.5 -10.5q0 -22 -8.5 -43.5t-23.5 -38.5t-35.5 -27.5t-43.5 -10.5q-24 0 -41 11.5t-28.5 29t-18 39t-9.5 41.5q-9 64 -11.5 128t-5.5 128
q-10 -2 -19.5 -4.5t-18.5 -4.5l-16 -4t-16 -2q-20 0 -37 8t-29 21.5t-19 31.5t-7 37q0 33 17.5 54.5t46.5 33.5q29 11 93 22q-1 24 -1 48v48q0 25 3.5 50.5t14 46t29.5 33t51 12.5q42 0 68.5 -27t26.5 -69q0 -29 -0.5 -59t-1.5 -59q34 3 61.5 5t44.5 2q42 0 68.5 -26.5
t26.5 -68.5z" />
    <glyph glyph-name="daggerdbl" unicode="&#x2021;" horiz-adv-x="605" 
d="M574 241q0 -42 -26.5 -68.5t-68.5 -26.5q-35 0 -74 -3l6 -37q1 -5 1.5 -10.5t0.5 -10.5q0 -22 -8.5 -43.5t-23.5 -38.5t-35.5 -27.5t-43.5 -10.5q-24 0 -41 11.5t-28.5 29t-18 39t-9.5 41.5q-1 8 -2 14.5t-2 14.5q-27 -6 -51 -12l-16 -4t-16 -2q-20 0 -37 8t-29 21.5
t-19 31.5t-7 37q0 33 17.5 54.5t46.5 33.5q14 6 40 12t60 11q-1 10 -1 19t-1 19q-1 17 -1.5 34t-1.5 34q-9 -2 -18 -4.5t-17 -4.5l-16 -4t-16 -2q-20 0 -37 8t-29 21.5t-19 31.5t-7 37q0 33 17.5 54.5t46.5 33.5q29 11 92 22v26q0 25 3.5 50.5t14 46t29.5 33t51 12.5
q42 0 68.5 -27t26.5 -69v-48q33 3 60 5t44 2q42 0 68.5 -26.5t26.5 -68.5t-26.5 -68.5t-68.5 -26.5q-23 0 -49.5 -1.5t-55.5 -3.5q1 -22 1.5 -43.5t2.5 -43.5q0 -6 0.5 -12t1.5 -12q32 3 57.5 4.5t41.5 1.5q42 0 68.5 -26.5t26.5 -68.5z" />
    <glyph glyph-name="bullet" unicode="&#x2022;" horiz-adv-x="501" 
d="M445 487q0 -38 -16 -55.5t-48 -31.5l1 -2q22 -18 40 -40.5t18 -52.5q0 -19 -7.5 -36t-20.5 -30.5t-30 -21.5t-36 -8q-24 0 -44.5 12.5t-37.5 28.5q-11 -32 -30 -47t-54 -15q-39 0 -67 25.5t-28 65.5q0 29 12.5 60t26.5 56q-16 20 -32.5 46.5t-16.5 53.5q0 19 8 36
t21.5 29.5t31 19.5t36.5 7q26 0 44 -12t32 -33q22 17 49.5 31t56.5 14q20 0 37 -8.5t29 -22.5t18.5 -32t6.5 -37z" />
    <glyph glyph-name="ellipsis" unicode="&#x2026;" horiz-adv-x="1066" 
d="M967 171q0 -34 -11.5 -64t-29.5 -52.5t-41 -35.5t-47 -13q-18 0 -34 8t-28 23t-19.5 35.5t-7.5 45.5q0 33 14 63.5t35 53.5t46 36.5t47 13.5q38 0 57 -32t19 -82zM625 161q0 -33 -12 -62.5t-31.5 -51t-43.5 -34.5t-49 -13q-37 0 -65 30t-28 79q0 33 14.5 62.5t36.5 52
t48.5 35.5t49.5 13q39 0 59.5 -31.5t20.5 -79.5zM295 162q0 -34 -12 -64t-31 -52.5t-43 -36t-48 -13.5q-37 0 -64.5 30.5t-27.5 81.5q0 33 14 63.5t36 53.5t48 36.5t49 13.5q38 0 58.5 -32t20.5 -81z" />
    <glyph glyph-name="perthousand" unicode="&#x2030;" horiz-adv-x="1092" 
d="M1050 257q0 -63 -20.5 -116t-54.5 -91.5t-78 -59.5t-92 -21q-39 0 -74.5 14.5t-61.5 43.5q-32 -25 -70.5 -39.5t-84.5 -14.5q-35 0 -66 9.5t-56 28t-43 45t-27 60.5q-12 -19 -25 -41t-28.5 -41.5t-35.5 -32.5t-46 -13q-20 0 -38 7.5t-31.5 21t-21.5 31t-8 37.5
q0 23 19.5 59.5t45.5 75.5t53 74.5t42 57.5q-7 -1 -13 -1h-13q-43 0 -79.5 14t-63 39t-41.5 60.5t-15 79.5q0 57 21 109.5t58 92.5t87.5 64t109.5 24q78 0 126.5 -44t58.5 -120q14 19 34.5 46.5t44.5 53t49.5 44t51.5 18.5q19 0 37 -8t32 -21.5t22.5 -31t8.5 -36.5
q0 -18 -7 -34t-17 -30q-14 -20 -31 -38.5t-33 -37.5q-25 -30 -49.5 -60t-48.5 -61q5 0 9 0.5t9 0.5q46 0 79.5 -17.5t56.5 -46.5q66 52 146 52q76 0 124 -53t48 -153zM893 257q0 12 -2 20.5t-14 8.5q-18 0 -35.5 -9.5t-31.5 -26t-22.5 -38t-8.5 -45.5q0 -15 8.5 -17t17.5 -2
q17 0 33 9t28 24t19.5 34.5t7.5 41.5zM313 632q0 11 -3 20t-16 9q-19 0 -36.5 -12t-31 -29.5t-22 -38t-8.5 -37.5q0 -11 6.5 -15t16.5 -4q20 0 37.5 9.5t30 25t19.5 34.5t7 38zM604 265q0 10 -3 21t-16 11q-19 0 -36.5 -13t-31 -32t-21.5 -40.5t-8 -38.5q0 -20 22 -20
q21 0 38 10.5t29.5 27t19.5 36t7 38.5z" />
    <glyph glyph-name="guilsinglleft" unicode="&#x2039;" horiz-adv-x="536" 
d="M533 132q0 -29 -27 -51.5t-67 -22.5q-39 0 -78.5 22t-77 52.5t-71 62t-60.5 49.5q-14 9 -31.5 15t-34 12t-31 14.5t-21.5 23.5q-3 5 -4 11.5t-1 12.5q0 14 6.5 27.5t17.5 26.5q9 11 19.5 20.5t20.5 20.5q20 21 52.5 56t68.5 71t72 66t63 40q25 10 48 10q19 0 36.5 -6
t30 -16.5t20 -23.5t7.5 -28q0 -21 -13 -34t-35 -25q-57 -31 -99 -77.5t-77 -91.5q43 -52 93 -97.5t120 -77.5q24 -11 38.5 -25t14.5 -37z" />
    <glyph glyph-name="guilsinglright" unicode="&#x203a;" horiz-adv-x="520" 
d="M498 395q0 -33 -21 -53.5t-52 -40.5q-27 -17 -53 -35.5t-49 -38.5t-42 -42.5t-31 -47.5t-33.5 -39.5t-58.5 -14.5q-40 0 -70 20t-30 51q0 29 25 62t60 65t71.5 61.5t60.5 52.5q-44 45 -100.5 80.5t-115.5 69.5q-20 11 -31.5 24t-11.5 33q0 15 7.5 28.5t20.5 24.5t31 17.5
t38 6.5q31 0 71.5 -22t82 -51t78.5 -59t61 -46q15 -11 30.5 -21t28.5 -22q14 -14 23.5 -30t9.5 -33z" />
    <glyph glyph-name="fraction" unicode="&#x2044;" horiz-adv-x="690" 
d="M688 734q0 -19 -6.5 -34t-17.5 -29q-31 -42 -64.5 -80.5t-65.5 -78.5q-160 -198 -302 -415q-10 -15 -18.5 -30t-18.5 -30q-15 -23 -34.5 -36t-47.5 -13q-20 0 -38 7.5t-32 20.5t-22.5 31t-8.5 38q0 14 3.5 25.5t9.5 23.5q25 51 60 97t67 93q60 88 122.5 172.5
t128.5 167.5l54 68t58 66q15 16 32 25t40 9q19 0 37.5 -8t32.5 -21.5t22.5 -31t8.5 -37.5z" />
    <glyph glyph-name="Euro" unicode="&#x20ac;" horiz-adv-x="721" 
d="M706 120q0 -32 -16 -52.5t-43 -34.5q-29 -14 -63 -27t-70 -22.5t-72 -15t-68 -5.5q-96 0 -156.5 48.5t-86.5 139.5q-36 5 -64 30t-28 64q0 33 22 54t51 30l1 37q-34 7 -60 24.5t-26 54.5q0 24 13 41t32.5 28t42.5 17t42 9q16 46 41 96t60 91t80 67.5t102 26.5
q43 0 77.5 -14t58.5 -38.5t37 -58.5t13 -74q0 -41 -21 -66.5t-63 -25.5q-32 0 -57 18t-53 63q-12 0 -23 -7.5t-20 -18t-16.5 -23t-11.5 -21.5h38q20 0 40.5 -5.5t36.5 -16.5t26 -28t10 -40q0 -39 -22.5 -56.5t-55 -23t-68 -3.5t-61.5 1l-1 -29q27 1 61.5 1t66 -8t53 -27
t21.5 -55q0 -26 -19 -43.5t-46.5 -28.5t-59.5 -16t-58 -6q8 -9 19 -12.5t22 -3.5q35 0 68.5 9.5t65 21t60.5 21t55 9.5q19 0 36 -7.5t30 -21t20 -31t7 -36.5z" />
    <glyph glyph-name="trademark" unicode="&#x2122;" horiz-adv-x="803" 
d="M771 389q0 -15 -5 -28.5t-14.5 -24.5t-22.5 -17.5t-28 -6.5q-23 0 -38 12t-25 30t-15.5 39t-8.5 39q-11 -11 -25.5 -19t-31.5 -8q-18 0 -36 10q1 -13 2.5 -25t1.5 -25q0 -30 -21.5 -49.5t-50.5 -19.5q-24 0 -39 12.5t-23.5 31t-11 40.5t-2.5 41q0 48 1.5 95.5t8.5 95.5
q-5 11 -10 23t-7 25q-14 -18 -39.5 -23.5t-54.5 -5.5q1 -62 7.5 -123t6.5 -123q0 -32 -23.5 -53t-55.5 -21q-34 0 -50.5 21.5t-22.5 52t-5 63.5t1 56q0 29 0.5 59t1.5 59q-22 -5 -40 -5q-30 0 -50 19t-20 50q0 24 13.5 40.5t35.5 24.5q49 19 105 28t109 9q38 0 65 -13
t31 -53q23 26 57 26q27 0 43.5 -14.5t24.5 -39.5q10 -28 23 -54.5t29 -51.5q13 21 22.5 51.5t21.5 58.5t29.5 47.5t45.5 19.5q32 0 51 -22.5t19 -52.5t-3 -59.5t-3 -59.5q0 -20 2.5 -40.5t5.5 -40.5q4 -24 11 -50.5t7 -50.5z" />
    <glyph glyph-name="Omega" unicode="&#x2126;" horiz-adv-x="726" 
d="M730 114q0 -42 -26.5 -68.5t-68.5 -26.5q-31 0 -60 -5t-58 -13l-16 -4t-16 -2q-35 0 -61.5 19.5t-34.5 51.5q-8 -31 -34.5 -49t-58.5 -18q-16 0 -32 1t-32 1q-26 0 -51.5 -8.5t-51.5 -8.5q-20 0 -37 8t-29 21.5t-19 31.5t-7 37q0 24 9.5 41t25 29t35 19t40.5 11
q-21 25 -39 60.5t-30.5 73.5t-20 77t-7.5 72q0 65 27.5 129.5t74 116t107.5 83.5t129 32q146 0 213 -77.5t67 -218.5q0 -83 -13.5 -165t-50.5 -157q8 1 15.5 1h15.5q42 0 68.5 -26.5t26.5 -68.5zM465 501q0 21 -1.5 44.5t-9 43.5t-23 33.5t-43.5 13.5q-25 0 -49 -18.5
t-42.5 -45t-30 -56.5t-11.5 -52v-23q0 -68 18 -115.5t41 -83.5t45 -65.5t30 -61.5q2 9 5 18t7 18q21 49 33.5 90t19.5 81t9 83t2 96z" />
    <glyph glyph-name="partialdiff" unicode="&#x2202;" horiz-adv-x="645" 
d="M636 353q0 -74 -16 -147.5t-52.5 -132t-96 -95t-146.5 -36.5q-54 0 -98.5 31t-79.5 77.5t-60 99t-40 96.5q-10 29 -19 63t-9 64q0 38 17 69t45 53t62.5 34t69.5 12q57 0 112 -21t103 -50q-6 25 -17 56t-28 58.5t-41 46.5t-55 19q-12 0 -17 -8t-12 -17t-20 -17t-40 -8
q-18 0 -35 4.5t-30.5 14t-21.5 24t-8 34.5q0 12 3 24t8 23q48 116 173 116q58 0 106.5 -22.5t87.5 -60t68 -87t48.5 -103.5t29 -109.5t9.5 -104.5zM432 233q-18 15 -45.5 35t-58 37.5t-61 29.5t-54.5 13q2 -10 9 -29.5t16.5 -43.5t21 -49.5t23.5 -46t23 -34t19 -13.5
q23 0 40.5 8t30.5 22t22 32.5t14 38.5z" />
    <glyph glyph-name="Delta" unicode="&#x2206;" horiz-adv-x="606" 
d="M604 83q0 -37 -24.5 -64t-62.5 -27h-8q-5 -1 -10 -1.5t-10 -0.5q-33 0 -81 -2t-98 -7.5t-95.5 -15t-74.5 -24.5l-4 -2q-20 -17 -50 -17q-35 0 -58 24t-23 59q0 8 2 16.5t4 16.5q45 168 73.5 339t28.5 345q0 18 5 37t14.5 34t25 24.5t36.5 9.5q22 0 42 -12.5t37 -31
t31 -39t25 -36.5q91 -134 157.5 -284t111.5 -305q6 -18 6 -36zM393 168q-4 8 -7 16.5t-7 16.5q-26 57 -50.5 114.5t-53.5 113.5q-11 -71 -27.5 -140t-33.5 -138q44 8 90.5 11.5t88.5 5.5z" />
    <glyph glyph-name="product" unicode="&#x220f;" horiz-adv-x="703" 
d="M674 716q0 -35 -19 -59.5t-50 -32.5q-1 -27 -1.5 -54.5t-0.5 -54.5q0 -43 1.5 -85.5t3.5 -85.5q4 -63 13 -124.5t20 -123.5q1 -5 1.5 -10.5t0.5 -10.5q0 -22 -8.5 -43.5t-23.5 -38.5t-35.5 -27.5t-43.5 -10.5q-24 0 -41 11.5t-28.5 29t-18 39t-9.5 41.5
q-9 64 -11.5 128.5t-5.5 129.5q-6 136 -6 272q-27 -4 -54.5 -8.5t-53.5 -9.5q0 -23 -0.5 -46.5t-0.5 -46.5q0 -43 1.5 -85.5t3.5 -85.5q4 -63 13 -124.5t20 -123.5q1 -5 1.5 -10.5t0.5 -10.5q0 -22 -8.5 -43.5t-23.5 -38.5t-35.5 -27.5t-43.5 -10.5q-24 0 -41 11.5t-28.5 29
t-18 39t-9.5 41.5q-9 64 -11.5 128.5t-5.5 129.5q-3 57 -4 112.5t-2 111.5q-18 2 -33 11.5t-25 24t-15.5 31.5t-5.5 35q0 31 14 53t40 38q16 10 52.5 19.5t84 18.5t101 16.5t103 13.5t89.5 9t62 3q42 0 68.5 -26.5t26.5 -68.5z" />
    <glyph glyph-name="summation" unicode="&#x2211;" horiz-adv-x="708" 
d="M701 208q0 -25 -10.5 -44.5t-27.5 -33.5t-38 -23.5t-43 -14.5q-46 -11 -95.5 -22.5t-98.5 -26t-95.5 -33t-86.5 -44.5q-15 -10 -29.5 -15.5t-32.5 -5.5q-20 0 -38.5 7.5t-33 21t-23 31t-8.5 38.5q0 17 5.5 30.5t14.5 27.5q16 23 32 46.5t30 47.5q36 63 63.5 129.5
t59.5 131.5q-48 44 -100.5 78t-105.5 70q-23 16 -39.5 37.5t-16.5 50.5q0 33 16 50.5t40 25.5t52 9t51 1h14.5t14.5 1q67 5 133 17.5t134 12.5q27 0 59 -4t60 -16t46.5 -33.5t18.5 -57.5q0 -17 -6 -34t-16.5 -30.5t-25.5 -21.5t-34 -8q-11 0 -21 3.5t-21 8.5q-16 7 -33.5 9
t-34.5 2q-26 0 -52.5 -3t-52.5 -7q52 -45 102 -93q25 -25 25 -59q0 -26 -12 -49t-27 -43q-17 -23 -31 -46.5t-26 -49.5q-8 -17 -16 -35t-16 -35q31 8 70.5 22t80 27.5t79 23t68.5 9.5q34 0 56 -24t22 -57z" />
    <glyph glyph-name="radical" unicode="&#x221a;" horiz-adv-x="813" 
d="M770 548l-151 -305q-20 -40 -41 -79t-41 -79q-9 -18 -21 -43t-29 -45.5t-38 -30.5t-48 3q-24 12 -49.5 35t-51 50t-49.5 54t-44 47q-28 29 -58 55t-56 55q-20 21 -26.5 43t7.5 49q9 19 24.5 30.5t34.5 16t39 1.5t38 -12q19 -10 45.5 -30t53.5 -43.5t51.5 -47.5t39.5 -40
q35 63 70 124.5t67 126.5q28 57 47 116t47 116q18 36 55.5 46.5t73.5 -6.5q32 -16 42 -41.5t7 -54.5t-15 -58t-24 -53z" />
    <glyph glyph-name="infinity" unicode="&#x221e;" horiz-adv-x="953" 
d="M906 437q0 -62 -25.5 -113.5t-67.5 -88.5t-97 -58t-114 -21q-48 0 -92 14t-76 42q-39 -26 -85.5 -41t-96.5 -15q-44 0 -85.5 12t-73 36t-50.5 60.5t-19 84.5q0 65 27 118.5t71 91.5t101.5 59t119.5 21q100 0 159 -57q42 28 90.5 42.5t100.5 14.5q47 0 86 -13.5t67.5 -39
t44 -63.5t15.5 -86zM711 437q0 12 -2.5 20.5t-16.5 8.5q-23 0 -45 -9.5t-39 -25.5t-28 -37.5t-11 -44.5q0 -14 11 -16t22 -2q21 0 40.5 8.5t35 23.5t24.5 34t9 40zM361 437q0 12 -2.5 20.5t-16.5 8.5q-23 0 -45 -9.5t-39 -25.5t-28 -37.5t-11 -44.5q0 -14 11 -16t22 -2
q21 0 40.5 8.5t35 23.5t24.5 34t9 40z" />
    <glyph glyph-name="integral" unicode="&#x222b;" 
d="M699 653q0 -18 -5.5 -36.5t-16 -33t-26.5 -23.5t-36 -9q-30 0 -49.5 19t-37.5 42t-37.5 42t-47.5 19q-17 0 -20.5 -14.5t-3.5 -27.5q0 -131 8 -259t8 -259q0 -44 -14.5 -89.5t-41.5 -82t-65.5 -59.5t-87.5 -23q-31 0 -70.5 12.5t-75 34t-59.5 51.5t-24 66q0 17 2 33t9 28
t19 19t33 7q25 0 35.5 -7.5t21 -17t28.5 -17t58 -7.5q20 0 31 9t16.5 22.5t6.5 30t1 31.5q0 46 -1.5 91.5t-6.5 90.5q-6 56 -13 110.5t-7 111.5q0 45 10.5 100t34.5 102.5t63 80t95 32.5q45 0 92 -16t85.5 -45t63.5 -69.5t25 -89.5z" />
    <glyph glyph-name="approxequal" unicode="&#x2248;" horiz-adv-x="596" 
d="M566 575q0 -30 -12 -57.5t-32 -49t-47.5 -34t-57.5 -12.5q-29 0 -57.5 11.5t-52.5 25.5t-41 25.5t-22 11.5q-8 0 -15 -5.5t-13 -13t-9.5 -16t-3.5 -15.5q0 -3 0.5 -5.5t0.5 -5.5q0 -9 -7.5 -17.5t-18 -15t-21.5 -10t-19 -3.5q-18 0 -36.5 7.5t-33 20t-24 29.5t-9.5 36
q0 14 4 30.5t9 29.5q22 63 67 101.5t114 38.5q36 0 60.5 -10t41.5 -22.5t28.5 -22.5t23.5 -10t20 10t16.5 21.5t20.5 21.5t31 10q20 0 37.5 -9t30 -24t20 -34t7.5 -38zM576 255q0 -30 -12 -57.5t-32 -49t-47.5 -34t-57.5 -12.5q-29 0 -57.5 11.5t-52.5 25.5t-41 25.5
t-22 11.5q-8 0 -15 -5.5t-13 -13t-9.5 -16t-3.5 -15.5q0 -3 0.5 -5.5t0.5 -5.5q0 -9 -7.5 -17.5t-18 -15t-21.5 -10t-19 -3.5q-18 0 -36.5 7.5t-33 20t-24 29.5t-9.5 36q0 14 4 30.5t9 29.5q22 63 67 101.5t114 38.5q36 0 60.5 -10t41.5 -22.5t28.5 -22.5t23.5 -10t20 10
t16.5 21.5t20.5 21.5t31 10q20 0 37.5 -9t30 -24t20 -34t7.5 -38z" />
    <glyph glyph-name="notequal" unicode="&#x2260;" horiz-adv-x="494" 
d="M466 247q0 -39 -28.5 -65t-73.5 -26q-42 0 -82.5 -2t-81.5 -10q-5 -13 -11 -26t-11 -27q-5 -13 -10 -26.5t-11 -27.5q-8 -20 -19 -32t-26 -12q-23 0 -40 25.5t-17 62.5q0 11 2 22t5 22q3 8 5.5 16t5.5 16q-15 14 -24 32t-9 38q0 31 18.5 52.5t50.5 32.5q13 4 35 9
q5 10 8.5 20t8.5 20q-3 -1 -5.5 -1.5t-5.5 -1.5l-16 -4t-16 -2q-20 0 -37 8t-29 21.5t-19 31.5t-7 37q0 32 17.5 54.5t46.5 33.5q30 12 75 18t90 8q5 10 9.5 19.5t9.5 19.5q15 31 30.5 62t32.5 59q8 14 17.5 22.5t22.5 8.5q23 0 40 -26t17 -62q0 -17 -4 -30.5t-10 -26.5
q-8 -17 -15.5 -32.5t-15.5 -31.5q35 -27 35 -75q0 -42 -26.5 -68.5t-68.5 -26.5h-25q-5 -10 -9.5 -19.5t-9.5 -19.5q22 1 42 1h37q45 0 73.5 -25.5t28.5 -65.5z" />
    <glyph glyph-name="lessequal" unicode="&#x2264;" horiz-adv-x="536" 
d="M533 232q0 -29 -27 -51.5t-67 -22.5q-39 0 -78.5 22t-77 52.5t-71 62t-60.5 49.5q-14 9 -31.5 15t-34 12t-31 14.5t-21.5 23.5q-3 5 -4 11.5t-1 12.5q0 14 6.5 27.5t17.5 26.5q9 11 19.5 20.5t20.5 20.5q20 21 52.5 56t68.5 71t72 66t63 40q25 10 48 10q19 0 36.5 -6
t30 -16.5t20 -23.5t7.5 -28q0 -21 -13 -34t-35 -25q-57 -31 -99 -77.5t-77 -91.5q43 -52 93 -97.5t120 -77.5q24 -11 38.5 -25t14.5 -37zM519 68q0 -31 -20.5 -51t-51.5 -20q-30 0 -73.5 -1.5t-89.5 -6t-87.5 -12t-68.5 -19.5q-8 -4 -15.5 -6.5t-16.5 -2.5q-29 0 -44.5 22.5
t-15.5 48.5q0 23 11 41t31 30q28 16 75.5 25.5t100 14.5t103 6.5t84.5 1.5q33 0 55.5 -18t22.5 -53z" />
    <glyph glyph-name="greaterequal" unicode="&#x2265;" horiz-adv-x="520" 
d="M498 495q0 -33 -21 -53.5t-52 -40.5q-27 -17 -53 -35.5t-49 -38.5t-42 -42.5t-31 -47.5t-33.5 -39.5t-58.5 -14.5q-40 0 -70 20t-30 51q0 29 25 62t60 65t71.5 61.5t60.5 52.5q-44 45 -100.5 80.5t-115.5 69.5q-20 11 -31.5 24t-11.5 33q0 15 7.5 28.5t20.5 24.5t31 17.5
t38 6.5q31 0 71.5 -22t82 -51t78.5 -59t61 -46q15 -11 30.5 -21t28.5 -22q14 -14 23.5 -30t9.5 -33zM519 68q0 -31 -20.5 -51t-51.5 -20q-30 0 -73.5 -1.5t-89.5 -6t-87.5 -12t-68.5 -19.5q-8 -4 -15.5 -6.5t-16.5 -2.5q-29 0 -44.5 22.5t-15.5 48.5q0 23 11 41t31 30
q28 16 75.5 25.5t100 14.5t103 6.5t84.5 1.5q33 0 55.5 -18t22.5 -53z" />
    <glyph glyph-name="lozenge" unicode="&#x25ca;" horiz-adv-x="827" 
d="M798 375q0 -33 -21 -53.5t-52 -40.5q-27 -17 -53 -35.5t-49 -38.5t-42 -42.5t-31 -47.5q-11 -22 -28.5 -35.5t-46.5 -17.5q-17 -6 -36 -6q-39 0 -78.5 22t-77 52.5t-71 62t-60.5 49.5q-14 9 -31.5 15t-34 12t-31 14.5t-21.5 23.5q-3 5 -4 11.5t-1 12.5q0 14 6.5 27.5
t17.5 26.5q9 11 19.5 20.5t20.5 20.5q20 21 52.5 56t68.5 71t72 66t63 40q25 10 48 10q21 0 39 -7t31 -19q31 -13 65 -35.5t66.5 -47t60.5 -46.5t47 -35q15 -11 30.5 -21t28.5 -22q14 -14 23.5 -30t9.5 -33zM575 375q-38 39 -84.5 70t-97.5 60q-38 -29 -69 -65t-57 -71
q32 -38 67 -73.5t79 -64.5q19 20 41.5 40t44.5 38t42 35t34 31z" />
    <glyph glyph-name="uniF8FF" unicode="&#xf8ff;" horiz-adv-x="1495" 
d="M1479 690h-4v27l-10 -27h-3l-10 27h-1v-27h-3v31h6l10 -25l9 25h6v-31zM1444 718h-10v-28h-4v28h-9v3h23v-3zM1415 690q0 -17 -8 -28.5t-21 -18t-28 -10t-29 -3.5q12 9 15 20q-8 -10 -25 -16.5t-29 -9.5v-15h-36v-200h-21q0 -97 -43.5 -168.5t-124.5 -122.5
q0 -43 -21 -78t-62 -52q-4 -2 -14.5 -5.5t-14.5 -3.5q-12 0 -12 11q0 3 5.5 7.5t11.5 12t11.5 18.5t5.5 25q0 9 -5 21q-68 -24 -139.5 -34t-143.5 -10q-94 0 -190 18t-178 66v-62q-51 19 -94 48t-74.5 67t-49 85.5t-17.5 104.5q0 25 5.5 52.5t16 53.5t25.5 49t35 40
q-10 2 -19.5 7t-17.5 10q5 -10 15 -15q-3 -1 -6.5 -1h-6.5q-12 0 -26 3.5t-25 10.5t-18.5 18t-7.5 25q0 18 11.5 28.5t28.5 10.5q15 0 26 -8q11 8 25 8q13 0 25 -7t12 -22q0 -8 -3.5 -17t-9.5 -14q2 -6 4.5 -12t8.5 -9q2 2 5 4t5 4q4 4 5.5 7t4.5 8q20 27 48 52q42 38 95 64
t110.5 42t116.5 23t115 7q51 0 104 -5t105 -17t101 -32t92 -50q50 2 99.5 3.5t99.5 1.5q-3 6 -3 14q0 15 11 24t25 9q15 0 28 -11q10 11 29 11q15 0 26 -11t11 -26zM1396 690q0 8 -6.5 14t-14.5 6t-13 -5.5t-5 -13.5q0 -7 4.5 -12.5t11.5 -5.5v-2q0 -11 -10 -19
q11 5 22 14.5t11 23.5zM1345 690q0 9 -6.5 15t-15.5 6q-6 0 -12 -5.5t-6 -11.5q0 -8 4.5 -14t12.5 -7v-2q0 -11 -11 -18q11 5 22.5 14.5t11.5 22.5zM1304 664q-10 5 -14 13v-30q10 9 14 17zM1174 592v14l-9 -1q2 -3 4.5 -6t4.5 -7zM1269 629v30h-111v-30h36v-201l39 -1v202
h36zM1140 627v31l-79 -3v-233l36 2v57l40 2v34l-40 -3l4 111zM1051 421l-54 229l-52 -4l-43 -243l37 6l6 33l60 5l9 -29zM901 496q-7 -25 -28 -44l15 -15zM892 402l-47 49q20 16 33.5 42t13.5 52q0 45 -27 67.5t-70 22.5h-8t-8 -1v-253l35 7l-1 43l39 -36zM756 430v144
q-28 -8 -47 -29t-19 -51q0 -28 19.5 -45.5t46.5 -18.5zM762 378v34q-38 0 -64 21t-26 62q0 38 24.5 65t60.5 36v37q-25 -5 -47.5 -17.5t-39.5 -30.5t-27 -41t-10 -50q0 -59 37 -87.5t92 -28.5zM1215 405q0 1 -0.5 2t-0.5 2h-40v149q-7 12 -15.5 23.5t-17.5 22.5l-21 -1v-69
l37 2v-73l-40 -3v-56l-114 -10l-11 31l-25 -3l-8 -31q-28 -2 -55.5 -7.5t-54.5 -10.5l-12 10v-13q-22 -5 -44 -9.5t-45 -4.5q-32 0 -65 14.5t-50 43.5v-87l-144 -47v79l-17 -39l-18 36v-89l-76 -31l1 38q-5 -11 -12 -22.5t-16 -21t-20 -16t-24 -6.5q-26 0 -43.5 17
t-28.5 41.5t-15.5 51.5t-4.5 47t4.5 46t15.5 49.5t28 39.5t43 16q27 0 45 -17t26 -41v74l62 21l30 -48l20 61l143 52v-52q10 23 28 40t40 28t46.5 16.5t48.5 5.5q45 0 76 -19.5t42 -64.5l15 93l85 5l26 -108v110l18 1q-41 25 -86 42t-92.5 27t-96 14t-95.5 4
q-57 0 -118.5 -7.5t-121 -25t-113 -46.5t-93.5 -73q15 8 30.5 14.5t32.5 9.5v-98q-31 -6 -55.5 -24t-41 -43t-25.5 -55t-9 -60q0 -33 11.5 -64t31.5 -57t46.5 -46t56.5 -32v-17q81 -50 177.5 -68.5t190.5 -18.5q73 0 144 10.5t140 34.5q1 0 2 0.5t2 0.5q5 0 8.5 -5.5
t6 -12.5t3.5 -14t1 -11q0 -11 -3.5 -21.5t-8.5 -20.5q30 16 42 35.5t16 37.5t4.5 31.5t5.5 17.5q14 11 28.5 21t28.5 21q56 48 82 102.5t26 128.5zM611 338v248l-36 -12v-248zM545 318v247l-39 -14l-36 -95l-41 73l-32 -12v-252l36 13v161l39 -61l38 91l-1 -163zM163 611
q0 8 -5 14t-13 6q-9 0 -15 -6t-6 -15q0 -13 11 -22.5t22 -14.5q-11 7 -11 20q7 1 12 5.5t5 12.5zM112 611q0 8 -5.5 13.5t-13.5 5.5t-14 -6t-6 -14q0 -14 10.5 -23.5t21.5 -14.5q-10 9 -10 20q7 1 12 6.5t5 12.5zM378 354q0 16 -3 40.5t-10.5 47t-22 38.5t-36.5 16
q-21 0 -35 -14.5t-22.5 -35.5t-12.5 -43.5t-4 -38.5q0 -15 4.5 -38t13.5 -44.5t23 -37t34 -15.5q17 0 30.5 14.5t22.5 34.5t13.5 41t4.5 35zM300 85v53q-32 11 -59.5 32.5t-47 49t-30.5 60.5t-11 67q0 31 8.5 63.5t25.5 60t42 49t57 30.5v54q-41 -13 -74.5 -38.5t-57 -59
t-36.5 -74t-13 -82.5q0 -44 15.5 -85.5t42 -76.5t62 -61.5t76.5 -41.5zM999 475l-48 -4l22 127zM859 537q0 -18 -16 -36t-30 -27v116q21 -3 33.5 -17.5t12.5 -35.5zM341 365q0 -8 -1 -24t-5 -32t-10.5 -28t-18.5 -12q-10 0 -17.5 12t-12 27.5t-6.5 31t-2 23.5t2 24.5t6 33
t11 29t18 12.5q12 0 19 -12t11 -28t5 -32t1 -25zM981 489l-6 27l-5 -28zM840 539q0 5 -2.5 11t-7.5 8v-41q5 4 7.5 10t2.5 12zM319 364q0 4 -0.5 15t-2 23t-4 21t-7.5 9t-7.5 -9.5t-4.5 -21.5t-2.5 -23t-0.5 -15q0 -3 1 -14t2.5 -22t4.5 -20t7 -9q5 0 7.5 9t4 20.5t2 22
t0.5 14.5z" />
    <glyph glyph-name="uniFB01" unicode="&#xfb01;" horiz-adv-x="1035" 
d="M983 85q0 -22 -8.5 -43.5t-23.5 -38.5t-35.5 -27.5t-43.5 -10.5q-24 0 -41 11.5t-28.5 29t-18 39t-9.5 41.5q-9 64 -11.5 128.5t-5.5 129.5q-4 72 -5 143.5t-1 143.5q0 25 3.5 50.5t14 46t29.5 33t51 12.5q42 0 68.5 -27t26.5 -69q0 -38 -1 -76t-1 -76q0 -43 1.5 -85.5
t3.5 -85.5q4 -63 13 -124.5t20 -123.5q1 -5 1.5 -10.5t0.5 -10.5zM679 709q0 -20 -5.5 -38t-17 -32.5t-27.5 -23t-37 -8.5q-10 0 -19 0.5t-19 0.5q-77 0 -153 -10t-153 -15v-31q0 -28 1 -56l2 -56q68 20 137.5 27.5t139.5 7.5q38 0 61 -23t23 -61q0 -40 -23.5 -65.5
t-60.5 -35.5q-63 -17 -126 -31.5t-125 -37.5v-36t1 -38.5t4 -38t9 -33.5q4 -11 6.5 -20t2.5 -20q0 -20 -6.5 -40t-19 -36t-30 -26t-39.5 -10q-26 0 -44.5 14t-32 35t-21.5 45t-12 45q-11 61 -13.5 122.5t-5.5 123.5q-6 141 -3 283q-20 17 -29 42.5t-9 51.5q0 37 17 64t55 36
q48 11 102.5 17t110.5 9t111.5 3.5t105.5 0.5q29 0 54.5 -3.5t45 -14.5t31 -32t11.5 -56z" />
    <glyph glyph-name="uniFB02" unicode="&#xfb02;" horiz-adv-x="1283" 
d="M1270 131q0 -30 -16 -47t-42 -27q-37 -14 -75 -24t-76 -23q-27 -9 -60.5 -22.5t-68 -26.5t-68 -22t-60.5 -9q-30 0 -44.5 18.5t-20 44t-5.5 53.5v48q0 45 -1.5 89t-1.5 89v340q0 27 2.5 58.5t12.5 58.5t30.5 45.5t56.5 18.5q40 0 68.5 -26t28.5 -67q0 -63 -9.5 -125
t-9.5 -125q0 -72 4 -142.5t7 -142.5q21 7 53.5 17.5t67 19.5t67.5 15.5t54 6.5q20 0 39 -6.5t34 -18.5t24 -29t9 -39zM679 719q0 -20 -5.5 -38t-17 -32.5t-27.5 -23t-37 -8.5q-10 0 -19 0.5t-19 0.5q-77 0 -153 -10t-153 -15v-31q0 -28 1 -56l2 -56q68 20 137.5 27.5
t139.5 7.5q38 0 61 -23t23 -61q0 -40 -23.5 -65.5t-60.5 -35.5q-63 -17 -126 -31.5t-125 -37.5v-36t1 -38.5t4 -38t9 -33.5q4 -11 6.5 -20t2.5 -20q0 -20 -6.5 -40t-19 -36t-30 -26t-39.5 -10q-26 0 -44.5 14t-32 35t-21.5 45t-12 45q-11 61 -13.5 122.5t-5.5 123.5
q-6 141 -3 283q-20 17 -29 42.5t-9 51.5q0 37 17 64t55 36q48 11 102.5 17t110.5 9t111.5 3.5t105.5 0.5q29 0 54.5 -3.5t45 -14.5t31 -32t11.5 -56z" />
    <glyph glyph-name="glyph268" horiz-adv-x="1040" 
 />
    <glyph glyph-name="glyph269" horiz-adv-x="1040" 
 />
    <glyph glyph-name="glyph270" horiz-adv-x="467" 
d="M442 199q0 -32 -17 -61.5t-36 -53.5t-44 -50t-54.5 -48t-61 -36t-64.5 -14q-43 0 -67 27t-24 69q0 27 12 44t30.5 28.5t40 19t40 16.5t30.5 21t12 31q0 13 -13 23t-28 22t-28 28t-13 42q0 22 8 43t21 39q-27 16 -37.5 45t-10.5 58q0 28 8.5 54.5t8.5 53.5q0 7 -5.5 12.5
t-13.5 9t-16 5.5t-14 2q-8 0 -15 -3.5t-15 -3.5q-15 0 -26 7.5t-19 19.5t-12 26t-4 27t4.5 28.5t13 29.5t20 24.5t25.5 14.5t28.5 5t28.5 1q43 0 80 -13t64.5 -37t43 -59.5t15.5 -80.5q0 -15 -4 -28t-9.5 -25t-9.5 -23t-4 -22q0 -16 14.5 -21.5t31.5 -12t31.5 -19
t14.5 -41.5q0 -18 -6.5 -33.5t-14.5 -29t-14.5 -26t-6.5 -25.5q0 -15 12.5 -23.5t28 -18.5t28 -25.5t12.5 -42.5z" />
    </font>
</defs>
</svg>
